G04 ================== begin FILE IDENTIFICATION RECORD ==================*
G04 Layout Name:  isolated_v-i_dac.brd*
G04 Film Name:    Isolated_V-I_DAC-v1_00-0b-INNER1*
G04 File Format:  Gerber RS274X*
G04 File Origin:  Cadence Allegro 17.4-S021*
G04 Origin Date:  Sun Sep 26 13:55:38 2021*
G04 *
G04 Layer:  ETCH/INNER1*
G04 Layer:  PIN/INNER1*
G04 Layer:  VIA CLASS/INNER1*
G04 *
G04 Offset:    (0.00 0.00)*
G04 Mirror:    No*
G04 Mode:      Positive*
G04 Rotation:  0*
G04 FullContactRelief:  No*
G04 UndefLineWidth:     6.00*
G04 ================== end FILE IDENTIFICATION RECORD ====================*
%FSLAX25Y25*MOIN*%
%IR0*IPPOS*OFA0.00000B0.00000*MIA0B0*SFA1.00000B1.00000*%
%ADD11C,.02*%
%ADD13C,.093*%
%ADD10O,.08X.06*%
%ADD12R,.08X.06*%
%ADD14C,.006*%
%ADD15C,.007*%
%ADD16C,.04004*%
%ADD18C,.10304*%
%ADD17C,.11304*%
G75*
%LPD*%
G75*
G36*
G01X10500Y42000D02*
X89500D01*
Y19500D01*
X97000D01*
Y18855D01*
G02X96539Y18460I-400J0D01*
G03X96000Y18502I-539J-3438D01*
G01X94000D01*
G03Y11498I0J-3502D01*
G01X96000D01*
G03X96539Y11540I0J3480D01*
G02X96948Y10948I61J-395D01*
G01X89500Y3501D01*
X89000Y3001D01*
X9000D01*
G02X8983Y2999I-654J5483D01*
G02X3003Y7983I-170J5876D01*
G02X3000Y8011I5488J602D01*
G01Y8989D01*
X3001Y9000D01*
Y11145D01*
G02X3462Y11540I400J0D01*
G03X4000Y11498I541J3460D01*
G01X6000D01*
G03Y18502I0J3502D01*
G01X4000D01*
G03X3462Y18460I3J-3502D01*
G02X3000Y18855I-62J395D01*
G01Y19500D01*
X10500D01*
Y42000D01*
G37*
G36*
G01X90495Y222018D02*
X90500D01*
G02X97000Y215987I0J-6518D01*
G01Y215013D01*
X96999Y215000D01*
X97000Y107500D01*
X92000D01*
Y101652D01*
X91548D01*
Y96648D01*
X92000D01*
Y94500D01*
X86000D01*
Y48500D01*
X73635D01*
G02X73280Y49083I0J400D01*
G03X73502Y50000I-1780J916D01*
G03X71500Y52002I-2002J0D01*
G03X70582Y51779I0J-2001D01*
G02X69999Y52112I-184J355D01*
G03X68000Y54002I-1999J-112D01*
G03Y49998I0J-2002D01*
G03X68918Y50221I0J2001D01*
G02X69501Y49888I184J-355D01*
G03X69720Y49083I1999J112D01*
G02X69365Y48500I-355J-183D01*
G01X14000D01*
Y94500D01*
X3001D01*
Y216000D01*
X3004Y216022D01*
G02X9940Y221999I7148J-1282D01*
G01X90000D01*
G02X90495Y222018I497J-6499D01*
G37*
%LPC*%
G75*
G36*
G01X91541Y152629D02*
G03X90959I-291J-274D01*
G02X89500Y151998I-1459J1371D01*
G02Y156002I0J2002D01*
G02X90959Y155371I0J-2002D01*
G03X91541I291J274D01*
G02X93000Y156002I1459J-1371D01*
G02Y151998I0J-2002D01*
G02X91541Y152629I0J2002D01*
G37*
G36*
G01X83833Y171391D02*
G03X83167I-333J-221D01*
G02X81500Y170498I-1667J1109D01*
G02Y174502I0J2002D01*
G02X83167Y173609I0J-2002D01*
G03X83833I333J221D01*
G02X85500Y174502I1667J-1109D01*
G02Y170498I0J-2002D01*
G02X83833Y171391I0J2002D01*
G37*
G54D16*
X16000Y15000D03*
X21500D03*
X19500Y38139D03*
X35500Y36000D03*
X41063Y65000D03*
X42000Y74500D03*
X59000Y65000D03*
X28000Y82500D03*
X60500Y99500D03*
Y91500D03*
X64500Y95500D03*
Y88000D03*
X20500Y109500D03*
X38500Y104500D03*
X44937Y123937D03*
X88000Y124500D03*
X9000Y146000D03*
X24000Y149000D03*
X40000Y149937D03*
X54000Y151000D03*
X19000Y165000D03*
Y160500D03*
X41437Y173063D03*
X59000Y185500D03*
G54D18*
X48685Y204000D03*
G54D17*
X29000D03*
X68370D03*
%LPD*%
G75*
G54D10*
X5000Y15000D03*
Y25000D03*
Y35000D03*
Y45000D03*
Y55000D03*
Y65000D03*
Y75000D03*
X95000Y15000D03*
Y35000D03*
Y25000D03*
Y55000D03*
Y45000D03*
Y75000D03*
Y65000D03*
G54D11*
X15000Y8000D03*
X16000Y15000D03*
X9000Y105500D03*
X14500Y113000D03*
X9000Y146000D03*
X5063Y146063D03*
X21500Y15000D03*
X22000Y33500D03*
X17000D03*
X19500Y38139D03*
X32000Y63000D03*
X16500Y58000D03*
X19500D03*
X28000Y82500D03*
X20500Y109500D03*
X24000Y149000D03*
X27000Y141000D03*
X20500Y149000D03*
X19000Y165000D03*
Y160500D03*
X22000Y154000D03*
X23500Y163000D03*
X21500Y185000D03*
X49000Y29000D03*
X35500Y36000D03*
X42000Y74500D03*
X41063Y65000D03*
X45000D03*
X35500Y95000D03*
X38500Y104500D03*
X49500Y99000D03*
X46000Y114000D03*
X44937Y123937D03*
X45000Y120000D03*
X40000Y149937D03*
X54000Y151000D03*
X39000Y145500D03*
X54000Y141000D03*
X41437Y173063D03*
X41500Y177000D03*
X62500Y10000D03*
X65000Y29000D03*
X68000Y52000D03*
X71500Y50000D03*
X59000Y65000D03*
X64000Y58000D03*
X64181Y61500D03*
X60500Y91500D03*
X64500Y88000D03*
X60500Y99500D03*
X64500Y95500D03*
X56000Y108000D03*
X68112Y166000D03*
X59000Y185500D03*
X85500Y8000D03*
X77300Y16000D03*
X77500Y94000D03*
X82394Y94106D03*
X88000Y124500D03*
X75500Y142000D03*
X90532Y134469D03*
X89500Y154000D03*
X88394Y165894D03*
X85500Y172500D03*
X81500D03*
X90500Y188500D03*
X95000Y112000D03*
X93000Y154000D03*
G54D12*
X5000Y85000D03*
X95000D03*
G54D13*
X29000Y204000D03*
X48685D03*
X68370D03*
G54D14*
G01X5000Y11298D02*
Y15000D01*
G01D02*
Y18702D01*
G01Y15000D02*
X9702D01*
G01X48685Y198648D02*
Y204000D01*
G01D02*
Y209352D01*
G01X43333Y204000D02*
X48685D01*
G01D02*
X54037D01*
G01X90298Y15000D02*
X95000D01*
G01Y11298D02*
Y15000D01*
G01D02*
Y18702D01*
G54D15*
G01X93417Y98422D02*
X93107Y98652D01*
X92952Y98920D01*
X92900Y99227D01*
X93003Y99610D01*
X93262Y99878D01*
X93572Y99955D01*
X93882Y99917D01*
X94140Y99763D01*
X94657Y98997D01*
X95018Y98652D01*
X95535Y98422D01*
X96000Y98345D01*
Y99955D01*
M02*
