M48
INCH,TZ
T01C.01
T02C.043
T03C.058
T04C.03937
;LEADER: 12 
;HEADER: 
;CODE  : ASCII 
;FILE  : isolated_v-i_dac-v1_00-0b-1-4.drl for  ... layers TOP and BOTTOM
;DESIGN: isolated_v-i_dac.brd
;T01 Holesize 1. = 10.000000 Tolerance = +3.000000/-3.000000 PLATED MILS Quantity = 76
;T02 Holesize 2. = 43.000000 Tolerance = +3.000000/-3.000000 PLATED MILS Quantity = 16
;T03 Holesize 3. = 58.000000 Tolerance = +3.000000/-3.000000 PLATED MILS Quantity = 3
;T04 Holesize 4. = 39.370000 Tolerance = +1.970000/-1.970000 NON_PLATED MILS Quantity = 2
%
G90
T01
X19500Y15000
X16000Y15000
X35500Y36000
X12500Y113000
X77500Y154000
X49500Y153500
X62500Y172000
X74500Y164500
X22500Y161500
X26000Y183000
X22000Y147681
X29500Y183000
X17500Y74819
X34000Y153000
X53500Y170500
X5000Y136500
X54250Y115750
X59500Y139354
X37000Y116500
X22000Y54000
X87500Y109500
X44500Y86000
X64181Y61500
X88394Y166500
X53000Y107000
X88000Y135500
X41500Y177000
X76000Y143000
X51500Y97500
X5063Y146063
X92000Y189500
X19500Y58000
X82394Y94106
X45000Y65000
X16500Y58000
X64000Y58000
X77500Y94000
X33500Y94500
X41437Y173063
X21000Y177500
X50000Y149563
X37000Y130000
X21000Y168500
X38282Y152719
X87000Y170000
X88000Y124500
X9000Y146000
X75000Y171000
X27000Y148500
X60500Y65000
X28000Y82500
X60500Y99500
X64500Y87000
X60500Y91500
X64500Y95500
X20500Y109500
X41063Y65000
X22000Y38500
X66000Y6000
X45323Y13323
X64500Y32000
X85000Y20000
X17000Y33500
X22000Y33500
X49000Y29000
X71000Y42000
X71000Y36500
X72000Y31000
X55681Y25000
X51000Y116500
X25000Y154500
X49500Y160000
X44000Y117000
X56000Y182500
X90000Y154000
X69000Y51500
T02
X5000Y85000
R07Y-10000
X95000Y15000
R07Y10000
T03
X29000Y204000
R02X19685
T04
X48500Y131500
X53500Y131500
M30
