G04 ================== begin FILE IDENTIFICATION RECORD ==================*
G04 Layout Name:  isolated_v-i_dac.brd*
G04 Film Name:    Isolated_V-I_DAC-v1_00-0b-Soldermask-top*
G04 File Format:  Gerber RS274X*
G04 File Origin:  Cadence Allegro 17.4-S021*
G04 Origin Date:  Sat Oct 23 12:12:42 2021*
G04 *
G04 Layer:  PIN/SOLDERMASK_TOP*
G04 Layer:  PACKAGE GEOMETRY/SOLDERMASK_TOP*
G04 Layer:  BOARD GEOMETRY/SOLDERMASK_TOP*
G04 *
G04 Offset:    (0.00 0.00)*
G04 Mirror:    No*
G04 Mode:      Positive*
G04 Rotation:  0*
G04 FullContactRelief:  No*
G04 UndefLineWidth:     6.00*
G04 ================== end FILE IDENTIFICATION RECORD ====================*
%FSLAX25Y25*MOIN*%
%IR0*IPPOS*OFA0.00000B0.00000*MIA0B0*SFA1.00000B1.00000*%
%AMMACRO28*
4,1,44,.00328,.01968,
-.00328,.01968,
-.004419,.019586,
-.005524,.019291,
-.006561,.018809,
-.007498,.018153,
-.008307,.017346,
-.008964,.016409,
-.009448,.015373,
-.009744,.014269,
-.009845,.01313,
-.00984,.01312,
-.00984,-.01312,
-.009746,-.014259,
-.009451,-.015364,
-.008969,-.016401,
-.008313,-.017338,
-.007506,-.018147,
-.006569,-.018804,
-.005533,-.019288,
-.004429,-.019584,
-.00329,-.019685,
-.00328,-.01968,
.00328,-.01968,
.004419,-.019586,
.005524,-.019291,
.006561,-.018809,
.007498,-.018153,
.008307,-.017346,
.008964,-.016409,
.009448,-.015373,
.009744,-.014269,
.009845,-.01313,
.00984,-.01312,
.00984,.01312,
.009746,.014259,
.009451,.015364,
.008969,.016401,
.008313,.017338,
.007506,.018147,
.006569,.018804,
.005533,.019288,
.004429,.019584,
.00329,.019685,
.00328,.01968,
0.0*
%
%ADD28MACRO28*%
%ADD11C,.042*%
%ADD16C,.075*%
%AMMACRO19*
4,1,44,-.01287,-.02665,
.01287,-.02665,
.013554,-.026595,
.014218,-.026417,
.01484,-.026127,
.015403,-.025733,
.015888,-.025248,
.016282,-.024685,
.016572,-.024063,
.01675,-.023399,
.01681,-.022715,
.01681,-.02271,
.01681,.02271,
.016751,.023394,
.016574,.024058,
.016285,.024681,
.015891,.025244,
.015406,.02573,
.014844,.026125,
.014222,.026416,
.013559,.026594,
.012875,.026655,
.01287,.02665,
-.01287,.02665,
-.013554,.026595,
-.014218,.026417,
-.01484,.026127,
-.015403,.025733,
-.015888,.025248,
-.016282,.024685,
-.016572,.024063,
-.01675,.023399,
-.01681,.022715,
-.01681,.02271,
-.01681,-.02271,
-.016751,-.023394,
-.016574,-.024058,
-.016285,-.024681,
-.015891,-.025244,
-.015406,-.02573,
-.014844,-.026125,
-.014222,-.026416,
-.013559,-.026594,
-.012875,-.026655,
-.01287,-.02665,
0.0*
%
%ADD19MACRO19*%
%AMMACRO27*
4,1,40,-.00787,-.01575,
.00787,-.01575,
.008896,-.01566,
.009891,-.015394,
.010825,-.014958,
.011669,-.014367,
.012397,-.013639,
.012988,-.012795,
.013424,-.011861,
.01369,-.010866,
.01378,-.00984,
.01378,.00984,
.01369,.010866,
.013424,.011861,
.012988,.012795,
.012397,.013639,
.011669,.014367,
.010825,.014958,
.009891,.015394,
.008896,.01566,
.00787,.01575,
-.00787,.01575,
-.008896,.01566,
-.009891,.015394,
-.010825,.014958,
-.011669,.014367,
-.012397,.013639,
-.012988,.012795,
-.013424,.011861,
-.01369,.010866,
-.01378,.00984,
-.01378,-.00984,
-.01369,-.010866,
-.013424,-.011861,
-.012988,-.012795,
-.012397,-.013639,
-.011669,-.014367,
-.010825,-.014958,
-.009891,-.015394,
-.008896,-.01566,
-.00787,-.01575,
0.0*
%
%ADD27MACRO27*%
%ADD29C,.03937*%
%AMMACRO21*
4,1,40,-.00984,-.02067,
.00984,-.02067,
.010524,-.02061,
.011188,-.020432,
.01181,-.020142,
.012373,-.019748,
.012858,-.019263,
.013252,-.0187,
.013542,-.018078,
.01372,-.017414,
.01378,-.01673,
.01378,.01673,
.01372,.017414,
.013542,.018078,
.013252,.0187,
.012858,.019263,
.012373,.019748,
.01181,.020142,
.011188,.020432,
.010524,.02061,
.00984,.02067,
-.00984,.02067,
-.010524,.02061,
-.011188,.020432,
-.01181,.020142,
-.012373,.019748,
-.012858,.019263,
-.013252,.0187,
-.013542,.018078,
-.01372,.017414,
-.01378,.01673,
-.01378,-.01673,
-.01372,-.017414,
-.013542,-.018078,
-.013252,-.0187,
-.012858,-.019263,
-.012373,-.019748,
-.01181,-.020142,
-.011188,-.020432,
-.010524,-.02061,
-.00984,-.02067,
0.0*
%
%ADD21MACRO21*%
%AMMACRO22*
4,1,40,.01378,-.00906,
.01378,.00906,
.013708,.00988,
.013495,.010674,
.013148,.01142,
.012676,.012094,
.012094,.012676,
.01142,.013148,
.010674,.013495,
.00988,.013708,
.00906,.01378,
-.00906,.01378,
-.00988,.013708,
-.010674,.013495,
-.01142,.013148,
-.012094,.012676,
-.012676,.012094,
-.013148,.01142,
-.013495,.010674,
-.013708,.00988,
-.01378,.00906,
-.01378,-.00906,
-.013708,-.00988,
-.013495,-.010674,
-.013148,-.01142,
-.012676,-.012094,
-.012094,-.012676,
-.01142,-.013148,
-.010674,-.013495,
-.00988,-.013708,
-.00906,-.01378,
.00906,-.01378,
.00988,-.013708,
.010674,-.013495,
.01142,-.013148,
.012094,-.012676,
.012676,-.012094,
.013148,-.01142,
.013495,-.010674,
.013708,-.00988,
.01378,-.00906,
0.0*
%
%ADD22MACRO22*%
%AMMACRO14*
4,1,40,-.00906,-.01378,
.00906,-.01378,
.00988,-.013708,
.010674,-.013495,
.01142,-.013148,
.012094,-.012676,
.012676,-.012094,
.013148,-.01142,
.013495,-.010674,
.013708,-.00988,
.01378,-.00906,
.01378,.00906,
.013708,.00988,
.013495,.010674,
.013148,.01142,
.012676,.012094,
.012094,.012676,
.01142,.013148,
.010674,.013495,
.00988,.013708,
.00906,.01378,
-.00906,.01378,
-.00988,.013708,
-.010674,.013495,
-.01142,.013148,
-.012094,.012676,
-.012676,.012094,
-.013148,.01142,
-.013495,.010674,
-.013708,.00988,
-.01378,.00906,
-.01378,-.00906,
-.013708,-.00988,
-.013495,-.010674,
-.013148,-.01142,
-.012676,-.012094,
-.012094,-.012676,
-.01142,-.013148,
-.010674,-.013495,
-.00988,-.013708,
-.00906,-.01378,
0.0*
%
%ADD14MACRO14*%
%AMMACRO30*
4,1,44,.00564,.04921,
-.00564,.04921,
-.0076,.049043,
-.009501,.048534,
-.011285,.047702,
-.012897,.046574,
-.014289,.045182,
-.015417,.04357,
-.016249,.041786,
-.016758,.039885,
-.01693,.037925,
-.01693,.03792,
-.01693,-.03792,
-.016759,-.039881,
-.016251,-.041782,
-.01542,-.043566,
-.014292,-.045178,
-.012901,-.04657,
-.011289,-.0477,
-.009506,-.048532,
-.007605,-.049043,
-.005645,-.049215,
-.00564,-.04921,
.00564,-.04921,
.0076,-.049043,
.009501,-.048534,
.011285,-.047702,
.012897,-.046574,
.014289,-.045182,
.015417,-.04357,
.016249,-.041786,
.016758,-.039885,
.01693,-.037925,
.01693,-.03792,
.01693,.03792,
.016759,.039881,
.016251,.041782,
.01542,.043566,
.014292,.045178,
.012901,.04657,
.011289,.0477,
.009506,.048532,
.007605,.049043,
.005645,.049215,
.00564,.04921,
0.0*
%
%ADD30MACRO30*%
%ADD23C,.11*%
%ADD33R,.033X.06*%
%ADD15R,.06X.033*%
%ADD10O,.085X.073*%
%ADD32R,.0354X.063*%
%ADD12R,.085X.073*%
%ADD34R,.05906X.04134*%
%ADD31R,.04134X.05906*%
%AMMACRO20*
4,1,40,-.01575,.00787,
-.01575,-.00787,
-.01566,-.008896,
-.015394,-.009891,
-.014958,-.010825,
-.014367,-.011669,
-.013639,-.012397,
-.012795,-.012988,
-.011861,-.013424,
-.010866,-.01369,
-.00984,-.01378,
.00984,-.01378,
.010866,-.01369,
.011861,-.013424,
.012795,-.012988,
.013639,-.012397,
.014367,-.011669,
.014958,-.010825,
.015394,-.009891,
.01566,-.008896,
.01575,-.00787,
.01575,.00787,
.01566,.008896,
.015394,.009891,
.014958,.010825,
.014367,.011669,
.013639,.012397,
.012795,.012988,
.011861,.013424,
.010866,.01369,
.00984,.01378,
-.00984,.01378,
-.010866,.01369,
-.011861,.013424,
-.012795,.012988,
-.013639,.012397,
-.014367,.011669,
-.014958,.010825,
-.015394,.009891,
-.01566,.008896,
-.01575,.00787,
0.0*
%
%ADD20MACRO20*%
%AMMACRO35*
4,1,40,.00787,.01575,
-.00787,.01575,
-.008896,.01566,
-.009891,.015394,
-.010825,.014958,
-.011669,.014367,
-.012397,.013639,
-.012988,.012795,
-.013424,.011861,
-.01369,.010866,
-.01378,.00984,
-.01378,-.00984,
-.01369,-.010866,
-.013424,-.011861,
-.012988,-.012795,
-.012397,-.013639,
-.011669,-.014367,
-.010825,-.014958,
-.009891,-.015394,
-.008896,-.01566,
-.00787,-.01575,
.00787,-.01575,
.008896,-.01566,
.009891,-.015394,
.010825,-.014958,
.011669,-.014367,
.012397,-.013639,
.012988,-.012795,
.013424,-.011861,
.01369,-.010866,
.01378,-.00984,
.01378,.00984,
.01369,.010866,
.013424,.011861,
.012988,.012795,
.012397,.013639,
.011669,.014367,
.010825,.014958,
.009891,.015394,
.008896,.01566,
.00787,.01575,
0.0*
%
%ADD35MACRO35*%
%ADD24R,.03937X.05315*%
%AMMACRO18*
4,1,40,.00984,.02067,
-.00984,.02067,
-.010524,.02061,
-.011188,.020432,
-.01181,.020142,
-.012373,.019748,
-.012858,.019263,
-.013252,.0187,
-.013542,.018078,
-.01372,.017414,
-.01378,.01673,
-.01378,-.01673,
-.01372,-.017414,
-.013542,-.018078,
-.013252,-.0187,
-.012858,-.019263,
-.012373,-.019748,
-.01181,-.020142,
-.011188,-.020432,
-.010524,-.02061,
-.00984,-.02067,
.00984,-.02067,
.010524,-.02061,
.011188,-.020432,
.01181,-.020142,
.012373,-.019748,
.012858,-.019263,
.013252,-.0187,
.013542,-.018078,
.01372,-.017414,
.01378,-.01673,
.01378,.01673,
.01372,.017414,
.013542,.018078,
.013252,.0187,
.012858,.019263,
.012373,.019748,
.01181,.020142,
.011188,.020432,
.010524,.02061,
.00984,.02067,
0.0*
%
%ADD18MACRO18*%
%AMMACRO13*
4,1,40,-.01378,.00906,
-.01378,-.00906,
-.013708,-.00988,
-.013495,-.010674,
-.013148,-.01142,
-.012676,-.012094,
-.012094,-.012676,
-.01142,-.013148,
-.010674,-.013495,
-.00988,-.013708,
-.00906,-.01378,
.00906,-.01378,
.00988,-.013708,
.010674,-.013495,
.01142,-.013148,
.012094,-.012676,
.012676,-.012094,
.013148,-.01142,
.013495,-.010674,
.013708,-.00988,
.01378,-.00906,
.01378,.00906,
.013708,.00988,
.013495,.010674,
.013148,.01142,
.012676,.012094,
.012094,.012676,
.01142,.013148,
.010674,.013495,
.00988,.013708,
.00906,.01378,
-.00906,.01378,
-.00988,.013708,
-.010674,.013495,
-.01142,.013148,
-.012094,.012676,
-.012676,.012094,
-.013148,.01142,
-.013495,.010674,
-.013708,.00988,
-.01378,.00906,
0.0*
%
%ADD13MACRO13*%
%AMMACRO17*
4,1,40,.00906,.01378,
-.00906,.01378,
-.00988,.013708,
-.010674,.013495,
-.01142,.013148,
-.012094,.012676,
-.012676,.012094,
-.013148,.01142,
-.013495,.010674,
-.013708,.00988,
-.01378,.00906,
-.01378,-.00906,
-.013708,-.00988,
-.013495,-.010674,
-.013148,-.01142,
-.012676,-.012094,
-.012094,-.012676,
-.01142,-.013148,
-.010674,-.013495,
-.00988,-.013708,
-.00906,-.01378,
.00906,-.01378,
.00988,-.013708,
.010674,-.013495,
.01142,-.013148,
.012094,-.012676,
.012676,-.012094,
.013148,-.01142,
.013495,-.010674,
.013708,-.00988,
.01378,-.00906,
.01378,.00906,
.013708,.00988,
.013495,.010674,
.013148,.01142,
.012676,.012094,
.012094,.012676,
.01142,.013148,
.010674,.013495,
.00988,.013708,
.00906,.01378,
0.0*
%
%ADD17MACRO17*%
%AMMACRO26*
4,1,44,.00288,.01673,
-.00288,.01673,
-.003747,.016655,
-.004587,.016431,
-.005376,.016064,
-.006089,.015566,
-.006704,.014951,
-.007204,.014239,
-.007572,.013451,
-.007798,.012611,
-.007875,.011745,
-.00787,.01174,
-.00787,-.01174,
-.007799,-.012607,
-.007574,-.013447,
-.007206,-.014235,
-.006708,-.014948,
-.006093,-.015563,
-.00538,-.016061,
-.004592,-.016429,
-.003752,-.016654,
-.002885,-.01673,
-.00288,-.01673,
.00288,-.01673,
.003747,-.016655,
.004587,-.016431,
.005376,-.016064,
.006089,-.015566,
.006704,-.014951,
.007204,-.014239,
.007572,-.013451,
.007798,-.012611,
.007875,-.011745,
.00787,-.01174,
.00787,.01174,
.007799,.012607,
.007574,.013447,
.007206,.014235,
.006708,.014948,
.006093,.015563,
.00538,.016061,
.004592,.016429,
.003752,.016654,
.002885,.01673,
.00288,.01673,
0.0*
%
%ADD26MACRO26*%
%AMMACRO25*
4,1,44,.02493,.01181,
-.02493,.01181,
-.026069,.011711,
-.027174,.011416,
-.028211,.010934,
-.029148,.010278,
-.029957,.009471,
-.030614,.008534,
-.031098,.007498,
-.031394,.006394,
-.031495,.005255,
-.03149,.00525,
-.03149,-.00525,
-.031395,-.006389,
-.031099,-.007494,
-.030616,-.00853,
-.02996,-.009467,
-.029152,-.010275,
-.028215,-.010931,
-.027179,-.011414,
-.026074,-.01171,
-.024935,-.01181,
-.02493,-.01181,
.02493,-.01181,
.026069,-.011711,
.027174,-.011416,
.028211,-.010934,
.029148,-.010278,
.029957,-.009471,
.030614,-.008534,
.031098,-.007498,
.031394,-.006394,
.031495,-.005255,
.03149,-.00525,
.03149,.00525,
.031395,.006389,
.031099,.007494,
.030616,.00853,
.02996,.009467,
.029152,.010275,
.028215,.010931,
.027179,.011414,
.026074,.01171,
.024935,.01181,
.02493,.01181,
0.0*
%
%ADD25MACRO25*%
G75*
%LPD*%
G75*
G36*
G01X86000Y107500D02*
Y94000D01*
X91000D01*
Y107500D01*
X86000D01*
G37*
G36*
G01X92000D02*
Y94000D01*
X97000D01*
Y107500D01*
X92000D01*
G37*
G54D10*
X5000Y15000D03*
Y25000D03*
Y35000D03*
Y45000D03*
Y55000D03*
Y65000D03*
Y75000D03*
X95000Y15000D03*
Y35000D03*
Y25000D03*
Y55000D03*
Y45000D03*
Y75000D03*
Y65000D03*
G54D20*
X23000Y113000D03*
X18000D03*
X23000Y116937D03*
X18000D03*
X17000Y125937D03*
Y122000D03*
X35000Y167937D03*
Y164000D03*
X64500Y35500D03*
Y39437D03*
G54D11*
X7500Y6500D03*
X12500Y95000D03*
Y108500D03*
X6000Y132000D03*
Y142000D03*
X17000Y179500D03*
X10000Y203000D03*
X27000Y32000D03*
X26500Y54000D03*
X29500Y111500D03*
X45500Y96500D03*
X53000Y103000D03*
X46500Y179500D03*
X70000Y20500D03*
X57500Y170500D03*
X87500Y6000D03*
X80500Y25000D03*
X76500Y51500D03*
X82000Y107000D03*
X90500Y119500D03*
X92000Y184000D03*
X89000Y203000D03*
G54D12*
X5000Y85000D03*
X95000D03*
G54D30*
X51000Y124000D03*
X46000D03*
Y139354D03*
X51000D03*
X56000Y124000D03*
Y139354D03*
G54D21*
X22500Y100500D03*
X29000D03*
X34000Y157000D03*
X40500D03*
X54500Y160000D03*
X69500Y100000D03*
X62500Y116000D03*
X69000D03*
X67500Y160000D03*
X74000D03*
X61000D03*
X76000Y100000D03*
X77500Y178000D03*
X84000D03*
G54D13*
X12000Y125937D03*
Y122000D03*
X37000Y123937D03*
Y120000D03*
X41000Y123937D03*
Y120000D03*
X40000Y167937D03*
Y164000D03*
X84000Y131937D03*
Y128000D03*
X88000Y131937D03*
Y128000D03*
G54D31*
X68606Y59500D03*
X68480Y108000D03*
X60606D03*
X76480Y59500D03*
X75520Y118000D03*
X83394D03*
X80520Y160000D03*
X88394D03*
G54D22*
X34000Y173063D03*
Y177000D03*
X53500Y149563D03*
Y153500D03*
X38000Y173063D03*
Y177000D03*
X65500Y24563D03*
Y28500D03*
X57500Y149563D03*
Y153500D03*
G54D32*
X72020Y79339D03*
X68280Y88000D03*
X75760D03*
G54D23*
X29000Y204000D03*
X48685D03*
X68370D03*
G54D14*
X5063Y153000D03*
X9000D03*
X5063Y149000D03*
X9000D03*
X23063Y141000D03*
X27000D03*
X23063Y145000D03*
X27000D03*
X42063Y29000D03*
X46000D03*
X41063Y61500D03*
X45000D03*
X57563Y29000D03*
X61500D03*
X57563Y61500D03*
X61500D03*
X69063Y94000D03*
X73000D03*
X65063Y122000D03*
X69000D03*
X70063Y154000D03*
X74000D03*
G54D24*
X38413Y6000D03*
X45500D03*
G54D15*
X8000Y158000D03*
Y163000D03*
Y168000D03*
Y173000D03*
X28100Y168000D03*
Y163000D03*
Y158000D03*
Y173000D03*
G54D33*
X74000Y128000D03*
X69000D03*
X64000D03*
Y148100D03*
X69000D03*
X74000D03*
X79000Y128000D03*
Y148100D03*
G54D25*
X40000Y13323D03*
Y15882D03*
Y18441D03*
Y21000D03*
X63228Y18441D03*
Y15882D03*
Y13323D03*
Y21000D03*
G54D34*
X70000Y170606D03*
Y178480D03*
X88000Y148480D03*
Y140606D03*
G54D16*
X10000Y217000D03*
X24000Y6000D03*
X90500Y217000D03*
G54D26*
X52500Y33000D03*
X50000D03*
X47500D03*
X45000D03*
X42500D03*
Y57400D03*
X45000D03*
X47500D03*
X50000D03*
X52500D03*
X60000Y33000D03*
X57500D03*
X55000D03*
Y57400D03*
X57500D03*
X60000D03*
G54D17*
X26437Y72500D03*
X22500D03*
X22437Y106000D03*
X18500D03*
X40937Y86000D03*
X37000D03*
X51500Y90500D03*
Y94500D03*
X72000Y73000D03*
X55437Y90500D03*
Y94500D03*
X75937Y73000D03*
G54D35*
X78937Y36500D03*
X75000D03*
X78937Y31000D03*
X75000D03*
X78937Y42000D03*
X75000D03*
G54D18*
X29000Y94000D03*
X22500D03*
X49500Y111500D03*
X43000D03*
X69500Y67500D03*
X62500Y178000D03*
X56000D03*
X76000Y67500D03*
G54D27*
X37063Y90500D03*
X41000D03*
X59063Y6000D03*
X63000D03*
G54D19*
X30000Y78339D03*
X26260D03*
X22520D03*
Y87000D03*
X26260D03*
X30000D03*
X31000Y123780D03*
X23520D03*
Y135000D03*
X27260D03*
X31000D03*
G54D28*
X49000Y85661D03*
X51559D03*
X54118D03*
Y77000D03*
X51559D03*
X49000D03*
G54D29*
X53500Y131500D03*
X48500D03*
M02*
