G04 ================== begin FILE IDENTIFICATION RECORD ==================*
G04 Layout Name:  isolated_v-i_dac.brd*
G04 Film Name:    Isolated_V-I_DAC-v1_00-0b-Silkscreen-bottom*
G04 File Format:  Gerber RS274X*
G04 File Origin:  Cadence Allegro 17.4-S021*
G04 Origin Date:  Sat Oct 23 12:12:42 2021*
G04 *
G04 Layer:  REF DES/SILKSCREEN_BOTTOM*
G04 Layer:  PACKAGE GEOMETRY/SILKSCREEN_BOTTOM*
G04 Layer:  BOARD GEOMETRY/SILKSCREEN_BOTTOM*
G04 *
G04 Offset:    (0.00 0.00)*
G04 Mirror:    No*
G04 Mode:      Positive*
G04 Rotation:  0*
G04 FullContactRelief:  No*
G04 UndefLineWidth:     6.00*
G04 ================== end FILE IDENTIFICATION RECORD ====================*
%FSLAX25Y25*MOIN*%
%IR0*IPPOS*OFA0.00000B0.00000*MIA0B0*SFA1.00000B1.00000*%
%ADD10C,.01*%
%ADD11C,.006*%
%ADD12C,.007*%
%ADD13C,.008*%
%ADD14C,.00394*%
%ADD15C,.00598*%
%ADD16C,.00787*%
G75*
%LPD*%
G75*
G36*
G01X63000Y192000D02*
Y163500D01*
X32500D01*
Y192000D01*
X63000D01*
G37*
G54D10*
G01X14063Y30756D02*
Y17764D01*
X21937D01*
Y31150D01*
X14063D01*
Y30756D01*
G01X21937Y59244D02*
Y72236D01*
X14063D01*
Y58850D01*
X21937D01*
Y59244D01*
G01X11000Y152000D02*
Y134000D01*
X19000D01*
G01Y152000D02*
X11000D01*
G01X11646Y162276D02*
Y171724D01*
G01X30150Y162276D02*
X30937D01*
X11646D01*
G01Y171724D02*
X30937D01*
G01X11646Y182224D02*
X30937D01*
G01X11646Y172776D02*
Y182224D01*
G01X30150Y172776D02*
X30937D01*
X11646D01*
G01X29700Y18500D02*
Y29000D01*
G01D02*
X24300D01*
G01Y18500D02*
X29700D01*
G01X24300Y29000D02*
Y18500D01*
G01X30937Y59244D02*
Y72236D01*
X23063D01*
Y58850D01*
X30937D01*
Y59244D01*
G01X35756Y103937D02*
X22764D01*
Y96063D01*
X36150D01*
Y103937D01*
X35756D01*
G01Y112937D02*
X22764D01*
Y105063D01*
X36150D01*
Y112937D01*
X35756D01*
G01X23244Y137543D02*
Y119039D01*
G01D02*
X36236D01*
G01Y137543D02*
X23244D01*
G01X19000Y134000D02*
Y152000D01*
G01X30937Y171724D02*
Y162276D01*
G01Y182224D02*
Y172776D01*
G01X49724Y109748D02*
Y90850D01*
X40276D01*
G01D02*
Y109748D01*
G01D02*
X49724D01*
G01X36236Y119039D02*
Y137543D01*
G01X50000Y152500D02*
X68000D01*
Y160500D01*
G01X50000D02*
Y152500D01*
G01X68000Y160500D02*
X50000D01*
G01X84756Y103937D02*
X71764D01*
Y96063D01*
X85150D01*
Y103937D01*
X84756D01*
G01Y113937D02*
X71764D01*
Y106063D01*
X85150D01*
Y113937D01*
X84756D01*
G01X72244Y138543D02*
Y120039D01*
G01D02*
X85236D01*
G01X59276Y131646D02*
Y150937D01*
G01X68724Y131646D02*
X59276D01*
G01X68724Y150150D02*
Y150937D01*
Y131646D01*
G01X85236Y138543D02*
X72244D01*
G01X59276Y150937D02*
X68724D01*
G01X84854Y167276D02*
X65563D01*
G01D02*
Y176724D01*
G01X66350D02*
X65563D01*
X84854D01*
G01Y177776D02*
X65563D01*
G01D02*
Y187224D01*
G01X66350D02*
X65563D01*
X84854D01*
G01X85236Y120039D02*
Y138543D01*
G01X84854Y176724D02*
Y167276D01*
G01Y187224D02*
Y177776D01*
G54D11*
G01X8000Y124267D02*
X5500D01*
Y125333D01*
G01X7583Y126493D02*
X7833Y126653D01*
X7958Y126840D01*
X8000Y127053D01*
X7917Y127320D01*
X7708Y127507D01*
X7458Y127560D01*
X7208Y127533D01*
X7000Y127427D01*
X6583Y126893D01*
X6292Y126653D01*
X5875Y126493D01*
X5500Y126440D01*
Y127560D01*
G01X9113Y167292D02*
X9273Y167417D01*
X9460Y167500D01*
X9673D01*
X9913Y167375D01*
X10100Y167167D01*
X10233Y166917D01*
X10340Y166500D01*
X10367Y166125D01*
X10313Y165750D01*
X10233Y165500D01*
X10073Y165250D01*
X9887Y165083D01*
X9700Y165000D01*
X9513D01*
X9327Y165083D01*
X9167Y165208D01*
X9033Y165375D01*
G01X8007Y167083D02*
X7847Y167333D01*
X7660Y167458D01*
X7447Y167500D01*
X7180Y167417D01*
X6993Y167208D01*
X6940Y166958D01*
X6967Y166708D01*
X7073Y166500D01*
X7607Y166083D01*
X7847Y165792D01*
X8007Y165375D01*
X8060Y165000D01*
X6940D01*
G01X5807Y167083D02*
X5647Y167333D01*
X5460Y167458D01*
X5247Y167500D01*
X4980Y167417D01*
X4793Y167208D01*
X4740Y166958D01*
X4767Y166708D01*
X4873Y166500D01*
X5407Y166083D01*
X5647Y165792D01*
X5807Y165375D01*
X5860Y165000D01*
X4740D01*
G01X11113Y156292D02*
X11273Y156417D01*
X11460Y156500D01*
X11673D01*
X11913Y156375D01*
X12100Y156167D01*
X12233Y155917D01*
X12340Y155500D01*
X12367Y155125D01*
X12313Y154750D01*
X12233Y154500D01*
X12073Y154250D01*
X11887Y154083D01*
X11700Y154000D01*
X11513D01*
X11327Y154083D01*
X11167Y154208D01*
X11033Y154375D01*
G01X10087D02*
X9927Y154167D01*
X9740Y154042D01*
X9500Y154000D01*
X9260Y154083D01*
X9073Y154250D01*
X8940Y154542D01*
X8913Y154875D01*
X8967Y155208D01*
X9100Y155417D01*
X9287Y155583D01*
X9473Y155625D01*
X9660Y155583D01*
X9900Y155417D01*
X9820Y156500D01*
X9100D01*
G01X7300D02*
X7513Y156417D01*
X7673Y156208D01*
X7780Y155958D01*
X7860Y155625D01*
X7887Y155250D01*
X7860Y154875D01*
X7780Y154542D01*
X7673Y154292D01*
X7513Y154083D01*
X7300Y154000D01*
X7087Y154083D01*
X6927Y154292D01*
X6820Y154542D01*
X6740Y154875D01*
X6713Y155250D01*
X6740Y155625D01*
X6820Y155958D01*
X6927Y156208D01*
X7087Y156417D01*
X7300Y156500D01*
G01X11113Y160792D02*
X11273Y160917D01*
X11460Y161000D01*
X11673D01*
X11913Y160875D01*
X12100Y160667D01*
X12233Y160417D01*
X12340Y160000D01*
X12367Y159625D01*
X12313Y159250D01*
X12233Y159000D01*
X12073Y158750D01*
X11887Y158583D01*
X11700Y158500D01*
X11513D01*
X11327Y158583D01*
X11167Y158708D01*
X11033Y158875D01*
G01X9500Y158500D02*
Y161000D01*
X9820Y160500D01*
G01Y158500D02*
X9180D01*
G01X7300D02*
X7113Y158542D01*
X6900Y158667D01*
X6767Y158875D01*
X6713Y159167D01*
X6767Y159458D01*
X6927Y159708D01*
X7167Y159833D01*
X7433D01*
X7593Y159917D01*
X7727Y160125D01*
X7780Y160417D01*
X7700Y160708D01*
X7513Y160917D01*
X7300Y161000D01*
X7087Y160917D01*
X6900Y160708D01*
X6820Y160417D01*
X6873Y160125D01*
X7007Y159917D01*
X7167Y159833D01*
X7433D01*
X7673Y159708D01*
X7833Y159458D01*
X7887Y159167D01*
X7833Y158875D01*
X7700Y158667D01*
X7487Y158542D01*
X7300Y158500D01*
G01X9113Y178292D02*
X9273Y178417D01*
X9460Y178500D01*
X9673D01*
X9913Y178375D01*
X10100Y178167D01*
X10233Y177917D01*
X10340Y177500D01*
X10367Y177125D01*
X10313Y176750D01*
X10233Y176500D01*
X10073Y176250D01*
X9887Y176083D01*
X9700Y176000D01*
X9513D01*
X9327Y176083D01*
X9167Y176208D01*
X9033Y176375D01*
G01X7180Y176000D02*
Y178500D01*
X8167Y176708D01*
X6833D01*
G01X5753Y176292D02*
X5567Y176083D01*
X5353Y176000D01*
X5140Y176083D01*
X4953Y176333D01*
X4820Y176708D01*
X4767Y177083D01*
Y177542D01*
X4820Y177917D01*
X4953Y178250D01*
X5113Y178417D01*
X5300Y178500D01*
X5513Y178417D01*
X5673Y178250D01*
X5780Y178000D01*
X5833Y177667D01*
X5780Y177375D01*
X5647Y177083D01*
X5487Y176917D01*
X5300Y176875D01*
X5087Y176958D01*
X4927Y177167D01*
X4767Y177542D01*
G01X13707Y209000D02*
Y211500D01*
X12693D01*
G01X13067Y210292D02*
X13707D01*
G01X11320Y211500D02*
X10680D01*
G01X11000D02*
Y209000D01*
G01X11320D02*
X10680D01*
G01X9387D02*
Y211500D01*
X8853D01*
X8640Y211375D01*
X8480Y211208D01*
X8347Y210958D01*
X8240Y210667D01*
X8213Y210250D01*
X8240Y209833D01*
X8347Y209542D01*
X8480Y209292D01*
X8640Y209125D01*
X8853Y209000D01*
X9387D01*
G01X6280D02*
Y211500D01*
X7267Y209708D01*
X5933D01*
G01X5500Y212500D02*
X14500D01*
G01D02*
Y221500D01*
G01X5500D02*
Y212500D01*
G01X14500Y221500D02*
X5500D01*
G01X28292Y14387D02*
X28417Y14227D01*
X28500Y14040D01*
Y13827D01*
X28375Y13587D01*
X28167Y13400D01*
X27917Y13267D01*
X27500Y13160D01*
X27125Y13133D01*
X26750Y13187D01*
X26500Y13267D01*
X26250Y13427D01*
X26083Y13613D01*
X26000Y13800D01*
Y13987D01*
X26083Y14173D01*
X26208Y14333D01*
X26375Y14467D01*
G01X26000Y16320D02*
X28500D01*
X26708Y15333D01*
Y16667D01*
G01X19292Y14887D02*
X19417Y14727D01*
X19500Y14540D01*
Y14327D01*
X19375Y14087D01*
X19167Y13900D01*
X18917Y13767D01*
X18500Y13660D01*
X18125Y13633D01*
X17750Y13687D01*
X17500Y13767D01*
X17250Y13927D01*
X17083Y14113D01*
X17000Y14300D01*
Y14487D01*
X17083Y14673D01*
X17208Y14833D01*
X17375Y14967D01*
G01X17000Y16500D02*
X19500D01*
X19000Y16180D01*
G01X17000D02*
Y16820D01*
G01X33792Y16387D02*
X33917Y16227D01*
X34000Y16040D01*
Y15827D01*
X33875Y15587D01*
X33667Y15400D01*
X33417Y15267D01*
X33000Y15160D01*
X32625Y15133D01*
X32250Y15187D01*
X32000Y15267D01*
X31750Y15427D01*
X31583Y15613D01*
X31500Y15800D01*
Y15987D01*
X31583Y16173D01*
X31708Y16333D01*
X31875Y16467D01*
G01X31500Y17947D02*
X32042Y18000D01*
X32500Y18080D01*
X32917Y18187D01*
X33375Y18320D01*
X34000Y18533D01*
Y17467D01*
G01X18792Y52387D02*
X18917Y52227D01*
X19000Y52040D01*
Y51827D01*
X18875Y51587D01*
X18667Y51400D01*
X18417Y51267D01*
X18000Y51160D01*
X17625Y51133D01*
X17250Y51187D01*
X17000Y51267D01*
X16750Y51427D01*
X16583Y51613D01*
X16500Y51800D01*
Y51987D01*
X16583Y52173D01*
X16708Y52333D01*
X16875Y52467D01*
G01X18583Y53493D02*
X18833Y53653D01*
X18958Y53840D01*
X19000Y54053D01*
X18917Y54320D01*
X18708Y54507D01*
X18458Y54560D01*
X18208Y54533D01*
X18000Y54427D01*
X17583Y53893D01*
X17292Y53653D01*
X16875Y53493D01*
X16500Y53440D01*
Y54560D01*
G01X19000Y56200D02*
X18917Y55987D01*
X18708Y55827D01*
X18458Y55720D01*
X18125Y55640D01*
X17750Y55613D01*
X17375Y55640D01*
X17042Y55720D01*
X16792Y55827D01*
X16583Y55987D01*
X16500Y56200D01*
X16583Y56413D01*
X16792Y56573D01*
X17042Y56680D01*
X17375Y56760D01*
X17750Y56787D01*
X18125Y56760D01*
X18458Y56680D01*
X18708Y56573D01*
X18917Y56413D01*
X19000Y56200D01*
G01X27792Y52387D02*
X27917Y52227D01*
X28000Y52040D01*
Y51827D01*
X27875Y51587D01*
X27667Y51400D01*
X27417Y51267D01*
X27000Y51160D01*
X26625Y51133D01*
X26250Y51187D01*
X26000Y51267D01*
X25750Y51427D01*
X25583Y51613D01*
X25500Y51800D01*
Y51987D01*
X25583Y52173D01*
X25708Y52333D01*
X25875Y52467D01*
G01Y53413D02*
X25667Y53573D01*
X25542Y53760D01*
X25500Y54000D01*
X25583Y54240D01*
X25750Y54427D01*
X26042Y54560D01*
X26375Y54587D01*
X26708Y54533D01*
X26917Y54400D01*
X27083Y54213D01*
X27125Y54027D01*
X27083Y53840D01*
X26917Y53600D01*
X28000Y53680D01*
Y54400D01*
G01X26000Y55613D02*
X25708Y55773D01*
X25542Y55987D01*
X25500Y56227D01*
X25542Y56440D01*
X25750Y56653D01*
X26000Y56787D01*
X26250Y56813D01*
X26542Y56760D01*
X26750Y56573D01*
X26833Y56387D01*
Y56147D01*
G01Y56387D02*
X26958Y56547D01*
X27167Y56680D01*
X27417Y56733D01*
X27667Y56680D01*
X27875Y56547D01*
X28000Y56307D01*
X27958Y56067D01*
X27792Y55827D01*
G01X34792Y58887D02*
X34917Y58727D01*
X35000Y58540D01*
Y58327D01*
X34875Y58087D01*
X34667Y57900D01*
X34417Y57767D01*
X34000Y57660D01*
X33625Y57633D01*
X33250Y57687D01*
X33000Y57767D01*
X32750Y57927D01*
X32583Y58113D01*
X32500Y58300D01*
Y58487D01*
X32583Y58673D01*
X32708Y58833D01*
X32875Y58967D01*
G01X32500Y60500D02*
X35000D01*
X34500Y60180D01*
G01X32500D02*
Y60820D01*
G01X34583Y62193D02*
X34833Y62353D01*
X34958Y62540D01*
X35000Y62753D01*
X34917Y63020D01*
X34708Y63207D01*
X34458Y63260D01*
X34208Y63233D01*
X34000Y63127D01*
X33583Y62593D01*
X33292Y62353D01*
X32875Y62193D01*
X32500Y62140D01*
Y63260D01*
G01X20113Y101292D02*
X20273Y101417D01*
X20460Y101500D01*
X20673D01*
X20913Y101375D01*
X21100Y101167D01*
X21233Y100917D01*
X21340Y100500D01*
X21367Y100125D01*
X21313Y99750D01*
X21233Y99500D01*
X21073Y99250D01*
X20887Y99083D01*
X20700Y99000D01*
X20513D01*
X20327Y99083D01*
X20167Y99208D01*
X20033Y99375D01*
G01X19087Y99500D02*
X18927Y99208D01*
X18713Y99042D01*
X18473Y99000D01*
X18260Y99042D01*
X18047Y99250D01*
X17913Y99500D01*
X17887Y99750D01*
X17940Y100042D01*
X18127Y100250D01*
X18313Y100333D01*
X18553D01*
G01X18313D02*
X18153Y100458D01*
X18020Y100667D01*
X17967Y100917D01*
X18020Y101167D01*
X18153Y101375D01*
X18393Y101500D01*
X18633Y101458D01*
X18873Y101292D01*
G01X20113Y107292D02*
X20273Y107417D01*
X20460Y107500D01*
X20673D01*
X20913Y107375D01*
X21100Y107167D01*
X21233Y106917D01*
X21340Y106500D01*
X21367Y106125D01*
X21313Y105750D01*
X21233Y105500D01*
X21073Y105250D01*
X20887Y105083D01*
X20700Y105000D01*
X20513D01*
X20327Y105083D01*
X20167Y105208D01*
X20033Y105375D01*
G01X19007Y106042D02*
X18820Y106333D01*
X18660Y106500D01*
X18447Y106583D01*
X18260Y106500D01*
X18127Y106333D01*
X18020Y106083D01*
X17993Y105792D01*
X18020Y105542D01*
X18127Y105292D01*
X18287Y105083D01*
X18473Y105000D01*
X18687Y105083D01*
X18873Y105333D01*
X18980Y105708D01*
X19007Y106125D01*
X18953Y106667D01*
X18873Y106958D01*
X18740Y107250D01*
X18553Y107458D01*
X18367Y107500D01*
X18180Y107417D01*
X18047Y107208D01*
G01X22113Y117292D02*
X22273Y117417D01*
X22460Y117500D01*
X22673D01*
X22913Y117375D01*
X23100Y117167D01*
X23233Y116917D01*
X23340Y116500D01*
X23367Y116125D01*
X23313Y115750D01*
X23233Y115500D01*
X23073Y115250D01*
X22887Y115083D01*
X22700Y115000D01*
X22513D01*
X22327Y115083D01*
X22167Y115208D01*
X22033Y115375D01*
G01X20500Y115000D02*
Y117500D01*
X20820Y117000D01*
G01Y115000D02*
X20180D01*
G01X18300Y117500D02*
X18513Y117417D01*
X18673Y117208D01*
X18780Y116958D01*
X18860Y116625D01*
X18887Y116250D01*
X18860Y115875D01*
X18780Y115542D01*
X18673Y115292D01*
X18513Y115083D01*
X18300Y115000D01*
X18087Y115083D01*
X17927Y115292D01*
X17820Y115542D01*
X17740Y115875D01*
X17713Y116250D01*
X17740Y116625D01*
X17820Y116958D01*
X17927Y117208D01*
X18087Y117417D01*
X18300Y117500D01*
G01X27233Y139500D02*
Y142000D01*
X26567D01*
X26353Y141875D01*
X26220Y141708D01*
X26167Y141375D01*
X26220Y141042D01*
X26380Y140833D01*
X26567Y140708D01*
X27233D01*
G01X26567D02*
X26167Y139500D01*
G01X25007Y141583D02*
X24847Y141833D01*
X24660Y141958D01*
X24447Y142000D01*
X24180Y141917D01*
X23993Y141708D01*
X23940Y141458D01*
X23967Y141208D01*
X24073Y141000D01*
X24607Y140583D01*
X24847Y140292D01*
X25007Y139875D01*
X25060Y139500D01*
X23940D01*
G01X28291Y139031D02*
X35772D01*
G01X28291Y142969D02*
Y139031D01*
G01X35772Y142969D02*
X28291D01*
G01X33531Y144228D02*
X37469D01*
G01X33531Y151709D02*
Y144228D01*
G01X37469Y151709D02*
X33531D01*
G01X20000Y141213D02*
X22500D01*
Y141747D01*
X22375Y141960D01*
X22208Y142120D01*
X21958Y142253D01*
X21667Y142360D01*
X21250Y142387D01*
X20833Y142360D01*
X20542Y142253D01*
X20292Y142120D01*
X20125Y141960D01*
X20000Y141747D01*
Y141213D01*
G01Y144000D02*
X22500D01*
X22000Y143680D01*
G01X20000D02*
Y144320D01*
G01X28292Y146387D02*
X28417Y146227D01*
X28500Y146040D01*
Y145827D01*
X28375Y145587D01*
X28167Y145400D01*
X27917Y145267D01*
X27500Y145160D01*
X27125Y145133D01*
X26750Y145187D01*
X26500Y145267D01*
X26250Y145427D01*
X26083Y145613D01*
X26000Y145800D01*
Y145987D01*
X26083Y146173D01*
X26208Y146333D01*
X26375Y146467D01*
G01X26000Y148000D02*
X28500D01*
X28000Y147680D01*
G01X26000D02*
Y148320D01*
G01Y150520D02*
X28500D01*
X26708Y149533D01*
Y150867D01*
G01X34500Y152767D02*
X37000D01*
Y153433D01*
X36875Y153647D01*
X36708Y153780D01*
X36375Y153833D01*
X36042Y153780D01*
X35833Y153620D01*
X35708Y153433D01*
Y152767D01*
G01Y153433D02*
X34500Y153833D01*
G01Y155820D02*
X37000D01*
X35208Y154833D01*
Y156167D01*
G01X40000Y126713D02*
X38208D01*
X37833Y126820D01*
X37583Y127033D01*
X37500Y127300D01*
X37583Y127567D01*
X37833Y127780D01*
X38208Y127887D01*
X40000D01*
G01X37500Y129820D02*
X40000D01*
X38208Y128833D01*
Y130167D01*
G01X57000Y121267D02*
X54500D01*
Y122333D01*
G01Y124000D02*
X57000D01*
X56500Y123680D01*
G01X54500D02*
Y124320D01*
G01X35772Y139031D02*
Y142969D01*
G01X37469Y144228D02*
Y151709D01*
G01X56787Y148500D02*
Y151000D01*
X56253D01*
X56040Y150875D01*
X55880Y150708D01*
X55747Y150458D01*
X55640Y150167D01*
X55613Y149750D01*
X55640Y149333D01*
X55747Y149042D01*
X55880Y148792D01*
X56040Y148625D01*
X56253Y148500D01*
X56787D01*
G01X54507Y150583D02*
X54347Y150833D01*
X54160Y150958D01*
X53947Y151000D01*
X53680Y150917D01*
X53493Y150708D01*
X53440Y150458D01*
X53467Y150208D01*
X53573Y150000D01*
X54107Y149583D01*
X54347Y149292D01*
X54507Y148875D01*
X54560Y148500D01*
X53440D01*
G01X60287Y10000D02*
Y8208D01*
X60180Y7833D01*
X59967Y7583D01*
X59700Y7500D01*
X59433Y7583D01*
X59220Y7833D01*
X59113Y8208D01*
Y10000D01*
G01X58007Y9583D02*
X57847Y9833D01*
X57660Y9958D01*
X57447Y10000D01*
X57180Y9917D01*
X56993Y9708D01*
X56940Y9458D01*
X56967Y9208D01*
X57073Y9000D01*
X57607Y8583D01*
X57847Y8292D01*
X58007Y7875D01*
X58060Y7500D01*
X56940D01*
G01X69113Y101292D02*
X69273Y101417D01*
X69460Y101500D01*
X69673D01*
X69913Y101375D01*
X70100Y101167D01*
X70233Y100917D01*
X70340Y100500D01*
X70367Y100125D01*
X70313Y99750D01*
X70233Y99500D01*
X70073Y99250D01*
X69887Y99083D01*
X69700Y99000D01*
X69513D01*
X69327Y99083D01*
X69167Y99208D01*
X69033Y99375D01*
G01X68007Y101083D02*
X67847Y101333D01*
X67660Y101458D01*
X67447Y101500D01*
X67180Y101417D01*
X66993Y101208D01*
X66940Y100958D01*
X66967Y100708D01*
X67073Y100500D01*
X67607Y100083D01*
X67847Y99792D01*
X68007Y99375D01*
X68060Y99000D01*
X66940D01*
G01X69113Y111292D02*
X69273Y111417D01*
X69460Y111500D01*
X69673D01*
X69913Y111375D01*
X70100Y111167D01*
X70233Y110917D01*
X70340Y110500D01*
X70367Y110125D01*
X70313Y109750D01*
X70233Y109500D01*
X70073Y109250D01*
X69887Y109083D01*
X69700Y109000D01*
X69513D01*
X69327Y109083D01*
X69167Y109208D01*
X69033Y109375D01*
G01X68087D02*
X67927Y109167D01*
X67740Y109042D01*
X67500Y109000D01*
X67260Y109083D01*
X67073Y109250D01*
X66940Y109542D01*
X66913Y109875D01*
X66967Y110208D01*
X67100Y110417D01*
X67287Y110583D01*
X67473Y110625D01*
X67660Y110583D01*
X67900Y110417D01*
X67820Y111500D01*
X67100D01*
G01X57292Y139887D02*
X57417Y139727D01*
X57500Y139540D01*
Y139327D01*
X57375Y139087D01*
X57167Y138900D01*
X56917Y138767D01*
X56500Y138660D01*
X56125Y138633D01*
X55750Y138687D01*
X55500Y138767D01*
X55250Y138927D01*
X55083Y139113D01*
X55000Y139300D01*
Y139487D01*
X55083Y139673D01*
X55208Y139833D01*
X55375Y139967D01*
G01X55000Y141500D02*
X57500D01*
X57000Y141180D01*
G01X55000D02*
Y141820D01*
G01X55500Y143113D02*
X55208Y143273D01*
X55042Y143487D01*
X55000Y143727D01*
X55042Y143940D01*
X55250Y144153D01*
X55500Y144287D01*
X55750Y144313D01*
X56042Y144260D01*
X56250Y144073D01*
X56333Y143887D01*
Y143647D01*
G01Y143887D02*
X56458Y144047D01*
X56667Y144180D01*
X56917Y144233D01*
X57167Y144180D01*
X57375Y144047D01*
X57500Y143807D01*
X57458Y143567D01*
X57292Y143327D01*
G01X76233Y140500D02*
Y143000D01*
X75567D01*
X75353Y142875D01*
X75220Y142708D01*
X75167Y142375D01*
X75220Y142042D01*
X75380Y141833D01*
X75567Y141708D01*
X76233D01*
G01X75567D02*
X75167Y140500D01*
G01X73500D02*
Y143000D01*
X73820Y142500D01*
G01Y140500D02*
X73180D01*
G01X88707Y13000D02*
Y15500D01*
X87693D01*
G01X88067Y14292D02*
X88707D01*
G01X86320Y15500D02*
X85680D01*
G01X86000D02*
Y13000D01*
G01X86320D02*
X85680D01*
G01X84387D02*
Y15500D01*
X83853D01*
X83640Y15375D01*
X83480Y15208D01*
X83347Y14958D01*
X83240Y14667D01*
X83213Y14250D01*
X83240Y13833D01*
X83347Y13542D01*
X83480Y13292D01*
X83640Y13125D01*
X83853Y13000D01*
X84387D01*
G01X82107Y14042D02*
X81920Y14333D01*
X81760Y14500D01*
X81547Y14583D01*
X81360Y14500D01*
X81227Y14333D01*
X81120Y14083D01*
X81093Y13792D01*
X81120Y13542D01*
X81227Y13292D01*
X81387Y13083D01*
X81573Y13000D01*
X81787Y13083D01*
X81973Y13333D01*
X82080Y13708D01*
X82107Y14125D01*
X82053Y14667D01*
X81973Y14958D01*
X81840Y15250D01*
X81653Y15458D01*
X81467Y15500D01*
X81280Y15417D01*
X81147Y15208D01*
G01X80500Y3000D02*
X89500D01*
G01D02*
Y12000D01*
G01X80500D02*
Y3000D01*
G01X89500Y12000D02*
X80500D01*
G01X89000Y127713D02*
X87208D01*
X86833Y127820D01*
X86583Y128033D01*
X86500Y128300D01*
X86583Y128567D01*
X86833Y128780D01*
X87208Y128887D01*
X89000D01*
G01X87000Y129913D02*
X86708Y130073D01*
X86542Y130287D01*
X86500Y130527D01*
X86542Y130740D01*
X86750Y130953D01*
X87000Y131087D01*
X87250Y131113D01*
X87542Y131060D01*
X87750Y130873D01*
X87833Y130687D01*
Y130447D01*
G01Y130687D02*
X87958Y130847D01*
X88167Y130980D01*
X88417Y131033D01*
X88667Y130980D01*
X88875Y130847D01*
X89000Y130607D01*
X88958Y130367D01*
X88792Y130127D01*
G01X84613Y118292D02*
X84773Y118417D01*
X84960Y118500D01*
X85173D01*
X85413Y118375D01*
X85600Y118167D01*
X85733Y117917D01*
X85840Y117500D01*
X85867Y117125D01*
X85813Y116750D01*
X85733Y116500D01*
X85573Y116250D01*
X85387Y116083D01*
X85200Y116000D01*
X85013D01*
X84827Y116083D01*
X84667Y116208D01*
X84533Y116375D01*
G01X83453Y116292D02*
X83267Y116083D01*
X83053Y116000D01*
X82840Y116083D01*
X82653Y116333D01*
X82520Y116708D01*
X82467Y117083D01*
Y117542D01*
X82520Y117917D01*
X82653Y118250D01*
X82813Y118417D01*
X83000Y118500D01*
X83213Y118417D01*
X83373Y118250D01*
X83480Y118000D01*
X83533Y117667D01*
X83480Y117375D01*
X83347Y117083D01*
X83187Y116917D01*
X83000Y116875D01*
X82787Y116958D01*
X82627Y117167D01*
X82467Y117542D01*
G01X84772Y140031D02*
Y143969D01*
G01X77291Y140031D02*
X84772D01*
G01X77291Y143969D02*
Y140031D01*
G01X84772Y143969D02*
X77291D01*
G01X88500Y148767D02*
X91000D01*
Y149433D01*
X90875Y149647D01*
X90708Y149780D01*
X90375Y149833D01*
X90042Y149780D01*
X89833Y149620D01*
X89708Y149433D01*
Y148767D01*
G01Y149433D02*
X88500Y149833D01*
G01X89000Y150913D02*
X88708Y151073D01*
X88542Y151287D01*
X88500Y151527D01*
X88542Y151740D01*
X88750Y151953D01*
X89000Y152087D01*
X89250Y152113D01*
X89542Y152060D01*
X89750Y151873D01*
X89833Y151687D01*
Y151447D01*
G01Y151687D02*
X89958Y151847D01*
X90167Y151980D01*
X90417Y152033D01*
X90667Y151980D01*
X90875Y151847D01*
X91000Y151607D01*
X90958Y151367D01*
X90792Y151127D01*
G01X87531Y140228D02*
X91469D01*
G01X87531Y147709D02*
Y140228D01*
G01X91469Y147709D02*
X87531D01*
G01X91469Y140228D02*
Y147709D01*
G01X94792Y149887D02*
X94917Y149727D01*
X95000Y149540D01*
Y149327D01*
X94875Y149087D01*
X94667Y148900D01*
X94417Y148767D01*
X94000Y148660D01*
X93625Y148633D01*
X93250Y148687D01*
X93000Y148767D01*
X92750Y148927D01*
X92583Y149113D01*
X92500Y149300D01*
Y149487D01*
X92583Y149673D01*
X92708Y149833D01*
X92875Y149967D01*
G01X92500Y151500D02*
X95000D01*
X94500Y151180D01*
G01X92500D02*
Y151820D01*
G01X92875Y153113D02*
X92667Y153273D01*
X92542Y153460D01*
X92500Y153700D01*
X92583Y153940D01*
X92750Y154127D01*
X93042Y154260D01*
X93375Y154287D01*
X93708Y154233D01*
X93917Y154100D01*
X94083Y153913D01*
X94125Y153727D01*
X94083Y153540D01*
X93917Y153300D01*
X95000Y153380D01*
Y154100D01*
G01X90613Y172792D02*
X90773Y172917D01*
X90960Y173000D01*
X91173D01*
X91413Y172875D01*
X91600Y172667D01*
X91733Y172417D01*
X91840Y172000D01*
X91867Y171625D01*
X91813Y171250D01*
X91733Y171000D01*
X91573Y170750D01*
X91387Y170583D01*
X91200Y170500D01*
X91013D01*
X90827Y170583D01*
X90667Y170708D01*
X90533Y170875D01*
G01X89507Y172583D02*
X89347Y172833D01*
X89160Y172958D01*
X88947Y173000D01*
X88680Y172917D01*
X88493Y172708D01*
X88440Y172458D01*
X88467Y172208D01*
X88573Y172000D01*
X89107Y171583D01*
X89347Y171292D01*
X89507Y170875D01*
X89560Y170500D01*
X88440D01*
G01X87387Y171000D02*
X87227Y170708D01*
X87013Y170542D01*
X86773Y170500D01*
X86560Y170542D01*
X86347Y170750D01*
X86213Y171000D01*
X86187Y171250D01*
X86240Y171542D01*
X86427Y171750D01*
X86613Y171833D01*
X86853D01*
G01X86613D02*
X86453Y171958D01*
X86320Y172167D01*
X86267Y172417D01*
X86320Y172667D01*
X86453Y172875D01*
X86693Y173000D01*
X86933Y172958D01*
X87173Y172792D01*
G01X88233Y156000D02*
Y153500D01*
X87167D01*
G01X86087Y154000D02*
X85927Y153708D01*
X85713Y153542D01*
X85473Y153500D01*
X85260Y153542D01*
X85047Y153750D01*
X84913Y154000D01*
X84887Y154250D01*
X84940Y154542D01*
X85127Y154750D01*
X85313Y154833D01*
X85553D01*
G01X85313D02*
X85153Y154958D01*
X85020Y155167D01*
X84967Y155417D01*
X85020Y155667D01*
X85153Y155875D01*
X85393Y156000D01*
X85633Y155958D01*
X85873Y155792D01*
G01X88613Y161292D02*
X88773Y161417D01*
X88960Y161500D01*
X89173D01*
X89413Y161375D01*
X89600Y161167D01*
X89733Y160917D01*
X89840Y160500D01*
X89867Y160125D01*
X89813Y159750D01*
X89733Y159500D01*
X89573Y159250D01*
X89387Y159083D01*
X89200Y159000D01*
X89013D01*
X88827Y159083D01*
X88667Y159208D01*
X88533Y159375D01*
G01X87587D02*
X87427Y159167D01*
X87240Y159042D01*
X87000Y159000D01*
X86760Y159083D01*
X86573Y159250D01*
X86440Y159542D01*
X86413Y159875D01*
X86467Y160208D01*
X86600Y160417D01*
X86787Y160583D01*
X86973Y160625D01*
X87160Y160583D01*
X87400Y160417D01*
X87320Y161500D01*
X86600D01*
G01X85307Y161083D02*
X85147Y161333D01*
X84960Y161458D01*
X84747Y161500D01*
X84480Y161417D01*
X84293Y161208D01*
X84240Y160958D01*
X84267Y160708D01*
X84373Y160500D01*
X84907Y160083D01*
X85147Y159792D01*
X85307Y159375D01*
X85360Y159000D01*
X84240D01*
G01X88613Y165792D02*
X88773Y165917D01*
X88960Y166000D01*
X89173D01*
X89413Y165875D01*
X89600Y165667D01*
X89733Y165417D01*
X89840Y165000D01*
X89867Y164625D01*
X89813Y164250D01*
X89733Y164000D01*
X89573Y163750D01*
X89387Y163583D01*
X89200Y163500D01*
X89013D01*
X88827Y163583D01*
X88667Y163708D01*
X88533Y163875D01*
G01X87507Y165583D02*
X87347Y165833D01*
X87160Y165958D01*
X86947Y166000D01*
X86680Y165917D01*
X86493Y165708D01*
X86440Y165458D01*
X86467Y165208D01*
X86573Y165000D01*
X87107Y164583D01*
X87347Y164292D01*
X87507Y163875D01*
X87560Y163500D01*
X86440D01*
G01X84800D02*
Y166000D01*
X85120Y165500D01*
G01Y163500D02*
X84480D01*
G01X90113Y182792D02*
X90273Y182917D01*
X90460Y183000D01*
X90673D01*
X90913Y182875D01*
X91100Y182667D01*
X91233Y182417D01*
X91340Y182000D01*
X91367Y181625D01*
X91313Y181250D01*
X91233Y181000D01*
X91073Y180750D01*
X90887Y180583D01*
X90700Y180500D01*
X90513D01*
X90327Y180583D01*
X90167Y180708D01*
X90033Y180875D01*
G01X89087D02*
X88927Y180667D01*
X88740Y180542D01*
X88500Y180500D01*
X88260Y180583D01*
X88073Y180750D01*
X87940Y181042D01*
X87913Y181375D01*
X87967Y181708D01*
X88100Y181917D01*
X88287Y182083D01*
X88473Y182125D01*
X88660Y182083D01*
X88900Y181917D01*
X88820Y183000D01*
X88100D01*
G01X86300Y180500D02*
Y183000D01*
X86620Y182500D01*
G01Y180500D02*
X85980D01*
G01X94207Y209000D02*
Y211500D01*
X93193D01*
G01X93567Y210292D02*
X94207D01*
G01X91820Y211500D02*
X91180D01*
G01X91500D02*
Y209000D01*
G01X91820D02*
X91180D01*
G01X89887D02*
Y211500D01*
X89353D01*
X89140Y211375D01*
X88980Y211208D01*
X88847Y210958D01*
X88740Y210667D01*
X88713Y210250D01*
X88740Y209833D01*
X88847Y209542D01*
X88980Y209292D01*
X89140Y209125D01*
X89353Y209000D01*
X89887D01*
G01X87687Y209375D02*
X87527Y209167D01*
X87340Y209042D01*
X87100Y209000D01*
X86860Y209083D01*
X86673Y209250D01*
X86540Y209542D01*
X86513Y209875D01*
X86567Y210208D01*
X86700Y210417D01*
X86887Y210583D01*
X87073Y210625D01*
X87260Y210583D01*
X87500Y210417D01*
X87420Y211500D01*
X86700D01*
G01X86000Y212500D02*
X95000D01*
G01X86000Y221500D02*
Y212500D01*
G01X95000Y221500D02*
X86000D01*
G01X95000Y212500D02*
Y221500D01*
G54D12*
G01X36078Y4583D02*
X35848Y4893D01*
X35580Y5048D01*
X35273Y5100D01*
X34890Y4997D01*
X34622Y4738D01*
X34545Y4428D01*
X34583Y4118D01*
X34737Y3860D01*
X35503Y3343D01*
X35848Y2982D01*
X36078Y2465D01*
X36155Y2000D01*
X34545D01*
G01X32250Y5100D02*
X32557Y4997D01*
X32787Y4738D01*
X32940Y4428D01*
X33055Y4015D01*
X33093Y3550D01*
X33055Y3085D01*
X32940Y2672D01*
X32787Y2362D01*
X32557Y2103D01*
X32250Y2000D01*
X31943Y2103D01*
X31713Y2362D01*
X31560Y2672D01*
X31445Y3085D01*
X31407Y3550D01*
X31445Y4015D01*
X31560Y4428D01*
X31713Y4738D01*
X31943Y4997D01*
X32250Y5100D01*
G01X29878Y4583D02*
X29648Y4893D01*
X29380Y5048D01*
X29073Y5100D01*
X28690Y4997D01*
X28422Y4738D01*
X28345Y4428D01*
X28383Y4118D01*
X28537Y3860D01*
X29303Y3343D01*
X29648Y2982D01*
X29878Y2465D01*
X29955Y2000D01*
X28345D01*
G01X26050D02*
Y5100D01*
X26510Y4480D01*
G01Y2000D02*
X25590D01*
G01X23448Y3033D02*
X22452D01*
G01X19850Y2000D02*
Y5100D01*
X20310Y4480D01*
G01Y2000D02*
X19390D01*
G01X16750Y5100D02*
X17057Y4997D01*
X17287Y4738D01*
X17440Y4428D01*
X17555Y4015D01*
X17593Y3550D01*
X17555Y3085D01*
X17440Y2672D01*
X17287Y2362D01*
X17057Y2103D01*
X16750Y2000D01*
X16443Y2103D01*
X16213Y2362D01*
X16060Y2672D01*
X15945Y3085D01*
X15907Y3550D01*
X15945Y4015D01*
X16060Y4428D01*
X16213Y4738D01*
X16443Y4997D01*
X16750Y5100D01*
G01X75617Y2000D02*
Y5100D01*
X74658D01*
X74352Y4945D01*
X74160Y4738D01*
X74083Y4325D01*
X74160Y3912D01*
X74390Y3653D01*
X74658Y3498D01*
X75617D01*
G01X74658D02*
X74083Y2000D01*
G01X72325Y3395D02*
X71098D01*
X71213Y3757D01*
X71405Y3963D01*
X71673Y4067D01*
X71942Y4015D01*
X72172Y3860D01*
X72325Y3498D01*
X72402Y3188D01*
Y2878D01*
X72325Y2568D01*
X72133Y2258D01*
X71903Y2052D01*
X71635Y2000D01*
X71367Y2103D01*
X71098Y2413D01*
G01X69340Y4067D02*
X68650Y2000D01*
X67960Y4067D01*
G01X62450Y2000D02*
Y5100D01*
X62910Y4480D01*
G01Y2000D02*
X61990D01*
G01X60500Y967D02*
X58200D01*
G01X56250Y5100D02*
X56557Y4997D01*
X56787Y4738D01*
X56940Y4428D01*
X57055Y4015D01*
X57093Y3550D01*
X57055Y3085D01*
X56940Y2672D01*
X56787Y2362D01*
X56557Y2103D01*
X56250Y2000D01*
X55943Y2103D01*
X55713Y2362D01*
X55560Y2672D01*
X55445Y3085D01*
X55407Y3550D01*
X55445Y4015D01*
X55560Y4428D01*
X55713Y4738D01*
X55943Y4997D01*
X56250Y5100D01*
G01X53150D02*
X53457Y4997D01*
X53687Y4738D01*
X53840Y4428D01*
X53955Y4015D01*
X53993Y3550D01*
X53955Y3085D01*
X53840Y2672D01*
X53687Y2362D01*
X53457Y2103D01*
X53150Y2000D01*
X52843Y2103D01*
X52613Y2362D01*
X52460Y2672D01*
X52345Y3085D01*
X52307Y3550D01*
X52345Y4015D01*
X52460Y4428D01*
X52613Y4738D01*
X52843Y4997D01*
X53150Y5100D01*
G01X50548Y3033D02*
X49552D01*
G01X46950Y5100D02*
X47257Y4997D01*
X47487Y4738D01*
X47640Y4428D01*
X47755Y4015D01*
X47793Y3550D01*
X47755Y3085D01*
X47640Y2672D01*
X47487Y2362D01*
X47257Y2103D01*
X46950Y2000D01*
X46643Y2103D01*
X46413Y2362D01*
X46260Y2672D01*
X46145Y3085D01*
X46107Y3550D01*
X46145Y4015D01*
X46260Y4428D01*
X46413Y4738D01*
X46643Y4997D01*
X46950Y5100D01*
G01X43543Y3653D02*
X43390Y3808D01*
X43275Y4067D01*
X43198Y4428D01*
X43275Y4738D01*
X43428Y4945D01*
X43697Y5100D01*
X44732D01*
Y2000D01*
X43467D01*
X43198Y2207D01*
X43045Y2517D01*
X42968Y2878D01*
X43045Y3240D01*
X43275Y3550D01*
X43543Y3653D01*
X44732D01*
G01X73000Y11000D02*
X45000D01*
Y17000D01*
G01X42414Y15000D02*
G03I-1414J0D01*
G01X45000Y33000D02*
Y57000D01*
G01Y23000D02*
Y27000D01*
G01Y73000D02*
Y77000D01*
G01Y63000D02*
Y67000D01*
G01Y83000D02*
Y89000D01*
X73000D01*
Y83000D01*
G01Y11000D02*
Y17000D01*
G01Y77000D02*
Y23000D01*
G54D13*
G01X12000Y141000D02*
X15000Y144000D01*
G01X18000Y141000D02*
X15000Y144000D01*
G01X18000D02*
X12000D01*
G01X61000Y153500D02*
X58000Y156500D01*
G01X61000Y159500D02*
X58000Y156500D01*
G01Y159500D02*
Y153500D01*
G54D14*
G01X20575Y157075D02*
X13488D01*
Y153925D01*
X20575D01*
Y157075D01*
G01Y161075D02*
X13488D01*
Y157925D01*
X20575D01*
Y161075D01*
G01X31425Y26575D02*
Y19488D01*
X34575D01*
Y26575D01*
X31425D01*
G01X35075Y64425D02*
Y71512D01*
X31925D01*
Y64425D01*
X35075D01*
G01X31575Y117575D02*
X24488D01*
Y114425D01*
X31575D01*
Y117575D01*
G01X32575Y144425D02*
Y151512D01*
X29425D01*
Y144425D01*
X32575D01*
G01X81575Y118575D02*
X74488D01*
Y115425D01*
X81575D01*
Y118575D01*
G01X76425Y158925D02*
X83512D01*
Y162075D01*
X76425D01*
Y158925D01*
G01Y162925D02*
X83512D01*
Y166075D01*
X76425D01*
Y162925D01*
G01X95575Y140425D02*
Y147512D01*
X92425D01*
Y140425D01*
X95575D01*
G54D15*
G01X51000Y98766D02*
X53500D01*
Y99432D01*
X53375Y99645D01*
X53208Y99778D01*
X52875Y99832D01*
X52542Y99778D01*
X52333Y99619D01*
X52208Y99432D01*
Y98766D01*
G01Y99432D02*
X51000Y99832D01*
G01X53083Y100989D02*
X53333Y101149D01*
X53458Y101335D01*
X53500Y101548D01*
X53417Y101815D01*
X53208Y102001D01*
X52958Y102054D01*
X52708Y102028D01*
X52500Y101921D01*
X52083Y101388D01*
X51792Y101149D01*
X51375Y100989D01*
X51000Y100936D01*
Y102054D01*
G01X52042Y103185D02*
X52333Y103371D01*
X52500Y103531D01*
X52583Y103744D01*
X52500Y103931D01*
X52333Y104064D01*
X52083Y104170D01*
X51792Y104197D01*
X51542Y104170D01*
X51292Y104064D01*
X51083Y103904D01*
X51000Y103718D01*
X51083Y103505D01*
X51333Y103318D01*
X51708Y103212D01*
X52125Y103185D01*
X52667Y103238D01*
X52958Y103318D01*
X53250Y103451D01*
X53458Y103638D01*
X53500Y103824D01*
X53417Y104011D01*
X53208Y104144D01*
G54D16*
G01X9000Y123000D02*
Y129000D01*
G01X21000Y123000D02*
Y129000D01*
G01X58000Y120000D02*
Y126000D01*
G01X70000Y120000D02*
Y126000D01*
G01X74000Y146000D02*
X80000D01*
G01X74000Y158000D02*
X80000D01*
M02*
