G04 ================== begin FILE IDENTIFICATION RECORD ==================*
G04 Layout Name:  isolated_v-i_dac.brd*
G04 Film Name:    Isolated_V-I_DAC-v1_00-0b-INNER2*
G04 File Format:  Gerber RS274X*
G04 File Origin:  Cadence Allegro 17.4-S021*
G04 Origin Date:  Sun Sep 26 13:55:38 2021*
G04 *
G04 Layer:  ETCH/INNER2*
G04 Layer:  PIN/INNER2*
G04 Layer:  VIA CLASS/INNER2*
G04 *
G04 Offset:    (0.00 0.00)*
G04 Mirror:    No*
G04 Mode:      Positive*
G04 Rotation:  0*
G04 FullContactRelief:  No*
G04 UndefLineWidth:     6.00*
G04 ================== end FILE IDENTIFICATION RECORD ====================*
%FSLAX25Y25*MOIN*%
%IR0*IPPOS*OFA0.00000B0.00000*MIA0B0*SFA1.00000B1.00000*%
%ADD11C,.02*%
%ADD13C,.093*%
%ADD10O,.08X.06*%
%ADD12R,.08X.06*%
%ADD14C,.025*%
%ADD15C,.006*%
%ADD16C,.007*%
%ADD17C,.04004*%
%ADD19C,.10304*%
%ADD18C,.11304*%
G75*
%LPD*%
G75*
G36*
G01X10500Y42000D02*
X89500D01*
Y29500D01*
X96999D01*
Y28855D01*
G02X96538Y28460I-400J0D01*
G03X96000Y28502I-541J-3460D01*
G01X94000D01*
G03Y21498I0J-3502D01*
G01X96000D01*
G03X96538Y21540I-3J3502D01*
G02X96999Y21145I61J-395D01*
G01Y19500D01*
X89500D01*
Y3501D01*
X89000Y3001D01*
X10500D01*
Y42000D01*
G37*
G36*
G01X90495Y222018D02*
X90500D01*
G02X97000Y215987I0J-6518D01*
G01Y215013D01*
X96999Y215000D01*
X97000Y107500D01*
X92000D01*
Y104652D01*
X91548D01*
Y99648D01*
X92000D01*
Y94500D01*
X86000D01*
Y48500D01*
X73635D01*
G02X73280Y49083I0J400D01*
G03X73502Y50000I-1780J916D01*
G03X71500Y52002I-2002J0D01*
G03X70582Y51779I0J-2001D01*
G02X69999Y52112I-184J355D01*
G03X68000Y54002I-1999J-112D01*
G03Y49998I0J-2002D01*
G03X68918Y50221I0J2001D01*
G02X69501Y49888I184J-355D01*
G03X69720Y49083I1999J112D01*
G02X69365Y48500I-355J-183D01*
G01X14000D01*
Y94500D01*
X3001D01*
Y216000D01*
X3004Y216022D01*
G02X9940Y221999I7148J-1282D01*
G01X90000D01*
G02X90495Y222018I497J-6499D01*
G37*
%LPC*%
G75*
G36*
G01X25066Y107248D02*
X20500D01*
G02Y111752I0J2252D01*
G01X25999D01*
G02X27591Y111092I-1J-2252D01*
G01X40932Y97752D01*
X58099D01*
G03X58382Y98434I0J400D01*
G01X54567Y102248D01*
X38500D01*
G02Y106752I0J2252D01*
G01X55500D01*
G02X57092Y106092I-1J-2252D01*
G01X62092Y101092D01*
G02X62752Y99500I-1592J-1593D01*
G02X62439Y98355I-2251J0D01*
G03X62783Y97752I344J-203D01*
G01X64500D01*
G02Y93248I0J-2252D01*
G01X62783D01*
G03X62439Y92645I0J-400D01*
G02X62752Y91500I-1938J-1145D01*
G02X62633Y90779I-2252J1D01*
G03X63012Y90252I379J-127D01*
G01X64500D01*
G02Y85748I0J-2252D01*
G01X62246D01*
X43314Y66817D01*
Y65000D01*
G02X38812I-2251J0D01*
G01Y67750D01*
G02X39471Y69342I2251J1D01*
G01X41965Y71836D01*
G03X41735Y72516I-283J283D01*
G02X39998Y74500I265J1984D01*
G02X42000Y76502I2002J0D01*
G02X43984Y74765I0J-2002D01*
G03X44664Y74535I397J53D01*
G01X58695Y88566D01*
G03X58412Y89248I-283J282D01*
G01X51933D01*
X43592Y80908D01*
G02X42000Y80248I-1593J1592D01*
G01X28000D01*
G02Y84752I0J2252D01*
G01X41067D01*
X48882Y92566D01*
G03X48599Y93248I-283J282D01*
G01X39999D01*
G02X38407Y93908I1J2252D01*
G01X25066Y107248D01*
G37*
G36*
G01X79248Y144902D02*
Y172500D01*
G02X81500Y174752I2252J0D01*
G01X85500D01*
G02X87752Y172500I0J-2252D01*
G01Y167518D01*
X87755Y167500D01*
G02X87796Y167075I-2211J-428D01*
G01Y156017D01*
G03X88413Y155681I400J0D01*
G02X89500Y156002I1087J-1680D01*
G02X90959Y155371I0J-2002D01*
G03X91541I291J274D01*
G02X93000Y156002I1459J-1371D01*
G02Y151998I0J-2002D01*
G02X91541Y152629I0J2002D01*
G03X90959I-291J-274D01*
G02X89500Y151998I-1459J1371D01*
G02X88413Y152319I0J2001D01*
G03X87796Y151983I-217J-336D01*
G01Y127889D01*
X89592Y126092D01*
G02X90252Y124500I-1592J-1593D01*
G02X88000Y122248I-2252J0D01*
G02X86408Y122908I1J2252D01*
G01X83952Y125364D01*
G02X83292Y126956I1592J1593D01*
G01Y141612D01*
G03X82610Y141895I-400J0D01*
G01X56123Y115408D01*
G02X54531Y114748I-1593J1592D01*
G01X24500D01*
G02X22908Y115408I1J2252D01*
G01X7408Y130908D01*
G02X6748Y132500I1592J1593D01*
G01Y146000D01*
G02X11252I2252J0D01*
G01Y133433D01*
X25433Y119252D01*
X53598D01*
X69563Y135216D01*
G03X69280Y135898I-283J282D01*
G01X34850D01*
G02X33258Y136558I1J2252D01*
G01X22408Y147408D01*
G02X21748Y149000I1592J1593D01*
G02X24000Y151252I2252J0D01*
G02X25592Y150592I-1J-2252D01*
G01X35783Y140402D01*
X74748D01*
X79248Y144902D01*
G37*
G36*
G01X17408Y166592D02*
X25471Y174655D01*
G02X27063Y175314I1591J-1592D01*
G01X41437D01*
G02Y170812I0J-2251D01*
G01X27996D01*
X21252Y164067D01*
Y161433D01*
X22933Y159752D01*
X47500D01*
G02X49092Y159092I-1J-2252D01*
G01X55592Y152592D01*
G02X56252Y151000I-1592J-1593D01*
G02X54000Y148748I-2252J0D01*
G02X52408Y149408I1J2252D01*
G01X46567Y155248D01*
X42283D01*
G03X41939Y154645I0J-400D01*
G02X42252Y153500I-1938J-1145D01*
G01Y149937D01*
G02X37748I-2252J0D01*
G01Y152567D01*
X35067Y155248D01*
X22000D01*
G02X20408Y155908I1J2252D01*
G01X19934Y156382D01*
G03X19252Y156099I-282J-283D01*
G01Y143933D01*
X36933Y126252D01*
X42124D01*
G02X42631Y126194I-1J-2252D01*
G01X42653Y126188D01*
X44937D01*
G02Y121686I0J-2251D01*
G01X42187D01*
G02X41680Y121743I-4J2251D01*
G01X41658Y121748D01*
X36000D01*
G02X34408Y122408I1J2252D01*
G01X15408Y141408D01*
G02X14748Y143000I1592J1593D01*
G01Y158500D01*
G02X15408Y160092I2252J-1D01*
G01X16748Y161433D01*
Y165000D01*
G02X17408Y166592I2252J-1D01*
G37*
G54D17*
X15000Y8000D03*
X62500Y10000D03*
X77300Y16000D03*
X85500Y8000D03*
X17000Y33500D03*
X19500Y38139D03*
X22000Y33500D03*
X35500Y36000D03*
X49000Y29000D03*
X65000D03*
X59000Y65000D03*
Y185500D03*
G54D19*
X48685Y204000D03*
G54D18*
X29000D03*
X68370D03*
%LPD*%
G75*
G54D10*
X5000Y15000D03*
Y25000D03*
Y35000D03*
Y45000D03*
Y55000D03*
Y65000D03*
Y75000D03*
X95000Y15000D03*
Y35000D03*
Y25000D03*
Y55000D03*
Y45000D03*
Y75000D03*
Y65000D03*
G54D11*
X15000Y8000D03*
X16000Y15000D03*
X9000Y105500D03*
X14500Y113000D03*
X9000Y146000D03*
X5063Y146063D03*
X21500Y15000D03*
X22000Y33500D03*
X17000D03*
X19500Y38139D03*
X32000Y63000D03*
X16500Y58000D03*
X19500D03*
X28000Y82500D03*
X20500Y109500D03*
X24000Y149000D03*
X27000Y141000D03*
X20500Y149000D03*
X19000Y165000D03*
Y160500D03*
X22000Y154000D03*
X23500Y163000D03*
X21500Y185000D03*
X49000Y29000D03*
X35500Y36000D03*
X42000Y74500D03*
X41063Y65000D03*
X45000D03*
X35500Y95000D03*
X38500Y104500D03*
X49500Y99000D03*
X46000Y114000D03*
X44937Y123937D03*
X45000Y120000D03*
X40000Y149937D03*
X54000Y151000D03*
X39000Y145500D03*
X54000Y141000D03*
X41437Y173063D03*
X41500Y177000D03*
X62500Y10000D03*
X65000Y29000D03*
X68000Y52000D03*
X71500Y50000D03*
X59000Y65000D03*
X64000Y58000D03*
X64181Y61500D03*
X60500Y91500D03*
X64500Y88000D03*
X60500Y99500D03*
X64500Y95500D03*
X56000Y108000D03*
X68112Y166000D03*
X59000Y185500D03*
X85500Y8000D03*
X77300Y16000D03*
X77500Y94000D03*
X82394Y94106D03*
X88000Y124500D03*
X75500Y142000D03*
X90532Y134469D03*
X89500Y154000D03*
X88394Y165894D03*
X85500Y172500D03*
X81500D03*
X90500Y188500D03*
X95000Y112000D03*
X93000Y154000D03*
G54D12*
X5000Y85000D03*
X95000D03*
G54D13*
X29000Y204000D03*
X48685D03*
X68370D03*
G54D14*
G01X9000Y146000D02*
Y132500D01*
X24500Y117000D01*
X54531D01*
X75681Y138150D01*
G01X28000Y82500D02*
X42000D01*
X51000Y91500D01*
X60500D01*
G01X20500Y109500D02*
X25999D01*
X39999Y95500D01*
X64500D01*
G01X44937Y123937D02*
X42187D01*
X42124Y124000D01*
X36000D01*
X17000Y143000D01*
Y158500D01*
X19000Y160500D01*
G01X75681Y138150D02*
X34850D01*
X24000Y149000D01*
G01X40000Y149937D02*
Y153500D01*
X36000Y157500D01*
G01X19000Y160500D02*
Y165000D01*
G01X36000Y157500D02*
X22000D01*
X19000Y160500D01*
G01X41437Y173063D02*
X27063D01*
X19000Y165000D01*
G01X41063Y65000D02*
Y67750D01*
X61313Y88000D01*
X64500D01*
G01X38500Y104500D02*
X55500D01*
X60500Y99500D01*
G01X36000Y157500D02*
X47500D01*
X54000Y151000D01*
G01X85500Y172500D02*
Y167119D01*
X85544Y167075D01*
Y126956D01*
X88000Y124500D01*
G01X75681Y138150D02*
X81500Y143969D01*
Y172500D01*
G01D02*
X85500D01*
G54D15*
G01X48685Y198648D02*
Y204000D01*
G01D02*
Y209352D01*
G01X43333Y204000D02*
X48685D01*
G01D02*
X54037D01*
G01X90298Y25000D02*
X95000D01*
G01Y21298D02*
Y25000D01*
G01D02*
Y28702D01*
G54D16*
G01X95380Y101307D02*
X95742Y101537D01*
X95948Y101843D01*
X96000Y102188D01*
X95948Y102495D01*
X95690Y102802D01*
X95380Y102993D01*
X95070Y103032D01*
X94708Y102955D01*
X94450Y102687D01*
X94347Y102418D01*
Y102073D01*
G01Y102418D02*
X94192Y102648D01*
X93933Y102840D01*
X93623Y102917D01*
X93313Y102840D01*
X93055Y102648D01*
X92900Y102303D01*
X92952Y101958D01*
X93158Y101613D01*
M02*
