G04 ================== begin FILE IDENTIFICATION RECORD ==================*
G04 Layout Name:  isolated_v-i_dac.brd*
G04 Film Name:    Isolated_V-I_DAC-v1_00-0b-BOTTOM*
G04 File Format:  Gerber RS274X*
G04 File Origin:  Cadence Allegro 17.4-S021*
G04 Origin Date:  Sat Oct 23 12:12:42 2021*
G04 *
G04 Layer:  ETCH/BOTTOM*
G04 Layer:  PIN/BOTTOM*
G04 Layer:  VIA CLASS/BOTTOM*
G04 *
G04 Offset:    (0.00 0.00)*
G04 Mirror:    No*
G04 Mode:      Positive*
G04 Rotation:  0*
G04 FullContactRelief:  No*
G04 UndefLineWidth:     6.00*
G04 ================== end FILE IDENTIFICATION RECORD ====================*
%FSLAX25Y25*MOIN*%
%IR0*IPPOS*OFA0.00000B0.00000*MIA0B0*SFA1.00000B1.00000*%
%ADD11C,.02*%
%ADD17C,.04*%
%AMMACRO31*
4,1,40,.00558,-.05315,
-.00558,-.05315,
-.007516,-.052981,
-.009394,-.052478,
-.011155,-.051656,
-.012747,-.050541,
-.014121,-.049167,
-.015236,-.047575,
-.016058,-.045814,
-.016561,-.043936,
-.01673,-.042,
-.01673,.042,
-.016561,.043936,
-.016058,.045814,
-.015236,.047575,
-.014121,.049167,
-.012747,.050541,
-.011155,.051656,
-.009394,.052478,
-.007516,.052981,
-.00558,.05315,
.00558,.05315,
.007516,.052981,
.009394,.052478,
.011155,.051656,
.012747,.050541,
.014121,.049167,
.015236,.047575,
.016058,.045814,
.016561,.043936,
.01673,.042,
.01673,-.042,
.016561,-.043936,
.016058,-.045814,
.015236,-.047575,
.014121,-.049167,
.012747,-.050541,
.011155,-.051656,
.009394,-.052478,
.007516,-.052981,
.00558,-.05315,
0.0*
%
%ADD31MACRO31*%
%AMMACRO13*
4,1,40,.05315,.00558,
.05315,-.00558,
.052981,-.007516,
.052478,-.009394,
.051656,-.011155,
.050541,-.012747,
.049167,-.014121,
.047575,-.015236,
.045814,-.016058,
.043936,-.016561,
.042,-.01673,
-.042,-.01673,
-.043936,-.016561,
-.045814,-.016058,
-.047575,-.015236,
-.049167,-.014121,
-.050541,-.012747,
-.051656,-.011155,
-.052478,-.009394,
-.052981,-.007516,
-.05315,-.00558,
-.05315,.00558,
-.052981,.007516,
-.052478,.009394,
-.051656,.011155,
-.050541,.012747,
-.049167,.014121,
-.047575,.015236,
-.045814,.016058,
-.043936,.016561,
-.042,.01673,
.042,.01673,
.043936,.016561,
.045814,.016058,
.047575,.015236,
.049167,.014121,
.050541,.012747,
.051656,.011155,
.052478,.009394,
.052981,.007516,
.05315,.00558,
0.0*
%
%ADD13MACRO13*%
%ADD26C,.093*%
%AMMACRO32*
4,1,40,.00709,-.01181,
-.00709,-.01181,
-.00791,-.011738,
-.008704,-.011525,
-.00945,-.011178,
-.010124,-.010706,
-.010706,-.010124,
-.011178,-.00945,
-.011525,-.008704,
-.011738,-.00791,
-.01181,-.00709,
-.01181,.00709,
-.011738,.00791,
-.011525,.008704,
-.011178,.00945,
-.010706,.010124,
-.010124,.010706,
-.00945,.011178,
-.008704,.011525,
-.00791,.011738,
-.00709,.01181,
.00709,.01181,
.00791,.011738,
.008704,.011525,
.00945,.011178,
.010124,.010706,
.010706,.010124,
.011178,.00945,
.011525,.008704,
.011738,.00791,
.01181,.00709,
.01181,-.00709,
.011738,-.00791,
.011525,-.008704,
.011178,-.00945,
.010706,-.010124,
.010124,-.010706,
.00945,-.011178,
.008704,-.011525,
.00791,-.011738,
.00709,-.01181,
0.0*
%
%ADD32MACRO32*%
%AMMACRO21*
4,1,40,.01181,.00709,
.01181,-.00709,
.011738,-.00791,
.011525,-.008704,
.011178,-.00945,
.010706,-.010124,
.010124,-.010706,
.00945,-.011178,
.008704,-.011525,
.00791,-.011738,
.00709,-.01181,
-.00709,-.01181,
-.00791,-.011738,
-.008704,-.011525,
-.00945,-.011178,
-.010124,-.010706,
-.010706,-.010124,
-.011178,-.00945,
-.011525,-.008704,
-.011738,-.00791,
-.01181,-.00709,
-.01181,.00709,
-.011738,.00791,
-.011525,.008704,
-.011178,.00945,
-.010706,.010124,
-.010124,.010706,
-.00945,.011178,
-.008704,.011525,
-.00791,.011738,
-.00709,.01181,
.00709,.01181,
.00791,.011738,
.008704,.011525,
.00945,.011178,
.010124,.010706,
.010706,.010124,
.011178,.00945,
.011525,.008704,
.011738,.00791,
.01181,.00709,
0.0*
%
%ADD21MACRO21*%
%AMMACRO23*
4,1,44,.00787,-.02165,
-.00787,-.02165,
-.008554,-.021595,
-.009218,-.021417,
-.00984,-.021127,
-.010403,-.020733,
-.010888,-.020248,
-.011282,-.019685,
-.011572,-.019063,
-.01175,-.018399,
-.01181,-.017715,
-.01181,-.01771,
-.01181,.01771,
-.011751,.018394,
-.011574,.019058,
-.011285,.019681,
-.010891,.020244,
-.010406,.02073,
-.009844,.021125,
-.009222,.021416,
-.008559,.021594,
-.007875,.021655,
-.00787,.02165,
.00787,.02165,
.008554,.021595,
.009218,.021417,
.00984,.021127,
.010403,.020733,
.010888,.020248,
.011282,.019685,
.011572,.019063,
.01175,.018399,
.01181,.017715,
.01181,.01771,
.01181,-.01771,
.011751,-.018394,
.011574,-.019058,
.011285,-.019681,
.010891,-.020244,
.010406,-.02073,
.009844,-.021125,
.009222,-.021416,
.008559,-.021594,
.007875,-.021655,
.00787,-.02165,
0.0*
%
%ADD23MACRO23*%
%ADD29C,.03937*%
%AMMACRO25*
4,1,40,.01378,.0059,
.01378,-.0059,
.01369,-.006926,
.013424,-.007921,
.012988,-.008855,
.012397,-.009699,
.011669,-.010427,
.010825,-.011018,
.009891,-.011454,
.008896,-.01172,
.00787,-.01181,
-.00787,-.01181,
-.008896,-.01172,
-.009891,-.011454,
-.010825,-.011018,
-.011669,-.010427,
-.012397,-.009699,
-.012988,-.008855,
-.013424,-.007921,
-.01369,-.006926,
-.01378,-.0059,
-.01378,.0059,
-.01369,.006926,
-.013424,.007921,
-.012988,.008855,
-.012397,.009699,
-.011669,.010427,
-.010825,.011018,
-.009891,.011454,
-.008896,.01172,
-.00787,.01181,
.00787,.01181,
.008896,.01172,
.009891,.011454,
.010825,.011018,
.011669,.010427,
.012397,.009699,
.012988,.008855,
.013424,.007921,
.01369,.006926,
.01378,.0059,
0.0*
%
%ADD25MACRO25*%
%AMMACRO30*
4,1,40,-.01654,.02362,
.01654,.02362,
.018796,.023423,
.020983,.022837,
.023035,.02188,
.02489,.020581,
.026491,.01898,
.02779,.017125,
.028747,.015073,
.029333,.012886,
.02953,.01063,
.02953,-.01063,
.029333,-.012886,
.028747,-.015073,
.02779,-.017125,
.026491,-.01898,
.02489,-.020581,
.023035,-.02188,
.020983,-.022837,
.018796,-.023423,
.01654,-.02362,
-.01654,-.02362,
-.018796,-.023423,
-.020983,-.022837,
-.023035,-.02188,
-.02489,-.020581,
-.026491,-.01898,
-.02779,-.017125,
-.028747,-.015073,
-.029333,-.012886,
-.02953,-.01063,
-.02953,.01063,
-.029333,.012886,
-.028747,.015073,
-.02779,.017125,
-.026491,.01898,
-.02489,.020581,
-.023035,.02188,
-.020983,.022837,
-.018796,.023423,
-.01654,.02362,
0.0*
%
%ADD30MACRO30*%
%ADD10O,.08X.068*%
%AMMACRO27*
4,1,40,.0385,.0063,
.0385,-.0063,
.038307,-.008505,
.037734,-.010644,
.036799,-.01265,
.035529,-.014463,
.033963,-.016029,
.03215,-.017299,
.030144,-.018234,
.028005,-.018807,
.0258,-.019,
-.0258,-.019,
-.028005,-.018807,
-.030144,-.018234,
-.03215,-.017299,
-.033963,-.016029,
-.035529,-.014463,
-.036799,-.01265,
-.037734,-.010644,
-.038307,-.008505,
-.0385,-.0063,
-.0385,.0063,
-.038307,.008505,
-.037734,.010644,
-.036799,.01265,
-.035529,.014463,
-.033963,.016029,
-.03215,.017299,
-.030144,.018234,
-.028005,.018807,
-.0258,.019,
.0258,.019,
.028005,.018807,
.030144,.018234,
.03215,.017299,
.033963,.016029,
.035529,.014463,
.036799,.01265,
.037734,.010644,
.038307,.008505,
.0385,.0063,
0.0*
%
%ADD27MACRO27*%
%ADD12R,.08X.068*%
%AMMACRO20*
4,1,40,-.01181,-.00709,
-.01181,.00709,
-.011738,.00791,
-.011525,.008704,
-.011178,.00945,
-.010706,.010124,
-.010124,.010706,
-.00945,.011178,
-.008704,.011525,
-.00791,.011738,
-.00709,.01181,
.00709,.01181,
.00791,.011738,
.008704,.011525,
.00945,.011178,
.010124,.010706,
.010706,.010124,
.011178,.00945,
.011525,.008704,
.011738,.00791,
.01181,.00709,
.01181,-.00709,
.011738,-.00791,
.011525,-.008704,
.011178,-.00945,
.010706,-.010124,
.010124,-.010706,
.00945,-.011178,
.008704,-.011525,
.00791,-.011738,
.00709,-.01181,
-.00709,-.01181,
-.00791,-.011738,
-.008704,-.011525,
-.00945,-.011178,
-.010124,-.010706,
-.010706,-.010124,
-.011178,-.00945,
-.011525,-.008704,
-.011738,-.00791,
-.01181,-.00709,
0.0*
%
%ADD20MACRO20*%
%AMMACRO16*
4,1,40,-.00709,.01181,
.00709,.01181,
.00791,.011738,
.008704,.011525,
.00945,.011178,
.010124,.010706,
.010706,.010124,
.011178,.00945,
.011525,.008704,
.011738,.00791,
.01181,.00709,
.01181,-.00709,
.011738,-.00791,
.011525,-.008704,
.011178,-.00945,
.010706,-.010124,
.010124,-.010706,
.00945,-.011178,
.008704,-.011525,
.00791,-.011738,
.00709,-.01181,
-.00709,-.01181,
-.00791,-.011738,
-.008704,-.011525,
-.00945,-.011178,
-.010124,-.010706,
-.010706,-.010124,
-.011178,-.00945,
-.011525,-.008704,
-.011738,-.00791,
-.01181,-.00709,
-.01181,.00709,
-.011738,.00791,
-.011525,.008704,
-.011178,.00945,
-.010706,.010124,
-.010124,.010706,
-.00945,.011178,
-.008704,.011525,
-.00791,.011738,
-.00709,.01181,
0.0*
%
%ADD16MACRO16*%
%AMMACRO18*
4,1,40,-.0187,-.00787,
-.0187,.00787,
-.01864,.008554,
-.018462,.009218,
-.018172,.00984,
-.017778,.010403,
-.017293,.010888,
-.01673,.011282,
-.016108,.011572,
-.015444,.01175,
-.01476,.01181,
.01476,.01181,
.015444,.01175,
.016108,.011572,
.01673,.011282,
.017293,.010888,
.017778,.010403,
.018172,.00984,
.018462,.009218,
.01864,.008554,
.0187,.00787,
.0187,-.00787,
.01864,-.008554,
.018462,-.009218,
.018172,-.00984,
.017778,-.010403,
.017293,-.010888,
.01673,-.011282,
.016108,-.011572,
.015444,-.01175,
.01476,-.01181,
-.01476,-.01181,
-.015444,-.01175,
-.016108,-.011572,
-.01673,-.011282,
-.017293,-.010888,
-.017778,-.010403,
-.018172,-.00984,
-.018462,-.009218,
-.01864,-.008554,
-.0187,-.00787,
0.0*
%
%ADD18MACRO18*%
%ADD28R,.06693X.03543*%
%AMMACRO24*
4,1,40,-.0059,.01378,
.0059,.01378,
.006926,.01369,
.007921,.013424,
.008855,.012988,
.009699,.012397,
.010427,.011669,
.011018,.010825,
.011454,.009891,
.01172,.008896,
.01181,.00787,
.01181,-.00787,
.01172,-.008896,
.011454,-.009891,
.011018,-.010825,
.010427,-.011669,
.009699,-.012397,
.008855,-.012988,
.007921,-.013424,
.006926,-.01369,
.0059,-.01378,
-.0059,-.01378,
-.006926,-.01369,
-.007921,-.013424,
-.008855,-.012988,
-.009699,-.012397,
-.010427,-.011669,
-.011018,-.010825,
-.011454,-.009891,
-.01172,-.008896,
-.01181,-.00787,
-.01181,.00787,
-.01172,.008896,
-.011454,.009891,
-.011018,.010825,
-.010427,.011669,
-.009699,.012397,
-.008855,.012988,
-.007921,.013424,
-.006926,.01369,
-.0059,.01378,
0.0*
%
%ADD24MACRO24*%
%ADD15R,.03543X.06693*%
%ADD19R,.05709X.03937*%
%ADD22R,.03937X.05709*%
%AMMACRO14*
4,1,40,.02362,.01654,
.02362,-.01654,
.023423,-.018796,
.022837,-.020983,
.02188,-.023035,
.020581,-.02489,
.01898,-.026491,
.017125,-.02779,
.015073,-.028747,
.012886,-.029333,
.01063,-.02953,
-.01063,-.02953,
-.012886,-.029333,
-.015073,-.028747,
-.017125,-.02779,
-.01898,-.026491,
-.020581,-.02489,
-.02188,-.023035,
-.022837,-.020983,
-.023423,-.018796,
-.02362,-.01654,
-.02362,.01654,
-.023423,.018796,
-.022837,.020983,
-.02188,.023035,
-.020581,.02489,
-.01898,.026491,
-.017125,.02779,
-.015073,.028747,
-.012886,.029333,
-.01063,.02953,
.01063,.02953,
.012886,.029333,
.015073,.028747,
.017125,.02779,
.01898,.026491,
.020581,.02489,
.02188,.023035,
.022837,.020983,
.023423,.018796,
.02362,.01654,
0.0*
%
%ADD14MACRO14*%
%ADD33C,.03*%
%ADD34C,.014*%
%ADD35C,.025*%
%ADD36C,.006*%
%ADD37C,.007*%
%ADD38C,.04004*%
G75*
%LPD*%
G75*
G36*
G01X13500Y23500D02*
X28500D01*
X30000Y22000D01*
X31318D01*
Y20354D01*
G03X32291Y19380I974J0D01*
G01X33709D01*
G03X34682Y20354I0J973D01*
G01Y21772D01*
Y22000D01*
X35000D01*
X36000Y23000D01*
X45000D01*
X46000Y22000D01*
Y18000D01*
X45000Y17000D01*
X24000D01*
Y12500D01*
X13500D01*
Y23500D01*
G37*
G36*
G01X16000Y36000D02*
X25000D01*
X28000Y33500D01*
X45000D01*
X45500Y33000D01*
Y32181D01*
G02X44820Y31895I-400J0D01*
G03X43580Y32402I-1241J-1265D01*
G01X38420D01*
G03X36648Y30630I0J-1772D01*
G01Y29370D01*
G03X38420Y27598I1772J0D01*
G01X40000D01*
Y26000D01*
X37000D01*
X35365Y24365D01*
G02X34682Y24648I-283J283D01*
G01Y25709D01*
G03X33709Y26682I-973J0D01*
G01X32291D01*
G03X31318Y25709I0J-973D01*
G01Y24648D01*
G02X30635Y24365I-400J0D01*
G01X30000Y25000D01*
X29485D01*
G02X29173Y25651I-1J400D01*
G03X29372Y26213I-697J563D01*
G01Y27787D01*
G03X28476Y28682I-895J0D01*
G01X25524D01*
G03X24628Y27787I0J-896D01*
G01Y26213D01*
G03X24827Y25651I896J1D01*
G02X24515Y25000I-311J-251D01*
G01X13500D01*
Y34000D01*
X16000Y36000D01*
G37*
G36*
G01X24145Y67010D02*
X28527D01*
G02X28669Y66669I0J-200D01*
G01X28500Y66500D01*
X14000D01*
Y94000D01*
X8000Y100000D01*
Y123500D01*
X9000Y124500D01*
X20000D01*
X22500Y127000D01*
X36000D01*
X37500Y125500D01*
Y120500D01*
X36000Y119000D01*
X29000D01*
X28000Y118000D01*
Y117421D01*
X27978Y117378D01*
G03X27933Y117281I1313J-668D01*
G02X27582Y117248I-184J78D01*
G03X26772Y117682I-810J-539D01*
G01X25354D01*
G03X24380Y116709I0J-974D01*
G01Y115291D01*
G03X25352Y114318I973J0D01*
G01X26772D01*
G03X27582Y114752I0J973D01*
G02X27933Y114719I167J-111D01*
G03X27978Y114622I1358J571D01*
G01X28000Y114579D01*
Y113500D01*
X29500Y112000D01*
Y93500D01*
X32500Y90500D01*
X40500D01*
Y96000D01*
X41152D01*
Y92228D01*
G03X41653Y91727I502J1D01*
G01X48347D01*
G03X48848Y92228I-1J501D01*
G01Y96000D01*
X49500D01*
Y90500D01*
X53000D01*
X57000Y94500D01*
Y120000D01*
X58500Y121500D01*
X70500D01*
X72500Y123500D01*
Y127000D01*
X73500Y128000D01*
X85500D01*
Y119500D01*
X78000D01*
Y118421D01*
X77978Y118378D01*
G03X77933Y118281I1313J-668D01*
G02X77582Y118248I-184J78D01*
G03X76772Y118682I-810J-539D01*
G01X75354D01*
G03X74380Y117709I0J-974D01*
G01Y116291D01*
G03X75352Y115318I973J0D01*
G01X76772D01*
G03X77582Y115752I0J973D01*
G02X77933Y115719I167J-111D01*
G03X77978Y115622I1358J571D01*
G01X78000Y115579D01*
Y113500D01*
X78500Y113000D01*
Y96326D01*
G02X78000Y95939I-400J0D01*
G03X77503Y96002I-498J-1939D01*
G01X77500D01*
G03Y91998I0J-2002D01*
G01X77503D01*
G03X78000Y92061I-1J2002D01*
G02X78500Y91674I100J-387D01*
G01Y91000D01*
X86000Y83500D01*
Y55500D01*
X79000Y48500D01*
X65000D01*
X47000Y66500D01*
X46326D01*
G03X43674I-1326J-1500D01*
G01X42389D01*
G03X39737I-1326J-1500D01*
G01X37500D01*
X36000Y68000D01*
X34921D01*
X34878Y68022D01*
G03X34781Y68067I-668J-1313D01*
G02X34748Y68418I78J184D01*
G03X35182Y69228I-539J810D01*
G01Y70646D01*
G03X34209Y71620I-974J0D01*
G01X32791D01*
G03X31818Y70648I0J-973D01*
G01Y69228D01*
G03X32252Y68418I973J0D01*
G02X32219Y68067I-111J-167D01*
G03X32122Y68022I571J-1358D01*
G01X32079Y68000D01*
X30356D01*
Y71449D01*
G03X29855Y71950I-501J-1D01*
G01X24145D01*
G03X23644Y71449I1J-501D01*
G01Y67511D01*
G03X24145Y67010I502J1D01*
G37*
G36*
G01X35182Y65852D02*
G02X35865Y66135I400J0D01*
G01X39000Y63000D01*
X40978D01*
G03X41063Y62998I90J2000D01*
G03X41148Y63000I-5J2002D01*
G01X46500D01*
Y56000D01*
X16500D01*
X14000Y58500D01*
Y65000D01*
X31000D01*
X31190Y65190D01*
G02X31856Y65019I282J-283D01*
G03X32791Y64318I935J273D01*
G01X34209D01*
G03X35182Y65291I0J973D01*
G01Y65852D01*
G37*
G36*
G01X12000Y142000D02*
X18500D01*
X22500Y138000D01*
X27238D01*
Y136666D01*
X25213D01*
G03X24318Y135771I0J-895D01*
G01Y132229D01*
G03X25213Y131334I895J0D01*
G01X26787D01*
G03X27003Y131360I2J895D01*
G02X27500Y130972I97J-388D01*
G01Y130000D01*
X23500D01*
X21000Y127500D01*
X9000D01*
X8000Y128500D01*
Y133000D01*
X11000Y136000D01*
Y141000D01*
X12000Y142000D01*
G37*
G36*
G01X24000Y185000D02*
X32000D01*
Y163500D01*
X25003Y156503D01*
X24925Y156500D01*
G03X22998Y154500I74J-2000D01*
G03X24364Y152602I2002J0D01*
G01X24500Y152557D01*
Y145500D01*
X26500Y143500D01*
X31998D01*
Y142526D01*
X31978Y142484D01*
G03X31818Y141787I1432J-696D01*
G01Y141596D01*
X31787Y141547D01*
G03X31478Y140480I1693J-1068D01*
G01Y136460D01*
X31456Y136417D01*
G03X31298Y135771I1237J-645D01*
G01Y132229D01*
G03X32000Y131018I1396J0D01*
G01Y130000D01*
X28502D01*
Y139002D01*
X23498D01*
X19000Y143500D01*
Y151500D01*
X17500Y153000D01*
Y162000D01*
X19500Y164000D01*
X22000D01*
X24000Y166000D01*
Y185000D01*
G37*
G36*
G01X61311Y138500D02*
X76500D01*
Y138028D01*
G02X76003Y137640I-400J0D01*
G03X75787Y137666I-214J-869D01*
G01X74213D01*
G03X73318Y136771I0J-895D01*
G01Y133229D01*
G03X74213Y132334I895J0D01*
G01X75787D01*
G03X76003Y132360I2J895D01*
G02X76500Y131972I97J-388D01*
G01Y130500D01*
X72500D01*
X71000Y129000D01*
Y125500D01*
X69500Y124000D01*
X58500D01*
X56500Y126000D01*
Y136500D01*
X58007Y138007D01*
X58148Y137878D01*
G03X59500Y137352I1352J1476D01*
G03X61311Y138500I0J2002D01*
G37*
G36*
G01X60500Y161000D02*
X73500D01*
X74000Y160500D01*
Y157926D01*
G02X73393Y157584I-400J0D01*
G03X72558Y157816I-834J-1384D01*
G01X71442D01*
G03X69826Y156200I0J-1616D01*
G01Y147800D01*
G03X71442Y146184I1616J0D01*
G01X72558D01*
G03X73393Y146416I1J1616D01*
G02X74000Y146074I207J-342D01*
G01Y144500D01*
X73500Y144000D01*
X59500D01*
X58500Y145000D01*
Y151500D01*
X59000Y152000D01*
Y159500D01*
X60500Y161000D01*
G37*
G36*
G01X64500Y188000D02*
X72500D01*
Y168000D01*
X73000Y167500D01*
X77000D01*
X79000Y165500D01*
Y146500D01*
X81000Y144500D01*
Y143529D01*
X80980Y143487D01*
G03X80818Y142787I1431J-700D01*
G01Y142596D01*
X80787Y142547D01*
G03X80478Y141480I1693J-1068D01*
G01Y137460D01*
X80456Y137417D01*
G03X80298Y136771I1237J-645D01*
G01Y133229D01*
G03X81000Y132018I1396J0D01*
G01Y130500D01*
X77502D01*
Y139502D01*
X76998D01*
X75000Y141500D01*
Y144084D01*
X75002Y144085D01*
Y160915D01*
X75000Y160916D01*
Y161000D01*
X73500Y162500D01*
X69500D01*
X64500Y167500D01*
Y188000D01*
G37*
%LPC*%
G75*
G36*
G01X43580Y22402D02*
G02X45352Y20630I0J-1772D01*
G01Y19370D01*
G02X43580Y17598I-1772J0D01*
G01X38420D01*
G02X36648Y19370I0J1772D01*
G01Y20630D01*
G02X38420Y22402I1772J0D01*
G01X43580D01*
G37*
G36*
G01X14644Y18552D02*
Y22488D01*
G02X15146Y22990I501J1D01*
G01X20854D01*
G02X21356Y22488I0J-502D01*
G01Y18552D01*
G02X20854Y18050I-502J-1D01*
G01X15146D01*
G02X14644Y18552I-1J501D01*
G37*
G36*
G01X25524Y18818D02*
G02X24628Y19713I-1J895D01*
G01Y21287D01*
G02X25524Y22182I896J-1D01*
G01X28476D01*
G02X29372Y21287I1J-895D01*
G01Y19713D01*
G02X28476Y18818I-896J1D01*
G01X25524D01*
G37*
G36*
G01X14644Y26426D02*
Y30362D01*
G02X15146Y30864I501J1D01*
G01X20854D01*
G02X21356Y30362I0J-501D01*
G01Y26426D01*
G02X20854Y25924I-502J0D01*
G01X15146D01*
G02X14644Y26426I-1J501D01*
G37*
G36*
G01Y67512D02*
Y71448D01*
G02X15146Y71950I501J1D01*
G01X20854D01*
G02X21356Y71448I0J-501D01*
G01Y67512D01*
G02X20854Y67010I-502J-1D01*
G01X15146D01*
G02X14644Y67512I-1J501D01*
G37*
G36*
G01X43580Y72402D02*
G02X45352Y70630I0J-1772D01*
G01Y69370D01*
G02X43580Y67598I-1772J0D01*
G01X38420D01*
G02X36648Y69370I0J1772D01*
G01Y70630D01*
G02X38420Y72402I1772J0D01*
G01X43580D01*
G37*
G36*
G01Y82902D02*
G02X45852Y80630I0J-2272D01*
G01Y79370D01*
G02X43580Y77098I-2272J0D01*
G01X38420D01*
G02X36148Y79370I0J2272D01*
G01Y80630D01*
G02X38420Y82902I2272J0D01*
G01X43580D01*
G37*
G36*
G01X79880D02*
G02X82152Y80630I0J-2272D01*
G01Y79370D01*
G02X79880Y77098I-2272J0D01*
G01X74720D01*
G02X72448Y79370I0J2272D01*
G01Y80630D01*
G02X74720Y82902I2272J0D01*
G01X79880D01*
G37*
G36*
G01X23050Y97146D02*
Y102854D01*
G02X23552Y103356I501J1D01*
G01X27488D01*
G02X27990Y102854I0J-501D01*
G01Y97146D01*
G02X27488Y96644I-501J-1D01*
G01X23552D01*
G02X23050Y97146I-1J501D01*
G37*
G36*
G01Y106146D02*
Y111854D01*
G02X23552Y112356I501J1D01*
G01X27488D01*
G02X27990Y111854I0J-501D01*
G01Y106146D01*
G02X27488Y105644I-501J-1D01*
G01X23552D01*
G02X23050Y106146I-1J501D01*
G37*
G36*
G01X72050Y97146D02*
Y102854D01*
G02X72552Y103356I501J1D01*
G01X76488D01*
G02X76990Y102854I1J-501D01*
G01Y97146D01*
G02X76488Y96644I-501J-1D01*
G01X72552D01*
G02X72050Y97146I0J501D01*
G37*
G36*
G01Y107146D02*
Y112854D01*
G02X72552Y113356I501J1D01*
G01X76488D01*
G02X76990Y112854I1J-501D01*
G01Y107146D01*
G02X76488Y106644I-501J-1D01*
G01X72552D01*
G02X72050Y107146I0J501D01*
G37*
G36*
G01X19200Y123174D02*
G02X20816Y121558I0J-1616D01*
G01Y120442D01*
G02X19200Y118826I-1616J0D01*
G01X10800D01*
G02X9184Y120442I0J1616D01*
G01Y121558D01*
G02X10800Y123174I1616J0D01*
G01X19200D01*
G37*
G36*
G01X27682Y121009D02*
G02X26787Y120114I-895J0D01*
G01X25213D01*
G02X24318Y121009I0J895D01*
G01Y124551D01*
G02X25213Y125446I895J0D01*
G01X26787D01*
G02X27682Y124551I0J-895D01*
G01Y121009D01*
G37*
G36*
G01X35162D02*
G02X34267Y120114I-895J0D01*
G01X32693D01*
G02X31798Y121009I0J895D01*
G01Y124551D01*
G02X32693Y125446I895J0D01*
G01X34267D01*
G02X35162Y124551I0J-895D01*
G01Y121009D01*
G37*
G36*
G01X68200Y120174D02*
G02X69816Y118558I0J-1616D01*
G01Y117442D01*
G02X68200Y115826I-1616J0D01*
G01X59800D01*
G02X58184Y117442I0J1616D01*
G01Y118558D01*
G02X59800Y120174I1616J0D01*
G01X68200D01*
G37*
G36*
G01X76682Y122009D02*
G02X75787Y121114I-895J0D01*
G01X74213D01*
G02X73318Y122009I0J895D01*
G01Y125551D01*
G02X74213Y126446I895J0D01*
G01X75787D01*
G02X76682Y125551I0J-895D01*
G01Y122009D01*
G37*
G36*
G01X84162D02*
G02X83267Y121114I-895J0D01*
G01X81693D01*
G02X80798Y122009I0J895D01*
G01Y125551D01*
G02X81693Y126446I895J0D01*
G01X83267D01*
G02X84162Y125551I0J-895D01*
G01Y122009D01*
G37*
G36*
G01X61998Y58000D02*
G02X62708Y59529I2001J0D01*
G03X62738Y60112I-258J306D01*
G02X62179Y61500I1444J1388D01*
G02X66183I2002J0D01*
G02X65473Y59971I-2001J0D01*
G03X65443Y59388I258J-306D01*
G02X66002Y58000I-1444J-1388D01*
G02X61998I-2002J0D01*
G37*
G36*
G01X43580Y62402D02*
G02X45352Y60630I0J-1772D01*
G01Y59370D01*
G02X43580Y57598I-1772J0D01*
G01X38420D01*
G02X36648Y59370I0J1772D01*
G01Y60630D01*
G02X38420Y62402I1772J0D01*
G01X43580D01*
G37*
G36*
G01X14644Y59638D02*
Y63574D01*
G02X15146Y64076I501J1D01*
G01X20854D01*
G02X21356Y63574I0J-501D01*
G01Y59638D01*
G02X20854Y59136I-502J-1D01*
G01X15146D01*
G02X14644Y59638I-1J501D01*
G37*
G36*
G01X23644D02*
Y63574D01*
G02X24146Y64076I502J1D01*
G01X29854D01*
G02X30356Y63574I0J-501D01*
G01Y59638D01*
G02X29854Y59136I-501J-1D01*
G01X24146D01*
G02X23644Y59638I0J501D01*
G37*
G36*
G01X19200Y133018D02*
G02X20816Y131401I-1J-1617D01*
G01Y130285D01*
G02X19200Y128668I-1616J-1D01*
G01X10800D01*
G02X9184Y130285I1J1617D01*
G01Y131401D01*
G02X10800Y133018I1616J1D01*
G01X19200D01*
G37*
G36*
G01X16063Y141454D02*
G02X17864Y139654I1J-1800D01*
G01Y136346D01*
G02X16063Y134546I-1801J1D01*
G01X13937D01*
G02X12136Y136346I-1J1800D01*
G01Y139654D01*
G02X13937Y141454I1801J-1D01*
G01X16063D01*
G37*
G36*
G01X68200Y130018D02*
G02X69816Y128401I-1J-1617D01*
G01Y127285D01*
G02X68200Y125668I-1616J-1D01*
G01X59800D01*
G02X58184Y127285I1J1617D01*
G01Y128401D01*
G02X59800Y130018I1616J1D01*
G01X68200D01*
G37*
G36*
G01X60152Y133024D02*
Y136566D01*
G02X60654Y137068I501J0D01*
G01X67346D01*
G02X67848Y136566I1J-502D01*
G01Y133024D01*
G02X67346Y132522I-501J-1D01*
G01X60654D01*
G02X60152Y133024I-1J501D01*
G37*
G36*
G01X60546Y157563D02*
G02X62346Y159364I1800J1D01*
G01X65654D01*
G02X67454Y157563I-1J-1801D01*
G01Y155437D01*
G02X65654Y153636I-1800J-1D01*
G01X62346D01*
G02X60546Y155437I1J1801D01*
G01Y157563D01*
G37*
G36*
G01X60152Y146016D02*
Y149558D01*
G02X60654Y150060I501J1D01*
G01X67346D01*
G02X67848Y149558I1J-501D01*
G01Y146016D01*
G02X67346Y145514I-501J-1D01*
G01X60654D01*
G02X60152Y146016I-1J501D01*
G37*
G54D38*
X20500Y109500D03*
X60500Y99500D03*
X64500Y95500D03*
Y87000D03*
X60500Y91500D03*
X44500Y86000D03*
X28000Y82500D03*
X17500Y74819D03*
X60500Y65000D03*
X12500Y113000D03*
%LPD*%
G75*
G54D10*
X5000Y15000D03*
Y25000D03*
Y35000D03*
Y45000D03*
Y55000D03*
Y65000D03*
Y75000D03*
X95000Y15000D03*
Y35000D03*
Y25000D03*
Y55000D03*
Y45000D03*
Y75000D03*
Y65000D03*
G54D20*
X33000Y21063D03*
Y25000D03*
G54D11*
G01X33500Y94500D02*
Y96894D01*
G01X33480Y134000D02*
Y140480D01*
X34000Y141000D01*
G01X35500Y146000D02*
X31000D01*
G01X34000Y141000D02*
Y144000D01*
X35500Y145500D01*
Y146000D01*
G01X51000Y116500D02*
Y113500D01*
X48500Y111000D01*
X43500D01*
X40000Y114500D01*
Y142500D01*
X42000Y144500D01*
Y155500D01*
X39500Y158000D01*
X33000D01*
X29500Y154500D01*
X25000D01*
G01X53000Y107000D02*
X50500D01*
X50098Y106598D01*
X45000D01*
G01X44000Y117000D02*
Y139000D01*
X46000Y141000D01*
Y156500D01*
X49500Y160000D01*
G01X54000Y156500D02*
X51500D01*
X49500Y154500D01*
Y153500D01*
G01X55681Y25000D02*
X66000D01*
X72000Y31000D01*
G01X71000Y36500D02*
Y42000D01*
G01X72000Y31000D02*
Y33500D01*
X71000Y34500D01*
Y36500D01*
G01X77300Y20000D02*
X85000D01*
G01X82394Y100000D02*
Y94106D01*
G01Y110000D02*
Y100000D01*
G01X80000Y117000D02*
Y116855D01*
X82500Y114355D01*
Y110106D01*
X82394Y110000D01*
G01X82480Y135000D02*
Y141480D01*
X83000Y142000D01*
G01X89500D02*
X83000D01*
G01X89500D02*
X94000D01*
G01Y145937D02*
X89500D01*
X16000Y15000D03*
X12500Y113000D03*
X9000Y146000D03*
X5063Y146063D03*
X5000Y136500D03*
X19500Y15000D03*
X22000Y33500D03*
X17000D03*
X22000Y38500D03*
Y54000D03*
X16500Y58000D03*
X19500D03*
X17500Y74819D03*
X28000Y82500D03*
X33500Y94500D03*
X20500Y109500D03*
X27000Y148500D03*
X22000Y147681D03*
X25000Y154500D03*
X21000Y168500D03*
X34000Y153000D03*
X22500Y161500D03*
X21000Y177500D03*
X29500Y183000D03*
X26000D03*
X45323Y13323D03*
X49000Y29000D03*
X35500Y36000D03*
X41063Y65000D03*
X45000D03*
X44500Y86000D03*
X51500Y97500D03*
X53000Y107000D03*
X44000Y117000D03*
X51000Y116500D03*
X37000Y130000D03*
Y116500D03*
X54250Y115750D03*
X38282Y152719D03*
X50000Y149563D03*
X49500Y160000D03*
X53500Y170500D03*
X49500Y153500D03*
X41437Y173063D03*
X41500Y177000D03*
X66000Y6000D03*
X55681Y25000D03*
X72000Y31000D03*
X71000Y36500D03*
X64500Y32000D03*
X69000Y51500D03*
X71000Y42000D03*
X60500Y65000D03*
X64000Y58000D03*
X64181Y61500D03*
X60500Y91500D03*
X64500Y87000D03*
Y95500D03*
X60500Y99500D03*
X59500Y139354D03*
X62500Y172000D03*
X56000Y182500D03*
X85000Y20000D03*
X77500Y94000D03*
X82394Y94106D03*
X87500Y109500D03*
X88000Y124500D03*
X76000Y143000D03*
X88000Y135500D03*
X90000Y154000D03*
X75000Y171000D03*
X87000Y170000D03*
X88394Y166500D03*
X74500Y164500D03*
X77500Y154000D03*
X92000Y189500D03*
G54D12*
X5000Y85000D03*
X95000D03*
G54D30*
X54000Y156500D03*
X64000D03*
G54D21*
X33500Y69937D03*
Y66000D03*
X31000Y149937D03*
Y146000D03*
X94000Y145937D03*
Y142000D03*
G54D22*
X25520Y100000D03*
X33394D03*
X25520Y109000D03*
X33394D03*
X74520Y100000D03*
Y110000D03*
X82394Y100000D03*
Y110000D03*
G54D13*
X15000Y130843D03*
Y121000D03*
X64000Y127843D03*
Y118000D03*
G54D31*
X72000Y152000D03*
X81843D03*
G54D14*
X15000Y148000D03*
Y138000D03*
G54D23*
X26000Y122780D03*
X33480D03*
Y134000D03*
X29740D03*
X26000D03*
X75000Y123780D03*
X82480D03*
Y135000D03*
X78740D03*
X75000D03*
G54D32*
X81937Y160500D03*
X78000D03*
X81937Y164500D03*
X78000D03*
G54D33*
G01X29740Y134000D02*
Y140677D01*
X30063Y141000D01*
G01X26000D02*
X30063D01*
G54D15*
X14795Y167000D03*
Y177500D03*
X27787Y167000D03*
Y177500D03*
X68713Y172000D03*
Y182500D03*
X81705Y172000D03*
Y182500D03*
G54D24*
X30063Y141000D03*
X34000D03*
X79063Y142000D03*
X83000D03*
G54D34*
G01X22000Y38500D02*
X20444Y40056D01*
Y40156D01*
X5600Y55000D01*
X5000D01*
G01X35500Y36000D02*
X32000D01*
X11000Y57000D01*
Y59600D01*
X5600Y65000D01*
X5000D01*
G54D16*
X15063Y155500D03*
Y159500D03*
X26063Y116000D03*
X30000D03*
X19000Y155500D03*
Y159500D03*
X76063Y117000D03*
X80000D03*
G54D25*
X35500Y149937D03*
Y146000D03*
X89500Y145937D03*
Y142000D03*
G54D35*
G01X15063Y155500D02*
X15000Y155437D01*
Y148000D01*
G01X14795Y177500D02*
Y167000D01*
G01D02*
X15063Y166732D01*
Y159500D01*
G01X21000Y168500D02*
X16295D01*
X14795Y167000D01*
G01X15063Y159500D02*
Y155500D01*
G01X14795Y177500D02*
X21000D01*
G01X33500Y96894D02*
X33394Y97000D01*
Y100000D01*
G01Y109000D02*
Y100000D01*
G01X30000Y116000D02*
X33394Y112606D01*
Y109000D01*
G01X31000Y149937D02*
X35500D01*
G01D02*
X38282Y152719D01*
G01X68713Y172000D02*
X62500D01*
G01X81937Y160500D02*
X81843Y160406D01*
Y152000D01*
G01X81705Y172000D02*
X81937Y171768D01*
Y164500D01*
G01X81705Y172000D02*
Y182500D01*
G01X81937Y164500D02*
Y160500D01*
G01X81705Y182500D02*
X78433D01*
X75000Y179067D01*
Y171000D01*
G01X85500Y182500D02*
X87000Y181000D01*
Y170000D01*
G01X81705Y182500D02*
X85500D01*
G01X94000Y145937D02*
Y178001D01*
X89501Y182500D01*
X85500D01*
G54D26*
X29000Y204000D03*
X48685D03*
X68370D03*
G54D17*
X10000Y217000D03*
X85000Y7500D03*
X90500Y217000D03*
G54D36*
G01X14443Y28394D02*
X18000D01*
G01X14443Y20520D02*
X18000D01*
G01X14443Y69480D02*
X18000D01*
G01X14443Y61606D02*
X18000D01*
G01X8983Y121000D02*
X15000D01*
G01D02*
X21017D01*
G01X15000Y118625D02*
Y121000D01*
G01D02*
Y123375D01*
G01X8983Y130843D02*
X15000D01*
G01D02*
X21017D01*
G01X15000Y128468D02*
Y130843D01*
G01D02*
Y133218D01*
G01X11936Y138000D02*
X15000D01*
G01D02*
X18064D01*
G01X15000Y134345D02*
Y138000D01*
G01D02*
Y141655D01*
G01X18000Y25723D02*
Y28394D01*
G01D02*
Y31065D01*
G01Y28394D02*
X21557D01*
G01X24428Y27000D02*
X27000D01*
G01D02*
X29572D01*
G01X27000D02*
Y28883D01*
G01X31117Y25000D02*
X33000D01*
G01D02*
X34883D01*
G01X33000D02*
Y26883D01*
G01X31117Y21063D02*
X33000D01*
G01D02*
X34883D01*
G01X33000Y19180D02*
Y21063D01*
G01X18000Y17849D02*
Y20520D01*
G01D02*
Y23191D01*
G01Y20520D02*
X21557D01*
G01X24428Y20500D02*
X27000D01*
G01D02*
X29572D01*
G01X27000Y18617D02*
Y20500D01*
G01D02*
Y22383D01*
G01X31617Y69937D02*
X33500D01*
G01D02*
X35383D01*
G01X33500D02*
Y71820D01*
G01X27000Y66809D02*
Y69480D01*
G01D02*
Y72151D01*
G01X23443Y69480D02*
X27000D01*
G01D02*
X30557D01*
G01X18000Y66809D02*
Y69480D01*
G01D02*
Y72151D01*
G01Y69480D02*
X21557D01*
G01X18000Y58935D02*
Y61606D01*
G01D02*
Y64277D01*
G01Y61606D02*
X21557D01*
G01X27000Y58935D02*
Y61606D01*
G01D02*
Y64277D01*
G01X23443Y61606D02*
X27000D01*
G01D02*
X30557D01*
G01X33500Y66000D02*
X35383D01*
G01X33500Y64117D02*
Y66000D01*
G01X25520Y105443D02*
Y109000D01*
G01D02*
Y112557D01*
G01X22849Y109000D02*
X25520D01*
G01D02*
X28191D01*
G01X25520Y96443D02*
Y100000D01*
G01D02*
Y103557D01*
G01X22849Y100000D02*
X25520D01*
G01D02*
X28191D01*
G01X33480Y119912D02*
Y122780D01*
G01D02*
Y125648D01*
G01X31597Y122780D02*
X33480D01*
G01D02*
X35363D01*
G01X26063Y114117D02*
Y116000D01*
G01D02*
Y117883D01*
G01X24180Y116000D02*
X26063D01*
G01X26000Y119912D02*
Y122780D01*
G01D02*
Y125648D01*
G01X24117Y122780D02*
X26000D01*
G01D02*
X27883D01*
G01X26000Y131132D02*
Y134000D01*
G01D02*
Y136868D01*
G01X24117Y134000D02*
X26000D01*
G01X32867Y196500D02*
X32200Y194000D01*
X31533Y196500D01*
G01X30000Y194000D02*
X30213Y194042D01*
X30400Y194208D01*
X30560Y194458D01*
X30667Y194750D01*
X30720Y195083D01*
Y195417D01*
X30667Y195750D01*
X30560Y196042D01*
X30400Y196292D01*
X30213Y196458D01*
X30000Y196500D01*
X29787Y196458D01*
X29600Y196292D01*
X29440Y196042D01*
X29333Y195750D01*
X29280Y195417D01*
Y195083D01*
X29333Y194750D01*
X29440Y194458D01*
X29600Y194208D01*
X29787Y194042D01*
X30000Y194000D01*
G01X28387Y196500D02*
Y194708D01*
X28280Y194333D01*
X28067Y194083D01*
X27800Y194000D01*
X27533Y194083D01*
X27320Y194333D01*
X27213Y194708D01*
Y196500D01*
G01X25600D02*
Y194000D01*
G01X26213Y196500D02*
X24987D01*
G01X41000Y17398D02*
Y20000D01*
G01X36448Y30000D02*
X41000D01*
G01D02*
Y32602D01*
G01X36448Y20000D02*
X41000D01*
G01D02*
X45552D01*
G01X41000D02*
Y22602D01*
G01X36448Y70000D02*
X41000D01*
G01D02*
X45552D01*
G01X41000Y67398D02*
Y70000D01*
G01D02*
Y72602D01*
G01X36448Y60000D02*
X41000D01*
G01D02*
X45552D01*
G01X41000Y57398D02*
Y60000D01*
G01D02*
Y62602D01*
G01X45000Y91526D02*
Y94000D01*
G01X40951D02*
X45000D01*
G01D02*
X49049D01*
G01X55040Y195250D02*
X54507D01*
Y194500D01*
X54667Y194250D01*
X54853Y194083D01*
X55120Y194000D01*
X55387Y194083D01*
X55573Y194250D01*
X55733Y194500D01*
X55840Y194792D01*
X55893Y195125D01*
Y195417D01*
X55840Y195667D01*
X55733Y195958D01*
X55573Y196208D01*
X55413Y196375D01*
X55200Y196500D01*
X55013D01*
X54800Y196417D01*
X54640Y196250D01*
G01X53613Y194000D02*
Y196500D01*
X52387Y194000D01*
Y196500D01*
G01X51387Y194000D02*
Y196500D01*
X50853D01*
X50640Y196375D01*
X50480Y196208D01*
X50347Y195958D01*
X50240Y195667D01*
X50213Y195250D01*
X50240Y194833D01*
X50347Y194542D01*
X50480Y194292D01*
X50640Y194125D01*
X50853Y194000D01*
X51387D01*
G01X49400Y193167D02*
X47800D01*
G01X46720Y196500D02*
X46080D01*
G01X46400D02*
Y194000D01*
G01X46720D02*
X46080D01*
G01X44760Y194333D02*
X44547Y194125D01*
X44307Y194000D01*
X44093D01*
X43880Y194125D01*
X43720Y194333D01*
X43640Y194625D01*
X43693Y194917D01*
X43827Y195167D01*
X44067Y195333D01*
X44387Y195417D01*
X44573Y195583D01*
X44653Y195875D01*
X44600Y196167D01*
X44467Y196375D01*
X44280Y196500D01*
X44093D01*
X43907Y196417D01*
X43747Y196208D01*
G01X42000Y194000D02*
X42213Y194042D01*
X42400Y194208D01*
X42560Y194458D01*
X42667Y194750D01*
X42720Y195083D01*
Y195417D01*
X42667Y195750D01*
X42560Y196042D01*
X42400Y196292D01*
X42213Y196458D01*
X42000Y196500D01*
X41787Y196458D01*
X41600Y196292D01*
X41440Y196042D01*
X41333Y195750D01*
X41280Y195417D01*
Y195083D01*
X41333Y194750D01*
X41440Y194458D01*
X41600Y194208D01*
X41787Y194042D01*
X42000Y194000D01*
G01X71849Y100000D02*
X74520D01*
G01X71849Y110000D02*
X74520D01*
G01X57983Y118000D02*
X64000D01*
G01D02*
X70017D01*
G01X64000Y115625D02*
Y118000D01*
G01D02*
Y120375D01*
G01X57983Y127843D02*
X64000D01*
G01D02*
X70017D01*
G01X64000Y125468D02*
Y127843D01*
G01D02*
Y130218D01*
G01Y132321D02*
Y134795D01*
G01D02*
Y137269D01*
G01X59951Y134795D02*
X64000D01*
G01D02*
X68049D01*
G01X64000Y145313D02*
Y147787D01*
G01D02*
Y150261D01*
G01X59951Y147787D02*
X64000D01*
G01D02*
X68049D01*
G01X72000Y145983D02*
Y152000D01*
G01D02*
Y158017D01*
G01X69625Y152000D02*
X72000D01*
G01X64000Y153436D02*
Y156500D01*
G01D02*
Y159564D01*
G01X60345Y156500D02*
X64000D01*
G01D02*
X67655D01*
G01X72520Y196500D02*
X71880D01*
G01X72200D02*
Y194000D01*
G01X72520D02*
X71880D01*
G01X70000D02*
X70213Y194042D01*
X70400Y194208D01*
X70560Y194458D01*
X70667Y194750D01*
X70720Y195083D01*
Y195417D01*
X70667Y195750D01*
X70560Y196042D01*
X70400Y196292D01*
X70213Y196458D01*
X70000Y196500D01*
X69787Y196458D01*
X69600Y196292D01*
X69440Y196042D01*
X69333Y195750D01*
X69280Y195417D01*
Y195083D01*
X69333Y194750D01*
X69440Y194458D01*
X69600Y194208D01*
X69787Y194042D01*
X70000Y194000D01*
G01X68387Y196500D02*
Y194708D01*
X68280Y194333D01*
X68067Y194083D01*
X67800Y194000D01*
X67533Y194083D01*
X67320Y194333D01*
X67213Y194708D01*
Y196500D01*
G01X65600D02*
Y194000D01*
G01X66213Y196500D02*
X64987D01*
G01X90000Y94767D02*
X87500D01*
Y95833D01*
G01Y97980D02*
X89167D01*
G01X88875D02*
X89042Y97873D01*
X89125Y97713D01*
X89167Y97527D01*
X89083Y97340D01*
X88917Y97180D01*
X88667Y97073D01*
X88333Y97020D01*
X88000Y97073D01*
X87750Y97180D01*
X87583Y97340D01*
X87500Y97527D01*
X87542Y97713D01*
X87667Y97873D01*
X87833Y97980D01*
G01X86750Y99140D02*
X86667Y99300D01*
X86750Y99513D01*
X86917Y99647D01*
X87125Y99753D01*
X87792Y99913D01*
X89167Y100260D01*
G01Y99407D02*
X87792Y99913D01*
G01X88625Y101500D02*
Y102353D01*
X88917Y102273D01*
X89083Y102140D01*
X89167Y101953D01*
X89125Y101767D01*
X89000Y101607D01*
X88708Y101500D01*
X88458Y101447D01*
X88208D01*
X87958Y101500D01*
X87708Y101633D01*
X87542Y101793D01*
X87500Y101980D01*
X87583Y102167D01*
X87833Y102353D01*
G01X87500Y103727D02*
X89167D01*
G01X88833D02*
X89000Y103860D01*
X89125Y103993D01*
X89167Y104180D01*
X89125Y104313D01*
X89000Y104473D01*
G01X87792Y105900D02*
X87625Y106033D01*
X87500Y106220D01*
Y106380D01*
X87583Y106540D01*
X87708Y106647D01*
X87875Y106700D01*
X88125Y106673D01*
X88250Y106567D01*
X88500Y106087D01*
X88792Y105980D01*
X89000Y106033D01*
X89125Y106140D01*
X89167Y106300D01*
X89125Y106460D01*
X89000Y106620D01*
G01X74520Y96443D02*
Y100000D01*
G01D02*
Y103557D01*
G01Y100000D02*
X77191D01*
G01X74520Y106443D02*
Y110000D01*
G01D02*
Y113557D01*
G01Y110000D02*
X77191D01*
G01X76063Y115117D02*
Y117000D01*
G01D02*
Y118883D01*
G01X74180Y117000D02*
X76063D01*
G01X82480Y120912D02*
Y123780D01*
G01D02*
Y126648D01*
G01X80597Y123780D02*
X82480D01*
G01D02*
X84363D01*
G01X75000Y120912D02*
Y123780D01*
G01D02*
Y126648D01*
G01X73117Y123780D02*
X75000D01*
G01D02*
X76883D01*
G01X75000Y132132D02*
Y135000D01*
G01D02*
Y137868D01*
G01X73117Y135000D02*
X75000D01*
G54D18*
X27000Y20500D03*
Y27000D03*
G54D27*
X41000Y30000D03*
Y20000D03*
Y70000D03*
Y60000D03*
Y80000D03*
X77300Y20000D03*
Y80000D03*
G54D37*
G01X64693Y218000D02*
Y221100D01*
X63927D01*
X63620Y220945D01*
X63390Y220738D01*
X63198Y220428D01*
X63045Y220067D01*
X63007Y219550D01*
X63045Y219033D01*
X63198Y218672D01*
X63390Y218362D01*
X63620Y218155D01*
X63927Y218000D01*
X64693D01*
G01X61325Y219395D02*
X60098D01*
X60213Y219757D01*
X60405Y219963D01*
X60673Y220067D01*
X60942Y220015D01*
X61172Y219860D01*
X61325Y219498D01*
X61402Y219188D01*
Y218878D01*
X61325Y218568D01*
X61133Y218258D01*
X60903Y218052D01*
X60635Y218000D01*
X60367Y218103D01*
X60098Y218413D01*
G01X58225Y218362D02*
X58033Y218155D01*
X57765Y218000D01*
X57535D01*
X57305Y218103D01*
X57152Y218258D01*
X57075Y218465D01*
X57113Y218775D01*
X57267Y218930D01*
X57957Y219240D01*
X58110Y219602D01*
X58033Y219860D01*
X57880Y220015D01*
X57650Y220067D01*
X57420Y220015D01*
X57190Y219860D01*
G01X54550Y220067D02*
Y218000D01*
G01Y220893D02*
X54627Y220945D01*
Y221048D01*
X54550Y221100D01*
X54473Y221048D01*
Y220945D01*
X54550Y220893D01*
G01X51987Y217225D02*
X51718Y217018D01*
X51412Y216967D01*
X51143Y217018D01*
X50913Y217277D01*
X50760Y217638D01*
Y220067D01*
G01Y219653D02*
X50913Y219860D01*
X51143Y220015D01*
X51412Y220067D01*
X51718Y219963D01*
X51910Y219757D01*
X52063Y219395D01*
X52140Y219033D01*
X52102Y218723D01*
X51948Y218362D01*
X51718Y218103D01*
X51412Y218000D01*
X51182Y218052D01*
X50913Y218258D01*
X50760Y218465D01*
G01X49002Y218000D02*
Y220067D01*
G01Y219550D02*
X48848Y219808D01*
X48618Y220015D01*
X48312Y220067D01*
X48043Y220015D01*
X47813Y219808D01*
X47698Y219447D01*
Y218000D01*
G01X45825Y219395D02*
X44598D01*
X44713Y219757D01*
X44905Y219963D01*
X45173Y220067D01*
X45442Y220015D01*
X45672Y219860D01*
X45825Y219498D01*
X45902Y219188D01*
Y218878D01*
X45825Y218568D01*
X45633Y218258D01*
X45403Y218052D01*
X45135Y218000D01*
X44867Y218103D01*
X44598Y218413D01*
G01X41460Y221100D02*
Y218000D01*
G01Y218465D02*
X41613Y218207D01*
X41843Y218052D01*
X42112Y218000D01*
X42418Y218103D01*
X42648Y218362D01*
X42802Y218672D01*
X42840Y219033D01*
X42802Y219395D01*
X42648Y219705D01*
X42418Y219963D01*
X42112Y220067D01*
X41843Y220015D01*
X41652Y219912D01*
X41460Y219705D01*
G01X36640Y218000D02*
Y221100D01*
G01Y219550D02*
X36448Y219860D01*
X36218Y220015D01*
X35988Y220067D01*
X35643Y219963D01*
X35413Y219757D01*
X35260Y219395D01*
Y218982D01*
X35337Y218568D01*
X35490Y218258D01*
X35758Y218052D01*
X35988Y218000D01*
X36218Y218052D01*
X36448Y218207D01*
X36640Y218465D01*
G01X33655Y217070D02*
X33425Y216967D01*
X33118Y217070D01*
X32927Y217277D01*
X32773Y217535D01*
X32543Y218362D01*
X32045Y220067D01*
G01X33272D02*
X32543Y218362D01*
G01X77617Y212620D02*
X77425Y212310D01*
X77195Y212103D01*
X76927Y212000D01*
X76620Y212103D01*
X76390Y212310D01*
X76160Y212620D01*
X76083Y213033D01*
Y215100D01*
G01X74248Y213033D02*
X73252D01*
G01X71378Y212000D02*
Y215100D01*
X69922D01*
G01X70458Y213602D02*
X71378D01*
G01X67550Y211897D02*
X67627Y211948D01*
Y212052D01*
X67550Y212103D01*
X67473Y212052D01*
Y211948D01*
X67550Y211897D01*
G01X64143Y213653D02*
X63990Y213808D01*
X63875Y214067D01*
X63798Y214428D01*
X63875Y214738D01*
X64028Y214945D01*
X64297Y215100D01*
X65332D01*
Y212000D01*
X64067D01*
X63798Y212207D01*
X63645Y212517D01*
X63568Y212878D01*
X63645Y213240D01*
X63875Y213550D01*
X64143Y213653D01*
X65332D01*
G01X61427Y211432D02*
X61273Y212103D01*
G01X54843Y213653D02*
X54690Y213808D01*
X54575Y214067D01*
X54498Y214428D01*
X54575Y214738D01*
X54728Y214945D01*
X54997Y215100D01*
X56032D01*
Y212000D01*
X54767D01*
X54498Y212207D01*
X54345Y212517D01*
X54268Y212878D01*
X54345Y213240D01*
X54575Y213550D01*
X54843Y213653D01*
X56032D01*
G01X52050Y211897D02*
X52127Y211948D01*
Y212052D01*
X52050Y212103D01*
X51973Y212052D01*
Y211948D01*
X52050Y211897D01*
G01X48183Y212000D02*
X49717D01*
Y215100D01*
X48183D01*
G01X48797Y213602D02*
X49717D01*
G01X45850Y211897D02*
X45927Y211948D01*
Y212052D01*
X45850Y212103D01*
X45773Y212052D01*
Y211948D01*
X45850Y211897D01*
G01X41983Y212000D02*
X43517D01*
Y215100D01*
X41983D01*
G01X42597Y213602D02*
X43517D01*
G01X40302Y212000D02*
Y214067D01*
G01Y213550D02*
X40148Y213808D01*
X39918Y214015D01*
X39612Y214067D01*
X39343Y214015D01*
X39113Y213808D01*
X38998Y213447D01*
Y212000D01*
G01X37087Y211225D02*
X36818Y211018D01*
X36512Y210967D01*
X36243Y211018D01*
X36013Y211277D01*
X35860Y211638D01*
Y214067D01*
G01Y213653D02*
X36013Y213860D01*
X36243Y214015D01*
X36512Y214067D01*
X36818Y213963D01*
X37010Y213757D01*
X37163Y213395D01*
X37240Y213033D01*
X37202Y212723D01*
X37048Y212362D01*
X36818Y212103D01*
X36512Y212000D01*
X36282Y212052D01*
X36013Y212258D01*
X35860Y212465D01*
G01X33527Y211432D02*
X33373Y212103D01*
G01X26407Y214842D02*
X26637Y214997D01*
X26905Y215100D01*
X27212D01*
X27557Y214945D01*
X27825Y214687D01*
X28017Y214377D01*
X28170Y213860D01*
X28208Y213395D01*
X28132Y212930D01*
X28017Y212620D01*
X27787Y212310D01*
X27518Y212103D01*
X27250Y212000D01*
X26982D01*
X26713Y212103D01*
X26483Y212258D01*
X26292Y212465D01*
G01X24917Y212000D02*
Y215100D01*
X23997D01*
X23690Y214945D01*
X23460Y214583D01*
X23383Y214170D01*
X23460Y213757D01*
X23652Y213447D01*
X23997Y213292D01*
X24917D01*
G01X21510Y215100D02*
X20590D01*
G01X21050D02*
Y212000D01*
G01X21510D02*
X20590D01*
G01X93000Y105610D02*
X96100D01*
X93878Y104192D01*
Y106108D01*
G54D19*
X18000Y20520D03*
Y28394D03*
Y69480D03*
Y61606D03*
X27000Y69480D03*
Y61606D03*
G54D28*
X45000Y94000D03*
Y106598D03*
X64000Y134795D03*
Y147787D03*
G54D29*
X53500Y131500D03*
X48500D03*
M02*
