G04 ================== begin FILE IDENTIFICATION RECORD ==================*
G04 Layout Name:  isolated_v-i_dac.brd*
G04 Film Name:    Isolated_V-I_DAC-v1_00-0a-BOTTOM*
G04 File Format:  Gerber RS274X*
G04 File Origin:  Cadence Allegro 17.4-S018*
G04 Origin Date:  Sun Sep 12 10:26:27 2021*
G04 *
G04 Layer:  ETCH/BOTTOM*
G04 Layer:  PIN/BOTTOM*
G04 Layer:  VIA CLASS/BOTTOM*
G04 *
G04 Offset:    (0.00 0.00)*
G04 Mirror:    No*
G04 Mode:      Positive*
G04 Rotation:  0*
G04 FullContactRelief:  No*
G04 UndefLineWidth:     6.00*
G04 ================== end FILE IDENTIFICATION RECORD ====================*
%FSLAX25Y25*MOIN*%
%IR0*IPPOS*OFA0.00000B0.00000*MIA0B0*SFA1.00000B1.00000*%
%ADD13C,.02*%
%AMMACRO29*
4,1,40,.00558,-.05315,
-.00558,-.05315,
-.007516,-.052981,
-.009394,-.052478,
-.011155,-.051656,
-.012747,-.050541,
-.014121,-.049167,
-.015236,-.047575,
-.016058,-.045814,
-.016561,-.043936,
-.01673,-.042,
-.01673,.042,
-.016561,.043936,
-.016058,.045814,
-.015236,.047575,
-.014121,.049167,
-.012747,.050541,
-.011155,.051656,
-.009394,.052478,
-.007516,.052981,
-.00558,.05315,
.00558,.05315,
.007516,.052981,
.009394,.052478,
.011155,.051656,
.012747,.050541,
.014121,.049167,
.015236,.047575,
.016058,.045814,
.016561,.043936,
.01673,.042,
.01673,-.042,
.016561,-.043936,
.016058,-.045814,
.015236,-.047575,
.014121,-.049167,
.012747,-.050541,
.011155,-.051656,
.009394,-.052478,
.007516,-.052981,
.00558,-.05315,
0.0*
%
%ADD29MACRO29*%
%AMMACRO14*
4,1,40,.05315,.00558,
.05315,-.00558,
.052981,-.007516,
.052478,-.009394,
.051656,-.011155,
.050541,-.012747,
.049167,-.014121,
.047575,-.015236,
.045814,-.016058,
.043936,-.016561,
.042,-.01673,
-.042,-.01673,
-.043936,-.016561,
-.045814,-.016058,
-.047575,-.015236,
-.049167,-.014121,
-.050541,-.012747,
-.051656,-.011155,
-.052478,-.009394,
-.052981,-.007516,
-.05315,-.00558,
-.05315,.00558,
-.052981,.007516,
-.052478,.009394,
-.051656,.011155,
-.050541,.012747,
-.049167,.014121,
-.047575,.015236,
-.045814,.016058,
-.043936,.016561,
-.042,.01673,
.042,.01673,
.043936,.016561,
.045814,.016058,
.047575,.015236,
.049167,.014121,
.050541,.012747,
.051656,.011155,
.052478,.009394,
.052981,.007516,
.05315,.00558,
0.0*
%
%ADD14MACRO14*%
%ADD27C,.093*%
%AMMACRO30*
4,1,40,.00709,-.01181,
-.00709,-.01181,
-.00791,-.011738,
-.008704,-.011525,
-.00945,-.011178,
-.010124,-.010706,
-.010706,-.010124,
-.011178,-.00945,
-.011525,-.008704,
-.011738,-.00791,
-.01181,-.00709,
-.01181,.00709,
-.011738,.00791,
-.011525,.008704,
-.011178,.00945,
-.010706,.010124,
-.010124,.010706,
-.00945,.011178,
-.008704,.011525,
-.00791,.011738,
-.00709,.01181,
.00709,.01181,
.00791,.011738,
.008704,.011525,
.00945,.011178,
.010124,.010706,
.010706,.010124,
.011178,.00945,
.011525,.008704,
.011738,.00791,
.01181,.00709,
.01181,-.00709,
.011738,-.00791,
.011525,-.008704,
.011178,-.00945,
.010706,-.010124,
.010124,-.010706,
.00945,-.011178,
.008704,-.011525,
.00791,-.011738,
.00709,-.01181,
0.0*
%
%ADD30MACRO30*%
%AMMACRO21*
4,1,40,.01181,.00709,
.01181,-.00709,
.011738,-.00791,
.011525,-.008704,
.011178,-.00945,
.010706,-.010124,
.010124,-.010706,
.00945,-.011178,
.008704,-.011525,
.00791,-.011738,
.00709,-.01181,
-.00709,-.01181,
-.00791,-.011738,
-.008704,-.011525,
-.00945,-.011178,
-.010124,-.010706,
-.010706,-.010124,
-.011178,-.00945,
-.011525,-.008704,
-.011738,-.00791,
-.01181,-.00709,
-.01181,.00709,
-.011738,.00791,
-.011525,.008704,
-.011178,.00945,
-.010706,.010124,
-.010124,.010706,
-.00945,.011178,
-.008704,.011525,
-.00791,.011738,
-.00709,.01181,
.00709,.01181,
.00791,.011738,
.008704,.011525,
.00945,.011178,
.010124,.010706,
.010706,.010124,
.011178,.00945,
.011525,.008704,
.011738,.00791,
.01181,.00709,
0.0*
%
%ADD21MACRO21*%
%AMMACRO24*
4,1,44,.00787,-.02165,
-.00787,-.02165,
-.008554,-.021595,
-.009218,-.021417,
-.00984,-.021127,
-.010403,-.020733,
-.010888,-.020248,
-.011282,-.019685,
-.011572,-.019063,
-.01175,-.018399,
-.01181,-.017715,
-.01181,-.01771,
-.01181,.01771,
-.011751,.018394,
-.011574,.019058,
-.011285,.019681,
-.010891,.020244,
-.010406,.02073,
-.009844,.021125,
-.009222,.021416,
-.008559,.021594,
-.007875,.021655,
-.00787,.02165,
.00787,.02165,
.008554,.021595,
.009218,.021417,
.00984,.021127,
.010403,.020733,
.010888,.020248,
.011282,.019685,
.011572,.019063,
.01175,.018399,
.01181,.017715,
.01181,.01771,
.01181,-.01771,
.011751,-.018394,
.011574,-.019058,
.011285,-.019681,
.010891,-.020244,
.010406,-.02073,
.009844,-.021125,
.009222,-.021416,
.008559,-.021594,
.007875,-.021655,
.00787,-.02165,
0.0*
%
%ADD24MACRO24*%
%AMMACRO22*
4,1,40,.0187,.00787,
.0187,-.00787,
.01864,-.008554,
.018462,-.009218,
.018172,-.00984,
.017778,-.010403,
.017293,-.010888,
.01673,-.011282,
.016108,-.011572,
.015444,-.01175,
.01476,-.01181,
-.01476,-.01181,
-.015444,-.01175,
-.016108,-.011572,
-.01673,-.011282,
-.017293,-.010888,
-.017778,-.010403,
-.018172,-.00984,
-.018462,-.009218,
-.01864,-.008554,
-.0187,-.00787,
-.0187,.00787,
-.01864,.008554,
-.018462,.009218,
-.018172,.00984,
-.017778,.010403,
-.017293,.010888,
-.01673,.011282,
-.016108,.011572,
-.015444,.01175,
-.01476,.01181,
.01476,.01181,
.015444,.01175,
.016108,.011572,
.01673,.011282,
.017293,.010888,
.017778,.010403,
.018172,.00984,
.018462,.009218,
.01864,.008554,
.0187,.00787,
0.0*
%
%ADD22MACRO22*%
%AMMACRO26*
4,1,40,.01378,.0059,
.01378,-.0059,
.01369,-.006926,
.013424,-.007921,
.012988,-.008855,
.012397,-.009699,
.011669,-.010427,
.010825,-.011018,
.009891,-.011454,
.008896,-.01172,
.00787,-.01181,
-.00787,-.01181,
-.008896,-.01172,
-.009891,-.011454,
-.010825,-.011018,
-.011669,-.010427,
-.012397,-.009699,
-.012988,-.008855,
-.013424,-.007921,
-.01369,-.006926,
-.01378,-.0059,
-.01378,.0059,
-.01369,.006926,
-.013424,.007921,
-.012988,.008855,
-.012397,.009699,
-.011669,.010427,
-.010825,.011018,
-.009891,.011454,
-.008896,.01172,
-.00787,.01181,
.00787,.01181,
.008896,.01172,
.009891,.011454,
.010825,.011018,
.011669,.010427,
.012397,.009699,
.012988,.008855,
.013424,.007921,
.01369,.006926,
.01378,.0059,
0.0*
%
%ADD26MACRO26*%
%ADD10O,.08X.06*%
%ADD11R,.08X.06*%
%AMMACRO18*
4,1,40,.0385,.0063,
.0385,-.0063,
.038307,-.008505,
.037734,-.010644,
.036799,-.01265,
.035529,-.014463,
.033963,-.016029,
.03215,-.017299,
.030144,-.018234,
.028005,-.018807,
.0258,-.019,
-.0258,-.019,
-.028005,-.018807,
-.030144,-.018234,
-.03215,-.017299,
-.033963,-.016029,
-.035529,-.014463,
-.036799,-.01265,
-.037734,-.010644,
-.038307,-.008505,
-.0385,-.0063,
-.0385,.0063,
-.038307,.008505,
-.037734,.010644,
-.036799,.01265,
-.035529,.014463,
-.033963,.016029,
-.03215,.017299,
-.030144,.018234,
-.028005,.018807,
-.0258,.019,
.0258,.019,
.028005,.018807,
.030144,.018234,
.03215,.017299,
.033963,.016029,
.035529,.014463,
.036799,.01265,
.037734,.010644,
.038307,.008505,
.0385,.0063,
0.0*
%
%ADD18MACRO18*%
%AMMACRO19*
4,1,40,-.01181,-.00709,
-.01181,.00709,
-.011738,.00791,
-.011525,.008704,
-.011178,.00945,
-.010706,.010124,
-.010124,.010706,
-.00945,.011178,
-.008704,.011525,
-.00791,.011738,
-.00709,.01181,
.00709,.01181,
.00791,.011738,
.008704,.011525,
.00945,.011178,
.010124,.010706,
.010706,.010124,
.011178,.00945,
.011525,.008704,
.011738,.00791,
.01181,.00709,
.01181,-.00709,
.011738,-.00791,
.011525,-.008704,
.011178,-.00945,
.010706,-.010124,
.010124,-.010706,
.00945,-.011178,
.008704,-.011525,
.00791,-.011738,
.00709,-.01181,
-.00709,-.01181,
-.00791,-.011738,
-.008704,-.011525,
-.00945,-.011178,
-.010124,-.010706,
-.010706,-.010124,
-.011178,-.00945,
-.011525,-.008704,
-.011738,-.00791,
-.01181,-.00709,
0.0*
%
%ADD19MACRO19*%
%AMMACRO16*
4,1,40,-.00709,.01181,
.00709,.01181,
.00791,.011738,
.008704,.011525,
.00945,.011178,
.010124,.010706,
.010706,.010124,
.011178,.00945,
.011525,.008704,
.011738,.00791,
.01181,.00709,
.01181,-.00709,
.011738,-.00791,
.011525,-.008704,
.011178,-.00945,
.010706,-.010124,
.010124,-.010706,
.00945,-.011178,
.008704,-.011525,
.00791,-.011738,
.00709,-.01181,
-.00709,-.01181,
-.00791,-.011738,
-.008704,-.011525,
-.00945,-.011178,
-.010124,-.010706,
-.010706,-.010124,
-.011178,-.00945,
-.011525,-.008704,
-.011738,-.00791,
-.01181,-.00709,
-.01181,.00709,
-.011738,.00791,
-.011525,.008704,
-.011178,.00945,
-.010706,.010124,
-.010124,.010706,
-.00945,.011178,
-.008704,.011525,
-.00791,.011738,
-.00709,.01181,
0.0*
%
%ADD16MACRO16*%
%AMMACRO20*
4,1,40,-.0187,-.00787,
-.0187,.00787,
-.01864,.008554,
-.018462,.009218,
-.018172,.00984,
-.017778,.010403,
-.017293,.010888,
-.01673,.011282,
-.016108,.011572,
-.015444,.01175,
-.01476,.01181,
.01476,.01181,
.015444,.01175,
.016108,.011572,
.01673,.011282,
.017293,.010888,
.017778,.010403,
.018172,.00984,
.018462,.009218,
.01864,.008554,
.0187,.00787,
.0187,-.00787,
.01864,-.008554,
.018462,-.009218,
.018172,-.00984,
.017778,-.010403,
.017293,-.010888,
.01673,-.011282,
.016108,-.011572,
.015444,-.01175,
.01476,-.01181,
-.01476,-.01181,
-.015444,-.01175,
-.016108,-.011572,
-.01673,-.011282,
-.017293,-.010888,
-.017778,-.010403,
-.018172,-.00984,
-.018462,-.009218,
-.01864,-.008554,
-.0187,-.00787,
0.0*
%
%ADD20MACRO20*%
%ADD28R,.06693X.03543*%
%AMMACRO25*
4,1,40,-.0059,.01378,
.0059,.01378,
.006926,.01369,
.007921,.013424,
.008855,.012988,
.009699,.012397,
.010427,.011669,
.011018,.010825,
.011454,.009891,
.01172,.008896,
.01181,.00787,
.01181,-.00787,
.01172,-.008896,
.011454,-.009891,
.011018,-.010825,
.010427,-.011669,
.009699,-.012397,
.008855,-.012988,
.007921,-.013424,
.006926,-.01369,
.0059,-.01378,
-.0059,-.01378,
-.006926,-.01369,
-.007921,-.013424,
-.008855,-.012988,
-.009699,-.012397,
-.010427,-.011669,
-.011018,-.010825,
-.011454,-.009891,
-.01172,-.008896,
-.01181,-.00787,
-.01181,.00787,
-.01172,.008896,
-.011454,.009891,
-.011018,.010825,
-.010427,.011669,
-.009699,.012397,
-.008855,.012988,
-.007921,.013424,
-.006926,.01369,
-.0059,.01378,
0.0*
%
%ADD25MACRO25*%
%ADD17R,.03543X.06693*%
%ADD12R,.05709X.03937*%
%ADD23R,.03937X.05709*%
%AMMACRO15*
4,1,40,.02362,.01654,
.02362,-.01654,
.023423,-.018796,
.022837,-.020983,
.02188,-.023035,
.020581,-.02489,
.01898,-.026491,
.017125,-.02779,
.015073,-.028747,
.012886,-.029333,
.01063,-.02953,
-.01063,-.02953,
-.012886,-.029333,
-.015073,-.028747,
-.017125,-.02779,
-.01898,-.026491,
-.020581,-.02489,
-.02188,-.023035,
-.022837,-.020983,
-.023423,-.018796,
-.02362,-.01654,
-.02362,.01654,
-.023423,.018796,
-.022837,.020983,
-.02188,.023035,
-.020581,.02489,
-.01898,.026491,
-.017125,.02779,
-.015073,.028747,
-.012886,.029333,
-.01063,.02953,
.01063,.02953,
.012886,.029333,
.015073,.028747,
.017125,.02779,
.01898,.026491,
.020581,.02489,
.02188,.023035,
.022837,.020983,
.023423,.018796,
.02362,.01654,
0.0*
%
%ADD15MACRO15*%
%ADD31C,.015*%
%ADD32C,.025*%
%ADD33C,.006*%
%ADD34C,.007*%
%ADD35C,.04004*%
G75*
%LPD*%
G75*
G36*
G01X28500Y23500D02*
X30000Y22000D01*
X35000D01*
X36000Y23000D01*
X45000D01*
X46000Y22000D01*
Y18000D01*
X45000Y17000D01*
X37000D01*
X36000Y18000D01*
X24000D01*
Y12500D01*
X13500D01*
Y23500D01*
X28500D01*
G37*
G36*
G01X25000Y36000D02*
Y32187D01*
X26357Y31000D01*
X35000D01*
X37500Y33500D01*
X45000D01*
X46000Y32500D01*
Y27500D01*
X45000Y26500D01*
X37500D01*
X34500Y23500D01*
X31500D01*
X30000Y25000D01*
X13500D01*
Y36000D01*
X25000D01*
G37*
G36*
G01X73000Y128000D02*
X85500D01*
Y120000D01*
X78000D01*
Y118421D01*
X77978Y118378D01*
G03X77818Y117709I1313J-668D01*
G01Y116291D01*
G03X77978Y115622I1473J-1D01*
G01X78000Y115579D01*
Y113500D01*
X77500Y113000D01*
Y96002D01*
G03X75498Y94000I0J-2002D01*
G03X77425Y91999I2002J0D01*
G01X77504Y91996D01*
X86000Y83500D01*
Y48500D01*
X65000D01*
X46500Y67000D01*
X45085D01*
G03X45000Y67002I-90J-2000D01*
G03X44915Y67000I5J-2002D01*
G01X41148D01*
G03X41063Y67002I-90J-2000D01*
G03X40978Y67000I5J-2002D01*
G01X37512D01*
X37096Y67415D01*
G03X35681Y68002I-1416J-1415D01*
G01X34418D01*
X34376Y68023D01*
G03X33709Y68182I-666J-1314D01*
G01X32291D01*
G03X31624Y68023I-1J-1473D01*
G01X31582Y68002D01*
X30000D01*
G03X28585Y67415I1J-2002D01*
G01X27669Y66500D01*
X14000D01*
Y109000D01*
X8000Y115000D01*
Y123500D01*
X9000Y124500D01*
X20000D01*
X22500Y127000D01*
X36000D01*
X37500Y125500D01*
Y120500D01*
X36000Y119000D01*
X29000D01*
X28000Y118000D01*
Y117421D01*
X27978Y117378D01*
G03X27818Y116709I1313J-668D01*
G01Y115291D01*
G03X27978Y114622I1473J-1D01*
G01X28000Y114579D01*
Y113500D01*
X28500Y113000D01*
Y94500D01*
X32500Y90500D01*
X53000D01*
X57000Y94500D01*
Y106266D01*
G03Y109734I-999J1734D01*
G01Y120000D01*
X58500Y121500D01*
X70500D01*
X72000Y123000D01*
Y127000D01*
X73000Y128000D01*
G37*
G36*
G01X22500Y138000D02*
X27500D01*
Y130000D01*
X23500D01*
X21000Y127500D01*
X9000D01*
X8000Y128500D01*
Y133000D01*
X11000Y136000D01*
Y141000D01*
X12000Y142000D01*
X18500D01*
X22500Y138000D01*
G37*
G36*
G01X57000Y136500D02*
X59000Y138500D01*
X76500D01*
Y130500D01*
X72500D01*
X70500Y128500D01*
Y126000D01*
X69000Y124500D01*
X58500D01*
X57000Y126000D01*
Y136500D01*
G37*
G36*
G01X73000Y163748D02*
G03X73890Y163932I-1J2252D01*
G01X74015Y163985D01*
X75500Y162500D01*
Y151500D01*
X74000Y150000D01*
X71000D01*
X69000Y148000D01*
Y145000D01*
X68000Y144000D01*
X60000D01*
X59000Y145000D01*
Y158000D01*
X61500Y160500D01*
X67000D01*
X70248Y163748D01*
X73000D01*
G37*
%LPC*%
G75*
G36*
G01X43580Y82902D02*
G02X45852Y80630I0J-2272D01*
G01Y79370D01*
G02X43580Y77098I-2272J0D01*
G01X38420D01*
G02X36148Y79370I0J2272D01*
G01Y80630D01*
G02X38420Y82902I2272J0D01*
G01X43580D01*
G37*
G36*
G01X79880D02*
G02X82152Y80630I0J-2272D01*
G01Y79370D01*
G02X79880Y77098I-2272J0D01*
G01X74720D01*
G02X72448Y79370I0J2272D01*
G01Y80630D01*
G02X74720Y82902I2272J0D01*
G01X79880D01*
G37*
G36*
G01X62708Y59529D02*
G03X62738Y60112I-258J306D01*
G02X62179Y61500I1444J1388D01*
G02X66183I2002J0D01*
G02X65473Y59971I-2001J0D01*
G03X65443Y59388I258J-306D01*
G02X66002Y58000I-1444J-1388D01*
G02X61998I-2002J0D01*
G02X62708Y59529I2001J0D01*
G37*
G54D35*
X14500Y113000D03*
X64500Y95500D03*
Y88000D03*
X60500Y99500D03*
X28000Y82500D03*
X20500Y109500D03*
X60500Y91500D03*
X59000Y65000D03*
%LPD*%
G75*
G54D10*
X5000Y15000D03*
Y25000D03*
Y35000D03*
Y45000D03*
Y55000D03*
Y65000D03*
Y75000D03*
X95000Y25000D03*
Y15000D03*
Y45000D03*
Y35000D03*
Y55000D03*
Y75000D03*
Y65000D03*
G54D20*
X27000Y20500D03*
Y27000D03*
G54D11*
X5000Y85000D03*
X95000D03*
G54D12*
X18000Y20520D03*
Y28394D03*
Y61606D03*
Y69480D03*
G54D21*
X33000Y69937D03*
Y66000D03*
X31000Y149937D03*
Y146000D03*
X92000Y145937D03*
Y142000D03*
G54D30*
X77937Y167000D03*
X74000D03*
G54D31*
G01X33480Y134000D02*
Y137500D01*
X34000Y138020D01*
Y141000D01*
G01X31000Y146000D02*
X35000D01*
G01D02*
Y142000D01*
X34000Y141000D01*
G01X59000Y185500D02*
X86500D01*
X93000Y179000D01*
Y162000D01*
X89500Y158500D01*
Y154000D01*
G01X82480Y135000D02*
Y138852D01*
X83000Y139372D01*
Y142000D01*
G01X92000D02*
X88000D01*
G01D02*
X83000D01*
G01X93000Y154000D02*
Y149368D01*
X92000Y148368D01*
Y145937D01*
G54D22*
X27000Y69500D03*
Y63000D03*
G54D13*
G01X18000Y61606D02*
X24917D01*
X26311Y63000D01*
X27000D01*
G01X18000Y61606D02*
Y60536D01*
X16500Y59036D01*
Y58000D01*
G01X19500D02*
X19000Y58500D01*
Y60606D01*
X18000Y61606D01*
G01X41000Y60000D02*
X39050D01*
X37349Y61701D01*
Y64332D01*
X35681Y66000D01*
X33000D01*
G01D02*
X30000D01*
X27000Y63000D01*
G01X33394Y109000D02*
Y100000D01*
G01D02*
Y97000D01*
X35394Y95000D01*
X35500D01*
G01X30000Y116000D02*
X33394Y112606D01*
Y109000D01*
G01X82394Y110000D02*
X82500Y110106D01*
Y114355D01*
X80000Y116855D01*
Y117000D01*
G01X82394Y110000D02*
Y100000D01*
G01D02*
Y94106D01*
X15000Y8000D03*
X16000Y15000D03*
X21500D03*
X17000Y33500D03*
X19500Y38139D03*
X16500Y58000D03*
X19500D03*
X20500Y109500D03*
X9000Y105500D03*
X14500Y113000D03*
X9000Y146000D03*
X20500Y149000D03*
X5063Y146063D03*
X19000Y165000D03*
Y160500D03*
X21500Y185000D03*
X22000Y33500D03*
X35500Y36000D03*
X41063Y65000D03*
X32000Y63000D03*
X28000Y82500D03*
X35500Y95000D03*
X38500Y104500D03*
X24000Y149000D03*
X40000Y149937D03*
X27000Y141000D03*
X39000Y145500D03*
X22000Y154000D03*
X23500Y163000D03*
X49000Y29000D03*
X42000Y74500D03*
X59000Y65000D03*
X45000D03*
X60500Y99500D03*
Y91500D03*
X49500Y99000D03*
X45000Y120000D03*
X46000Y114000D03*
X56000Y108000D03*
X44937Y123937D03*
X54000Y151000D03*
Y141000D03*
X41437Y173063D03*
X41500Y177000D03*
X59000Y185500D03*
X62500Y10000D03*
X77300Y16000D03*
X65000Y29000D03*
X68000Y52000D03*
X71500Y50000D03*
X64000Y58000D03*
X64181Y61500D03*
X64500Y95500D03*
Y88000D03*
X77500Y94000D03*
X75500Y142000D03*
X68112Y166000D03*
X85500Y8000D03*
X82394Y94106D03*
X95000Y112000D03*
X88000Y124500D03*
X90532Y134469D03*
X89500Y154000D03*
X93000D03*
X85500Y172500D03*
X81500D03*
X88394Y165894D03*
X90500Y188500D03*
G54D32*
G01X14795Y163000D02*
Y155268D01*
X15063Y155000D01*
G01D02*
Y148063D01*
X15000Y148000D01*
G01X14795Y163000D02*
X17000D01*
X19000Y165000D01*
G01Y160500D02*
X17295D01*
X14795Y163000D01*
G01X31000Y149937D02*
X35000D01*
G01D02*
X40000D01*
G01X77937Y167000D02*
X80500D01*
X81843Y165657D01*
Y157000D01*
G01X77937Y167000D02*
Y170171D01*
X77205Y170903D01*
Y176000D01*
G01X81500Y172500D02*
Y173500D01*
X79000Y176000D01*
G01D02*
X77205D01*
G01X85500Y172500D02*
Y173000D01*
X82500Y176000D01*
X79000D01*
G01X64213D02*
Y166213D01*
X64000Y166000D01*
G01X68112D02*
X64000D01*
G01X74000Y167000D02*
X73000Y166000D01*
X68112D01*
G01X92000Y145937D02*
X88000D01*
G54D23*
X25520Y100000D03*
X33394D03*
X25520Y109000D03*
X33394D03*
X74520Y100000D03*
Y110000D03*
X82394Y100000D03*
Y110000D03*
G54D14*
X15000Y121000D03*
Y130843D03*
X64000Y118000D03*
Y127843D03*
G54D33*
G01X19500Y38139D02*
X15860D01*
X10000Y43999D01*
Y51000D01*
X6000Y55000D01*
X5000D01*
G01X35500Y36000D02*
X31000D01*
X26500Y40500D01*
X16500D01*
X11500Y45500D01*
Y59500D01*
X6000Y65000D01*
X5000D01*
G01X19000Y155000D02*
X20000Y154000D01*
X22000D01*
G01X29740Y134000D02*
Y138499D01*
X30063Y138822D01*
Y141000D01*
G01X27000D02*
X30063D01*
G01X27787Y163000D02*
X23500D01*
G01X32867Y196500D02*
X32200Y194000D01*
X31533Y196500D01*
G01X30000Y194000D02*
X30213Y194042D01*
X30400Y194208D01*
X30560Y194458D01*
X30667Y194750D01*
X30720Y195083D01*
Y195417D01*
X30667Y195750D01*
X30560Y196042D01*
X30400Y196292D01*
X30213Y196458D01*
X30000Y196500D01*
X29787Y196458D01*
X29600Y196292D01*
X29440Y196042D01*
X29333Y195750D01*
X29280Y195417D01*
Y195083D01*
X29333Y194750D01*
X29440Y194458D01*
X29600Y194208D01*
X29787Y194042D01*
X30000Y194000D01*
G01X28387Y196500D02*
Y194708D01*
X28280Y194333D01*
X28067Y194083D01*
X27800Y194000D01*
X27533Y194083D01*
X27320Y194333D01*
X27213Y194708D01*
Y196500D01*
G01X25600D02*
Y194000D01*
G01X26213Y196500D02*
X24987D01*
G01X55040Y195250D02*
X54507D01*
Y194500D01*
X54667Y194250D01*
X54853Y194083D01*
X55120Y194000D01*
X55387Y194083D01*
X55573Y194250D01*
X55733Y194500D01*
X55840Y194792D01*
X55893Y195125D01*
Y195417D01*
X55840Y195667D01*
X55733Y195958D01*
X55573Y196208D01*
X55413Y196375D01*
X55200Y196500D01*
X55013D01*
X54800Y196417D01*
X54640Y196250D01*
G01X53613Y194000D02*
Y196500D01*
X52387Y194000D01*
Y196500D01*
G01X51387Y194000D02*
Y196500D01*
X50853D01*
X50640Y196375D01*
X50480Y196208D01*
X50347Y195958D01*
X50240Y195667D01*
X50213Y195250D01*
X50240Y194833D01*
X50347Y194542D01*
X50480Y194292D01*
X50640Y194125D01*
X50853Y194000D01*
X51387D01*
G01X49400Y193167D02*
X47800D01*
G01X46720Y196500D02*
X46080D01*
G01X46400D02*
Y194000D01*
G01X46720D02*
X46080D01*
G01X44760Y194333D02*
X44547Y194125D01*
X44307Y194000D01*
X44093D01*
X43880Y194125D01*
X43720Y194333D01*
X43640Y194625D01*
X43693Y194917D01*
X43827Y195167D01*
X44067Y195333D01*
X44387Y195417D01*
X44573Y195583D01*
X44653Y195875D01*
X44600Y196167D01*
X44467Y196375D01*
X44280Y196500D01*
X44093D01*
X43907Y196417D01*
X43747Y196208D01*
G01X42000Y194000D02*
X42213Y194042D01*
X42400Y194208D01*
X42560Y194458D01*
X42667Y194750D01*
X42720Y195083D01*
Y195417D01*
X42667Y195750D01*
X42560Y196042D01*
X42400Y196292D01*
X42213Y196458D01*
X42000Y196500D01*
X41787Y196458D01*
X41600Y196292D01*
X41440Y196042D01*
X41333Y195750D01*
X41280Y195417D01*
Y195083D01*
X41333Y194750D01*
X41440Y194458D01*
X41600Y194208D01*
X41787Y194042D01*
X42000Y194000D01*
G01X77300Y20000D02*
Y16000D01*
G01X78740Y135000D02*
Y139499D01*
X79063Y139822D01*
Y142000D01*
G01D02*
X75500D01*
G01X72520Y196500D02*
X71880D01*
G01X72200D02*
Y194000D01*
G01X72520D02*
X71880D01*
G01X70000D02*
X70213Y194042D01*
X70400Y194208D01*
X70560Y194458D01*
X70667Y194750D01*
X70720Y195083D01*
Y195417D01*
X70667Y195750D01*
X70560Y196042D01*
X70400Y196292D01*
X70213Y196458D01*
X70000Y196500D01*
X69787Y196458D01*
X69600Y196292D01*
X69440Y196042D01*
X69333Y195750D01*
X69280Y195417D01*
Y195083D01*
X69333Y194750D01*
X69440Y194458D01*
X69600Y194208D01*
X69787Y194042D01*
X70000Y194000D01*
G01X68387Y196500D02*
Y194708D01*
X68280Y194333D01*
X68067Y194083D01*
X67800Y194000D01*
X67533Y194083D01*
X67320Y194333D01*
X67213Y194708D01*
Y196500D01*
G01X65600D02*
Y194000D01*
G01X66213Y196500D02*
X64987D01*
G54D15*
X15000Y138000D03*
Y148000D03*
X64000Y156000D03*
Y166000D03*
G54D24*
X26000Y122780D03*
X33480D03*
Y134000D03*
X29740D03*
X26000D03*
X75000Y123780D03*
X78740Y135000D03*
X75000D03*
X82480Y123780D03*
Y135000D03*
G54D34*
G01X93000Y105610D02*
X96100D01*
X93878Y104192D01*
Y106108D01*
G54D25*
X30063Y141000D03*
X34000D03*
X79063Y142000D03*
X83000D03*
G54D16*
X15063Y155000D03*
X19000D03*
X26063Y116000D03*
X30000D03*
X76063Y117000D03*
X80000D03*
G54D17*
X14795Y163000D03*
X27787D03*
X77205Y176000D03*
X64213D03*
G54D26*
X35000Y149937D03*
Y146000D03*
X88000Y145937D03*
Y142000D03*
G54D18*
X41000Y20000D03*
Y30000D03*
Y60000D03*
Y80000D03*
Y70000D03*
X77300Y20000D03*
Y80000D03*
G54D27*
X29000Y204000D03*
X48685D03*
X68370D03*
G54D28*
X64000Y134795D03*
Y147787D03*
G54D19*
X33000Y21063D03*
Y25000D03*
G54D29*
X72000Y157000D03*
X81843D03*
M02*
