G04 ================== begin FILE IDENTIFICATION RECORD ==================*
G04 Layout Name:  isolated_v-i_dac.brd*
G04 Film Name:    Isolated_V-I_DAC-v1_00-0a-Soldermask-top*
G04 File Format:  Gerber RS274X*
G04 File Origin:  Cadence Allegro 17.4-S018*
G04 Origin Date:  Sun Sep 12 13:12:29 2021*
G04 *
G04 Layer:  PIN/SOLDERMASK_TOP*
G04 Layer:  PACKAGE GEOMETRY/SOLDERMASK_TOP*
G04 Layer:  BOARD GEOMETRY/SOLDERMASK_TOP*
G04 *
G04 Offset:    (0.00 0.00)*
G04 Mirror:    No*
G04 Mode:      Positive*
G04 Rotation:  0*
G04 FullContactRelief:  No*
G04 UndefLineWidth:     6.00*
G04 ================== end FILE IDENTIFICATION RECORD ====================*
%FSLAX25Y25*MOIN*%
%IR0*IPPOS*OFA0.00000B0.00000*MIA0B0*SFA1.00000B1.00000*%
%ADD18C,.04*%
%ADD12C,.023*%
%AMMACRO13*
4,1,44,-.01287,-.02665,
.01287,-.02665,
.013554,-.026595,
.014218,-.026417,
.01484,-.026127,
.015403,-.025733,
.015888,-.025248,
.016282,-.024685,
.016572,-.024063,
.01675,-.023399,
.01681,-.022715,
.01681,-.02271,
.01681,.02271,
.016751,.023394,
.016574,.024058,
.016285,.024681,
.015891,.025244,
.015406,.02573,
.014844,.026125,
.014222,.026416,
.013559,.026594,
.012875,.026655,
.01287,.02665,
-.01287,.02665,
-.013554,.026595,
-.014218,.026417,
-.01484,.026127,
-.015403,.025733,
-.015888,.025248,
-.016282,.024685,
-.016572,.024063,
-.01675,.023399,
-.01681,.022715,
-.01681,.02271,
-.01681,-.02271,
-.016751,-.023394,
-.016574,-.024058,
-.016285,-.024681,
-.015891,-.025244,
-.015406,-.02573,
-.014844,-.026125,
-.014222,-.026416,
-.013559,-.026594,
-.012875,-.026655,
-.01287,-.02665,
0.0*
%
%ADD13MACRO13*%
%AMMACRO20*
4,1,40,-.00787,-.01575,
.00787,-.01575,
.008896,-.01566,
.009891,-.015394,
.010825,-.014958,
.011669,-.014367,
.012397,-.013639,
.012988,-.012795,
.013424,-.011861,
.01369,-.010866,
.01378,-.00984,
.01378,.00984,
.01369,.010866,
.013424,.011861,
.012988,.012795,
.012397,.013639,
.011669,.014367,
.010825,.014958,
.009891,.015394,
.008896,.01566,
.00787,.01575,
-.00787,.01575,
-.008896,.01566,
-.009891,.015394,
-.010825,.014958,
-.011669,.014367,
-.012397,.013639,
-.012988,.012795,
-.013424,.011861,
-.01369,.010866,
-.01378,.00984,
-.01378,-.00984,
-.01369,-.010866,
-.013424,-.011861,
-.012988,-.012795,
-.012397,-.013639,
-.011669,-.014367,
-.010825,-.014958,
-.009891,-.015394,
-.008896,-.01566,
-.00787,-.01575,
0.0*
%
%ADD20MACRO20*%
%AMMACRO23*
4,1,40,.02067,-.00984,
.02067,.00984,
.02061,.010524,
.020432,.011188,
.020142,.01181,
.019748,.012373,
.019263,.012858,
.0187,.013252,
.018078,.013542,
.017414,.01372,
.01673,.01378,
-.01673,.01378,
-.017414,.01372,
-.018078,.013542,
-.0187,.013252,
-.019263,.012858,
-.019748,.012373,
-.020142,.01181,
-.020432,.011188,
-.02061,.010524,
-.02067,.00984,
-.02067,-.00984,
-.02061,-.010524,
-.020432,-.011188,
-.020142,-.01181,
-.019748,-.012373,
-.019263,-.012858,
-.0187,-.013252,
-.018078,-.013542,
-.017414,-.01372,
-.01673,-.01378,
.01673,-.01378,
.017414,-.01372,
.018078,-.013542,
.0187,-.013252,
.019263,-.012858,
.019748,-.012373,
.020142,-.01181,
.020432,-.011188,
.02061,-.010524,
.02067,-.00984,
0.0*
%
%ADD23MACRO23*%
%AMMACRO22*
4,1,40,-.00984,-.02067,
.00984,-.02067,
.010524,-.02061,
.011188,-.020432,
.01181,-.020142,
.012373,-.019748,
.012858,-.019263,
.013252,-.0187,
.013542,-.018078,
.01372,-.017414,
.01378,-.01673,
.01378,.01673,
.01372,.017414,
.013542,.018078,
.013252,.0187,
.012858,.019263,
.012373,.019748,
.01181,.020142,
.011188,.020432,
.010524,.02061,
.00984,.02067,
-.00984,.02067,
-.010524,.02061,
-.011188,.020432,
-.01181,.020142,
-.012373,.019748,
-.012858,.019263,
-.013252,.0187,
-.013542,.018078,
-.01372,.017414,
-.01378,.01673,
-.01378,-.01673,
-.01372,-.017414,
-.013542,-.018078,
-.013252,-.0187,
-.012858,-.019263,
-.012373,-.019748,
-.01181,-.020142,
-.011188,-.020432,
-.010524,-.02061,
-.00984,-.02067,
0.0*
%
%ADD22MACRO22*%
%AMMACRO24*
4,1,40,.01378,-.00906,
.01378,.00906,
.013708,.00988,
.013495,.010674,
.013148,.01142,
.012676,.012094,
.012094,.012676,
.01142,.013148,
.010674,.013495,
.00988,.013708,
.00906,.01378,
-.00906,.01378,
-.00988,.013708,
-.010674,.013495,
-.01142,.013148,
-.012094,.012676,
-.012676,.012094,
-.013148,.01142,
-.013495,.010674,
-.013708,.00988,
-.01378,.00906,
-.01378,-.00906,
-.013708,-.00988,
-.013495,-.010674,
-.013148,-.01142,
-.012676,-.012094,
-.012094,-.012676,
-.01142,-.013148,
-.010674,-.013495,
-.00988,-.013708,
-.00906,-.01378,
.00906,-.01378,
.00988,-.013708,
.010674,-.013495,
.01142,-.013148,
.012094,-.012676,
.012676,-.012094,
.013148,-.01142,
.013495,-.010674,
.013708,-.00988,
.01378,-.00906,
0.0*
%
%ADD24MACRO24*%
%AMMACRO17*
4,1,40,-.00906,-.01378,
.00906,-.01378,
.00988,-.013708,
.010674,-.013495,
.01142,-.013148,
.012094,-.012676,
.012676,-.012094,
.013148,-.01142,
.013495,-.010674,
.013708,-.00988,
.01378,-.00906,
.01378,.00906,
.013708,.00988,
.013495,.010674,
.013148,.01142,
.012676,.012094,
.012094,.012676,
.01142,.013148,
.010674,.013495,
.00988,.013708,
.00906,.01378,
-.00906,.01378,
-.00988,.013708,
-.010674,.013495,
-.01142,.013148,
-.012094,.012676,
-.012676,.012094,
-.013148,.01142,
-.013495,.010674,
-.013708,.00988,
-.01378,.00906,
-.01378,-.00906,
-.013708,-.00988,
-.013495,-.010674,
-.013148,-.01142,
-.012676,-.012094,
-.012094,-.012676,
-.01142,-.013148,
-.010674,-.013495,
-.00988,-.013708,
-.00906,-.01378,
0.0*
%
%ADD17MACRO17*%
%ADD25C,.11*%
%ADD31R,.033X.06*%
%ADD16R,.06X.033*%
%ADD30R,.0354X.063*%
%ADD10O,.085X.065*%
%ADD11R,.085X.065*%
%ADD32R,.05906X.04134*%
%ADD29R,.04134X.05906*%
%AMMACRO27*
4,1,44,.01287,.02665,
-.01287,.02665,
-.013554,.026595,
-.014218,.026417,
-.01484,.026127,
-.015403,.025733,
-.015888,.025248,
-.016282,.024685,
-.016572,.024063,
-.01675,.023399,
-.01681,.022715,
-.01681,.02271,
-.01681,-.02271,
-.016751,-.023394,
-.016574,-.024058,
-.016285,-.024681,
-.015891,-.025244,
-.015406,-.02573,
-.014844,-.026125,
-.014222,-.026416,
-.013559,-.026594,
-.012875,-.026655,
-.01287,-.02665,
.01287,-.02665,
.013554,-.026595,
.014218,-.026417,
.01484,-.026127,
.015403,-.025733,
.015888,-.025248,
.016282,-.024685,
.016572,-.024063,
.01675,-.023399,
.01681,-.022715,
.01681,-.02271,
.01681,.02271,
.016751,.023394,
.016574,.024058,
.016285,.024681,
.015891,.025244,
.015406,.02573,
.014844,.026125,
.014222,.026416,
.013559,.026594,
.012875,.026655,
.01287,.02665,
0.0*
%
%ADD27MACRO27*%
%AMMACRO14*
4,1,40,-.01575,.00787,
-.01575,-.00787,
-.01566,-.008896,
-.015394,-.009891,
-.014958,-.010825,
-.014367,-.011669,
-.013639,-.012397,
-.012795,-.012988,
-.011861,-.013424,
-.010866,-.01369,
-.00984,-.01378,
.00984,-.01378,
.010866,-.01369,
.011861,-.013424,
.012795,-.012988,
.013639,-.012397,
.014367,-.011669,
.014958,-.010825,
.015394,-.009891,
.01566,-.008896,
.01575,-.00787,
.01575,.00787,
.01566,.008896,
.015394,.009891,
.014958,.010825,
.014367,.011669,
.013639,.012397,
.012795,.012988,
.011861,.013424,
.010866,.01369,
.00984,.01378,
-.00984,.01378,
-.010866,.01369,
-.011861,.013424,
-.012795,.012988,
-.013639,.012397,
-.014367,.011669,
-.014958,.010825,
-.015394,.009891,
-.01566,.008896,
-.01575,.00787,
0.0*
%
%ADD14MACRO14*%
%ADD19R,.03937X.05315*%
%AMMACRO21*
4,1,40,.00984,.02067,
-.00984,.02067,
-.010524,.02061,
-.011188,.020432,
-.01181,.020142,
-.012373,.019748,
-.012858,.019263,
-.013252,.0187,
-.013542,.018078,
-.01372,.017414,
-.01378,.01673,
-.01378,-.01673,
-.01372,-.017414,
-.013542,-.018078,
-.013252,-.0187,
-.012858,-.019263,
-.012373,-.019748,
-.01181,-.020142,
-.011188,-.020432,
-.010524,-.02061,
-.00984,-.02067,
.00984,-.02067,
.010524,-.02061,
.011188,-.020432,
.01181,-.020142,
.012373,-.019748,
.012858,-.019263,
.013252,-.0187,
.013542,-.018078,
.01372,-.017414,
.01378,-.01673,
.01378,.01673,
.01372,.017414,
.013542,.018078,
.013252,.0187,
.012858,.019263,
.012373,.019748,
.01181,.020142,
.011188,.020432,
.010524,.02061,
.00984,.02067,
0.0*
%
%ADD21MACRO21*%
%AMMACRO15*
4,1,40,-.01378,.00906,
-.01378,-.00906,
-.013708,-.00988,
-.013495,-.010674,
-.013148,-.01142,
-.012676,-.012094,
-.012094,-.012676,
-.01142,-.013148,
-.010674,-.013495,
-.00988,-.013708,
-.00906,-.01378,
.00906,-.01378,
.00988,-.013708,
.010674,-.013495,
.01142,-.013148,
.012094,-.012676,
.012676,-.012094,
.013148,-.01142,
.013495,-.010674,
.013708,-.00988,
.01378,-.00906,
.01378,.00906,
.013708,.00988,
.013495,.010674,
.013148,.01142,
.012676,.012094,
.012094,.012676,
.01142,.013148,
.010674,.013495,
.00988,.013708,
.00906,.01378,
-.00906,.01378,
-.00988,.013708,
-.010674,.013495,
-.01142,.013148,
-.012094,.012676,
-.012676,.012094,
-.013148,.01142,
-.013495,.010674,
-.013708,.00988,
-.01378,.00906,
0.0*
%
%ADD15MACRO15*%
%AMMACRO28*
4,1,40,.00906,.01378,
-.00906,.01378,
-.00988,.013708,
-.010674,.013495,
-.01142,.013148,
-.012094,.012676,
-.012676,.012094,
-.013148,.01142,
-.013495,.010674,
-.013708,.00988,
-.01378,.00906,
-.01378,-.00906,
-.013708,-.00988,
-.013495,-.010674,
-.013148,-.01142,
-.012676,-.012094,
-.012094,-.012676,
-.01142,-.013148,
-.010674,-.013495,
-.00988,-.013708,
-.00906,-.01378,
.00906,-.01378,
.00988,-.013708,
.010674,-.013495,
.01142,-.013148,
.012094,-.012676,
.012676,-.012094,
.013148,-.01142,
.013495,-.010674,
.013708,-.00988,
.01378,-.00906,
.01378,.00906,
.013708,.00988,
.013495,.010674,
.013148,.01142,
.012676,.012094,
.012094,.012676,
.01142,.013148,
.010674,.013495,
.00988,.013708,
.00906,.01378,
0.0*
%
%ADD28MACRO28*%
%AMMACRO26*
4,1,44,.00288,.01673,
-.00288,.01673,
-.003747,.016655,
-.004587,.016431,
-.005376,.016064,
-.006089,.015566,
-.006704,.014951,
-.007204,.014239,
-.007572,.013451,
-.007798,.012611,
-.007875,.011745,
-.00787,.01174,
-.00787,-.01174,
-.007799,-.012607,
-.007574,-.013447,
-.007206,-.014235,
-.006708,-.014948,
-.006093,-.015563,
-.00538,-.016061,
-.004592,-.016429,
-.003752,-.016654,
-.002885,-.01673,
-.00288,-.01673,
.00288,-.01673,
.003747,-.016655,
.004587,-.016431,
.005376,-.016064,
.006089,-.015566,
.006704,-.014951,
.007204,-.014239,
.007572,-.013451,
.007798,-.012611,
.007875,-.011745,
.00787,-.01174,
.00787,.01174,
.007799,.012607,
.007574,.013447,
.007206,.014235,
.006708,.014948,
.006093,.015563,
.00538,.016061,
.004592,.016429,
.003752,.016654,
.002885,.01673,
.00288,.01673,
0.0*
%
%ADD26MACRO26*%
G75*
%LPD*%
G75*
G36*
G01X92000Y107500D02*
Y94000D01*
X97000D01*
Y107500D01*
X92000D01*
G37*
G36*
G01X86000D02*
Y94000D01*
X91000D01*
Y107500D01*
X86000D01*
G37*
G54D10*
X5000Y15000D03*
Y25000D03*
Y35000D03*
Y45000D03*
Y55000D03*
Y65000D03*
Y75000D03*
X95000Y25000D03*
Y15000D03*
Y45000D03*
Y35000D03*
Y55000D03*
Y75000D03*
Y65000D03*
G54D11*
X5000Y85000D03*
X95000D03*
G54D20*
X39063Y90000D03*
X54063Y10000D03*
X58000D03*
X43000Y90000D03*
G54D21*
X31500Y96000D03*
X25000D03*
X56000Y178000D03*
X76500Y67000D03*
X70000D03*
X62500Y178000D03*
G54D30*
X72020Y79339D03*
X68280Y88000D03*
X75760D03*
G54D12*
X19000Y8000D03*
X10000Y97000D03*
X9000Y109000D03*
X18000Y103000D03*
X12000Y131000D03*
X8000Y141000D03*
X18000Y185000D03*
X10000Y203000D03*
X27000Y32000D03*
X38000Y74500D03*
Y82000D03*
X30000Y116000D03*
X35000Y159000D03*
X57500Y70500D03*
X52000D03*
X46500D03*
X46000Y95000D03*
X50000Y114000D03*
X47000Y104000D03*
X53000Y128000D03*
X58000Y154000D03*
X43000Y164500D03*
X52000Y168000D03*
X78000Y25000D03*
X76500Y51000D03*
X81000Y8000D03*
X92000Y112000D03*
X86500Y188500D03*
X89000Y203000D03*
G54D31*
X79000Y128000D03*
X74000D03*
X69000D03*
X64000D03*
Y148100D03*
X69000D03*
X74000D03*
X79000D03*
G54D22*
X25500Y103000D03*
X32000D03*
X54500Y160000D03*
X69500Y100000D03*
X76000D03*
X62500Y116000D03*
X69000D03*
X67500Y160000D03*
X74000D03*
X61000D03*
X77500Y178000D03*
X84000D03*
G54D13*
X22520Y78339D03*
Y87000D03*
X30000Y78339D03*
X26260D03*
Y87000D03*
X30000D03*
X31000Y123780D03*
X23520D03*
Y135000D03*
X27260D03*
X31000D03*
G54D14*
X18000Y116937D03*
Y113000D03*
X17000Y125937D03*
Y122000D03*
X32000Y70937D03*
Y67000D03*
X23000Y116937D03*
Y113000D03*
X35000Y167937D03*
Y164000D03*
G54D32*
X70000Y178480D03*
Y170606D03*
X88000Y140606D03*
Y148480D03*
G54D23*
X35000Y145500D03*
Y152000D03*
X48500Y138000D03*
Y144500D03*
G54D15*
X12000Y125937D03*
Y122000D03*
X27500Y70937D03*
Y67000D03*
X37000Y120000D03*
Y123937D03*
X42000Y120000D03*
Y123937D03*
X54000Y147937D03*
Y144000D03*
X58000Y147937D03*
Y144000D03*
X88000Y131937D03*
Y128000D03*
X84000Y131937D03*
Y128000D03*
G54D24*
X38000Y173063D03*
Y177000D03*
X34000Y173063D03*
Y177000D03*
G54D16*
X8000Y158000D03*
Y163000D03*
Y168000D03*
Y173000D03*
X28100Y158000D03*
Y173000D03*
Y168000D03*
Y163000D03*
G54D25*
X29000Y204000D03*
X48685D03*
X68370D03*
G54D26*
X60000Y33000D03*
X57500D03*
X55000D03*
X52500D03*
X50000D03*
X47500D03*
X45000D03*
X42500D03*
Y57400D03*
X45000D03*
X47500D03*
X50000D03*
X52500D03*
X55000D03*
X57500D03*
X60000D03*
G54D17*
X19063Y145000D03*
Y141000D03*
X5063Y149000D03*
X9000D03*
X5063Y153000D03*
X9000D03*
X41063Y61500D03*
X23000Y145000D03*
Y141000D03*
X42063Y29000D03*
X46000D03*
X57563D03*
X45000Y61500D03*
X57563D03*
X61500Y29000D03*
Y61500D03*
X69063Y94000D03*
X73000D03*
X65063Y122000D03*
X69000D03*
X70063Y154000D03*
X74000D03*
G54D27*
X56480Y77000D03*
X52740D03*
X49000D03*
Y85661D03*
X52740D03*
X56480D03*
G54D18*
X12500Y217500D03*
X78500Y35500D03*
X87500Y218000D03*
G54D28*
X56937Y99000D03*
X53000D03*
X56937Y95000D03*
X53000D03*
X75937Y73000D03*
X72000D03*
G54D19*
X39913Y10000D03*
X47000D03*
G54D29*
X60606Y108000D03*
X76480Y58000D03*
X68606D03*
X75520Y118000D03*
X68480Y108000D03*
X80520Y160000D03*
X83394Y118000D03*
X88394Y160000D03*
M02*
